<?xml version="1.0" encoding="utf-8" standalone="no"?>
<!DOCTYPE svg PUBLIC "-//W3C//DTD SVG 1.1//EN"
  "http://www.w3.org/Graphics/SVG/1.1/DTD/svg11.dtd">
<svg xmlns:xlink="http://www.w3.org/1999/xlink" width="576pt" height="432pt" viewBox="0 0 576 432" xmlns="http://www.w3.org/2000/svg" version="1.1">
 <metadata>
  <rdf:RDF xmlns:dc="http://purl.org/dc/elements/1.1/" xmlns:cc="http://creativecommons.org/ns#" xmlns:rdf="http://www.w3.org/1999/02/22-rdf-syntax-ns#">
   <cc:Work>
    <dc:type rdf:resource="http://purl.org/dc/dcmitype/StillImage"/>
    <dc:date>2026-07-27T22:14:36.866632</dc:date>
    <dc:format>image/svg+xml</dc:format>
    <dc:creator>
     <cc:Agent>
      <dc:title>Matplotlib v3.5.3, https://matplotlib.org/</dc:title>
     </cc:Agent>
    </dc:creator>
   </cc:Work>
  </rdf:RDF>
 </metadata>
 <defs>
  <style type="text/css">*{stroke-linejoin: round; stroke-linecap: butt}</style>
 </defs>
 <g id="figure_1">
  <g id="patch_1">
   <path d="M 0 432 
L 576 432 
L 576 0 
L 0 0 
z
" style="fill: #ffffff"/>
  </g>
  <g id="axes_1">
   <g id="patch_2">
    <path d="M 75.998805 363.876 
L 559.8 363.876 
L 559.8 35.16 
L 75.998805 35.16 
z
" style="fill: #ffffff"/>
   </g>
   <g id="line2d_1">
    <path d="M 75.998805 51.154808 
L 559.8 51.154808 
" clip-path="url(#pa4df49f416)" style="fill: none; stroke-dasharray: 3.7,1.6; stroke-dashoffset: 0; stroke: #808080"/>
   </g>
   <g id="matplotlib.axis_1">
    <g id="xtick_1">
     <g id="line2d_2">
      <path d="M 180.632611 363.876 
L 180.632611 35.16 
" clip-path="url(#pa4df49f416)" style="fill: none; stroke-dasharray: 5.55,2.4; stroke-dashoffset: 0; stroke: #e6e6e6; stroke-width: 1.5"/>
     </g>
     <g id="line2d_3">
      <defs>
       <path id="me87c6bf322" d="M 0 0 
L 0 9 
" style="stroke: #262626; stroke-width: 1.875"/>
      </defs>
      <g>
       <use xlink:href="#me87c6bf322" x="180.632611" y="363.876" style="fill: #262626; stroke: #262626; stroke-width: 1.875"/>
      </g>
     </g>
     <g id="text_1">
      <!-- $\mathdefault{10^{-1}}$ -->
      <g style="fill: #262626" transform="translate(161.245111 388.913422)scale(0.165 -0.165)">
       <defs>
        <path id="DejaVuSans-31" d="M 794 531 
L 1825 531 
L 1825 4091 
L 703 3866 
L 703 4441 
L 1819 4666 
L 2450 4666 
L 2450 531 
L 3481 531 
L 3481 0 
L 794 0 
L 794 531 
z
" transform="scale(0.015625)"/>
        <path id="DejaVuSans-30" d="M 2034 4250 
Q 1547 4250 1301 3770 
Q 1056 3291 1056 2328 
Q 1056 1369 1301 889 
Q 1547 409 2034 409 
Q 2525 409 2770 889 
Q 3016 1369 3016 2328 
Q 3016 3291 2770 3770 
Q 2525 4250 2034 4250 
z
M 2034 4750 
Q 2819 4750 3233 4129 
Q 3647 3509 3647 2328 
Q 3647 1150 3233 529 
Q 2819 -91 2034 -91 
Q 1250 -91 836 529 
Q 422 1150 422 2328 
Q 422 3509 836 4129 
Q 1250 4750 2034 4750 
z
" transform="scale(0.015625)"/>
        <path id="DejaVuSans-2212" d="M 678 2272 
L 4684 2272 
L 4684 1741 
L 678 1741 
L 678 2272 
z
" transform="scale(0.015625)"/>
       </defs>
       <use xlink:href="#DejaVuSans-31" transform="translate(0 0.684375)"/>
       <use xlink:href="#DejaVuSans-30" transform="translate(63.623047 0.684375)"/>
       <use xlink:href="#DejaVuSans-2212" transform="translate(128.203125 38.965625)scale(0.7)"/>
       <use xlink:href="#DejaVuSans-31" transform="translate(186.855469 38.965625)scale(0.7)"/>
      </g>
     </g>
    </g>
    <g id="xtick_2">
     <g id="line2d_4">
      <path d="M 455.166194 363.876 
L 455.166194 35.16 
" clip-path="url(#pa4df49f416)" style="fill: none; stroke-dasharray: 5.55,2.4; stroke-dashoffset: 0; stroke: #e6e6e6; stroke-width: 1.5"/>
     </g>
     <g id="line2d_5">
      <g>
       <use xlink:href="#me87c6bf322" x="455.166194" y="363.876" style="fill: #262626; stroke: #262626; stroke-width: 1.875"/>
      </g>
     </g>
     <g id="text_2">
      <!-- $\mathdefault{10^{0}}$ -->
      <g style="fill: #262626" transform="translate(440.646194 388.913422)scale(0.165 -0.165)">
       <use xlink:href="#DejaVuSans-31" transform="translate(0 0.765625)"/>
       <use xlink:href="#DejaVuSans-30" transform="translate(63.623047 0.765625)"/>
       <use xlink:href="#DejaVuSans-30" transform="translate(128.203125 39.046875)scale(0.7)"/>
      </g>
     </g>
    </g>
    <g id="xtick_3">
     <g id="line2d_6">
      <defs>
       <path id="mf87d1c87de" d="M 0 0 
L 0 6 
" style="stroke: #262626; stroke-width: 1.5"/>
      </defs>
      <g>
       <use xlink:href="#mf87d1c87de" x="97.989768" y="363.876" style="fill: #262626; stroke: #262626; stroke-width: 1.5"/>
      </g>
     </g>
    </g>
    <g id="xtick_4">
     <g id="line2d_7">
      <g>
       <use xlink:href="#mf87d1c87de" x="119.727679" y="363.876" style="fill: #262626; stroke: #262626; stroke-width: 1.5"/>
      </g>
     </g>
    </g>
    <g id="xtick_5">
     <g id="line2d_8">
      <g>
       <use xlink:href="#mf87d1c87de" x="138.106821" y="363.876" style="fill: #262626; stroke: #262626; stroke-width: 1.5"/>
      </g>
     </g>
    </g>
    <g id="xtick_6">
     <g id="line2d_9">
      <g>
       <use xlink:href="#mf87d1c87de" x="154.027558" y="363.876" style="fill: #262626; stroke: #262626; stroke-width: 1.5"/>
      </g>
     </g>
    </g>
    <g id="xtick_7">
     <g id="line2d_10">
      <g>
       <use xlink:href="#mf87d1c87de" x="168.070644" y="363.876" style="fill: #262626; stroke: #262626; stroke-width: 1.5"/>
      </g>
     </g>
    </g>
    <g id="xtick_8">
     <g id="line2d_11">
      <g>
       <use xlink:href="#mf87d1c87de" x="263.275454" y="363.876" style="fill: #262626; stroke: #262626; stroke-width: 1.5"/>
      </g>
     </g>
    </g>
    <g id="xtick_9">
     <g id="line2d_12">
      <g>
       <use xlink:href="#mf87d1c87de" x="311.618419" y="363.876" style="fill: #262626; stroke: #262626; stroke-width: 1.5"/>
      </g>
     </g>
    </g>
    <g id="xtick_10">
     <g id="line2d_13">
      <g>
       <use xlink:href="#mf87d1c87de" x="345.918297" y="363.876" style="fill: #262626; stroke: #262626; stroke-width: 1.5"/>
      </g>
     </g>
    </g>
    <g id="xtick_11">
     <g id="line2d_14">
      <g>
       <use xlink:href="#mf87d1c87de" x="372.52335" y="363.876" style="fill: #262626; stroke: #262626; stroke-width: 1.5"/>
      </g>
     </g>
    </g>
    <g id="xtick_12">
     <g id="line2d_15">
      <g>
       <use xlink:href="#mf87d1c87de" x="394.261262" y="363.876" style="fill: #262626; stroke: #262626; stroke-width: 1.5"/>
      </g>
     </g>
    </g>
    <g id="xtick_13">
     <g id="line2d_16">
      <g>
       <use xlink:href="#mf87d1c87de" x="412.640404" y="363.876" style="fill: #262626; stroke: #262626; stroke-width: 1.5"/>
      </g>
     </g>
    </g>
    <g id="xtick_14">
     <g id="line2d_17">
      <g>
       <use xlink:href="#mf87d1c87de" x="428.561141" y="363.876" style="fill: #262626; stroke: #262626; stroke-width: 1.5"/>
      </g>
     </g>
    </g>
    <g id="xtick_15">
     <g id="line2d_18">
      <g>
       <use xlink:href="#mf87d1c87de" x="442.604226" y="363.876" style="fill: #262626; stroke: #262626; stroke-width: 1.5"/>
      </g>
     </g>
    </g>
    <g id="xtick_16">
     <g id="line2d_19">
      <g>
       <use xlink:href="#mf87d1c87de" x="537.809037" y="363.876" style="fill: #262626; stroke: #262626; stroke-width: 1.5"/>
      </g>
     </g>
    </g>
    <g id="text_3">
     <!-- $p = D_x / D_{\rm ext}$ -->
     <g style="fill: #262626" transform="translate(277.924402 407.712094)scale(0.15 -0.15)">
      <defs>
       <path id="DejaVuSans-Oblique-70" d="M 3175 2156 
Q 3175 2616 2975 2859 
Q 2775 3103 2400 3103 
Q 2144 3103 1911 2972 
Q 1678 2841 1497 2591 
Q 1319 2344 1212 1994 
Q 1106 1644 1106 1300 
Q 1106 863 1306 627 
Q 1506 391 1875 391 
Q 2147 391 2380 519 
Q 2613 647 2778 891 
Q 2956 1147 3065 1494 
Q 3175 1841 3175 2156 
z
M 1394 2969 
Q 1625 3272 1939 3428 
Q 2253 3584 2638 3584 
Q 3175 3584 3472 3232 
Q 3769 2881 3769 2247 
Q 3769 1728 3584 1258 
Q 3400 788 3053 416 
Q 2822 169 2531 39 
Q 2241 -91 1919 -91 
Q 1547 -91 1294 64 
Q 1041 219 916 525 
L 556 -1331 
L -19 -1331 
L 922 3500 
L 1497 3500 
L 1394 2969 
z
" transform="scale(0.015625)"/>
       <path id="DejaVuSans-3d" d="M 678 2906 
L 4684 2906 
L 4684 2381 
L 678 2381 
L 678 2906 
z
M 678 1631 
L 4684 1631 
L 4684 1100 
L 678 1100 
L 678 1631 
z
" transform="scale(0.015625)"/>
       <path id="DejaVuSans-Oblique-44" d="M 1081 4666 
L 2438 4666 
Q 3519 4666 4070 4208 
Q 4622 3750 4622 2847 
Q 4622 2250 4412 1698 
Q 4203 1147 3834 769 
Q 3463 381 2891 190 
Q 2319 0 1538 0 
L 172 0 
L 1081 4666 
z
M 1613 4147 
L 909 519 
L 1734 519 
Q 2794 519 3375 1128 
Q 3956 1738 3956 2847 
Q 3956 3519 3581 3833 
Q 3206 4147 2406 4147 
L 1613 4147 
z
" transform="scale(0.015625)"/>
       <path id="DejaVuSans-Oblique-78" d="M 3841 3500 
L 2234 1784 
L 3219 0 
L 2559 0 
L 1819 1388 
L 531 0 
L -166 0 
L 1556 1844 
L 641 3500 
L 1300 3500 
L 1972 2234 
L 3144 3500 
L 3841 3500 
z
" transform="scale(0.015625)"/>
       <path id="DejaVuSans-2f" d="M 1625 4666 
L 2156 4666 
L 531 -594 
L 0 -594 
L 1625 4666 
z
" transform="scale(0.015625)"/>
       <path id="DejaVuSans-65" d="M 3597 1894 
L 3597 1613 
L 953 1613 
Q 991 1019 1311 708 
Q 1631 397 2203 397 
Q 2534 397 2845 478 
Q 3156 559 3463 722 
L 3463 178 
Q 3153 47 2828 -22 
Q 2503 -91 2169 -91 
Q 1331 -91 842 396 
Q 353 884 353 1716 
Q 353 2575 817 3079 
Q 1281 3584 2069 3584 
Q 2775 3584 3186 3129 
Q 3597 2675 3597 1894 
z
M 3022 2063 
Q 3016 2534 2758 2815 
Q 2500 3097 2075 3097 
Q 1594 3097 1305 2825 
Q 1016 2553 972 2059 
L 3022 2063 
z
" transform="scale(0.015625)"/>
       <path id="DejaVuSans-78" d="M 3513 3500 
L 2247 1797 
L 3578 0 
L 2900 0 
L 1881 1375 
L 863 0 
L 184 0 
L 1544 1831 
L 300 3500 
L 978 3500 
L 1906 2253 
L 2834 3500 
L 3513 3500 
z
" transform="scale(0.015625)"/>
       <path id="DejaVuSans-74" d="M 1172 4494 
L 1172 3500 
L 2356 3500 
L 2356 3053 
L 1172 3053 
L 1172 1153 
Q 1172 725 1289 603 
Q 1406 481 1766 481 
L 2356 481 
L 2356 0 
L 1766 0 
Q 1100 0 847 248 
Q 594 497 594 1153 
L 594 3053 
L 172 3053 
L 172 3500 
L 594 3500 
L 594 4494 
L 1172 4494 
z
" transform="scale(0.015625)"/>
      </defs>
      <use xlink:href="#DejaVuSans-Oblique-70" transform="translate(0 0.09375)"/>
      <use xlink:href="#DejaVuSans-3d" transform="translate(82.958984 0.09375)"/>
      <use xlink:href="#DejaVuSans-Oblique-44" transform="translate(186.230469 0.09375)"/>
      <use xlink:href="#DejaVuSans-Oblique-78" transform="translate(263.232422 -16.3125)scale(0.7)"/>
      <use xlink:href="#DejaVuSans-2f" transform="translate(307.392578 0.09375)"/>
      <use xlink:href="#DejaVuSans-Oblique-44" transform="translate(341.083984 0.09375)"/>
      <use xlink:href="#DejaVuSans-65" transform="translate(418.085938 -16.3125)scale(0.7)"/>
      <use xlink:href="#DejaVuSans-78" transform="translate(461.152344 -16.3125)scale(0.7)"/>
      <use xlink:href="#DejaVuSans-74" transform="translate(502.578125 -16.3125)scale(0.7)"/>
     </g>
    </g>
   </g>
   <g id="matplotlib.axis_2">
    <g id="ytick_1">
     <g id="line2d_20">
      <path d="M 75.998805 294.867097 
L 559.8 294.867097 
" clip-path="url(#pa4df49f416)" style="fill: none; stroke-dasharray: 5.55,2.4; stroke-dashoffset: 0; stroke: #e6e6e6; stroke-width: 1.5"/>
     </g>
     <g id="line2d_21">
      <defs>
       <path id="m3f0cd78eff" d="M 0 0 
L -9 0 
" style="stroke: #262626; stroke-width: 1.875"/>
      </defs>
      <g>
       <use xlink:href="#m3f0cd78eff" x="75.998805" y="294.867097" style="fill: #262626; stroke: #262626; stroke-width: 1.875"/>
      </g>
     </g>
     <g id="text_4">
      <!-- $\mathdefault{10^{1}}$ -->
      <g style="fill: #262626" transform="translate(34.458805 301.135808)scale(0.165 -0.165)">
       <use xlink:href="#DejaVuSans-31" transform="translate(0 0.684375)"/>
       <use xlink:href="#DejaVuSans-30" transform="translate(63.623047 0.684375)"/>
       <use xlink:href="#DejaVuSans-31" transform="translate(128.203125 38.965625)scale(0.7)"/>
      </g>
     </g>
    </g>
    <g id="ytick_2">
     <g id="line2d_22">
      <path d="M 75.998805 51.154808 
L 559.8 51.154808 
" clip-path="url(#pa4df49f416)" style="fill: none; stroke-dasharray: 5.55,2.4; stroke-dashoffset: 0; stroke: #e6e6e6; stroke-width: 1.5"/>
     </g>
     <g id="line2d_23">
      <g>
       <use xlink:href="#m3f0cd78eff" x="75.998805" y="51.154808" style="fill: #262626; stroke: #262626; stroke-width: 1.875"/>
      </g>
     </g>
     <g id="text_5">
      <!-- $\mathdefault{10^{2}}$ -->
      <g style="fill: #262626" transform="translate(34.458805 57.423519)scale(0.165 -0.165)">
       <defs>
        <path id="DejaVuSans-32" d="M 1228 531 
L 3431 531 
L 3431 0 
L 469 0 
L 469 531 
Q 828 903 1448 1529 
Q 2069 2156 2228 2338 
Q 2531 2678 2651 2914 
Q 2772 3150 2772 3378 
Q 2772 3750 2511 3984 
Q 2250 4219 1831 4219 
Q 1534 4219 1204 4116 
Q 875 4013 500 3803 
L 500 4441 
Q 881 4594 1212 4672 
Q 1544 4750 1819 4750 
Q 2544 4750 2975 4387 
Q 3406 4025 3406 3419 
Q 3406 3131 3298 2873 
Q 3191 2616 2906 2266 
Q 2828 2175 2409 1742 
Q 1991 1309 1228 531 
z
" transform="scale(0.015625)"/>
       </defs>
       <use xlink:href="#DejaVuSans-31" transform="translate(0 0.765625)"/>
       <use xlink:href="#DejaVuSans-30" transform="translate(63.623047 0.765625)"/>
       <use xlink:href="#DejaVuSans-32" transform="translate(128.203125 39.046875)scale(0.7)"/>
      </g>
     </g>
    </g>
    <g id="ytick_3">
     <g id="line2d_24">
      <defs>
       <path id="m8f3a4882b8" d="M 0 0 
L -6 0 
" style="stroke: #262626; stroke-width: 1.5"/>
      </defs>
      <g>
       <use xlink:href="#m8f3a4882b8" x="75.998805" y="348.934364" style="fill: #262626; stroke: #262626; stroke-width: 1.5"/>
      </g>
     </g>
    </g>
    <g id="ytick_4">
     <g id="line2d_25">
      <g>
       <use xlink:href="#m8f3a4882b8" x="75.998805" y="332.618608" style="fill: #262626; stroke: #262626; stroke-width: 1.5"/>
      </g>
     </g>
    </g>
    <g id="ytick_5">
     <g id="line2d_26">
      <g>
       <use xlink:href="#m8f3a4882b8" x="75.998805" y="318.485258" style="fill: #262626; stroke: #262626; stroke-width: 1.5"/>
      </g>
     </g>
    </g>
    <g id="ytick_6">
     <g id="line2d_27">
      <g>
       <use xlink:href="#m8f3a4882b8" x="75.998805" y="306.01876" style="fill: #262626; stroke: #262626; stroke-width: 1.5"/>
      </g>
     </g>
    </g>
    <g id="ytick_7">
     <g id="line2d_28">
      <g>
       <use xlink:href="#m8f3a4882b8" x="75.998805" y="221.502388" style="fill: #262626; stroke: #262626; stroke-width: 1.5"/>
      </g>
     </g>
    </g>
    <g id="ytick_8">
     <g id="line2d_29">
      <g>
       <use xlink:href="#m8f3a4882b8" x="75.998805" y="178.586784" style="fill: #262626; stroke: #262626; stroke-width: 1.5"/>
      </g>
     </g>
    </g>
    <g id="ytick_9">
     <g id="line2d_30">
      <g>
       <use xlink:href="#m8f3a4882b8" x="75.998805" y="148.137679" style="fill: #262626; stroke: #262626; stroke-width: 1.5"/>
      </g>
     </g>
    </g>
    <g id="ytick_10">
     <g id="line2d_31">
      <g>
       <use xlink:href="#m8f3a4882b8" x="75.998805" y="124.519518" style="fill: #262626; stroke: #262626; stroke-width: 1.5"/>
      </g>
     </g>
    </g>
    <g id="ytick_11">
     <g id="line2d_32">
      <g>
       <use xlink:href="#m8f3a4882b8" x="75.998805" y="105.222075" style="fill: #262626; stroke: #262626; stroke-width: 1.5"/>
      </g>
     </g>
    </g>
    <g id="ytick_12">
     <g id="line2d_33">
      <g>
       <use xlink:href="#m8f3a4882b8" x="75.998805" y="88.906319" style="fill: #262626; stroke: #262626; stroke-width: 1.5"/>
      </g>
     </g>
    </g>
    <g id="ytick_13">
     <g id="line2d_34">
      <g>
       <use xlink:href="#m8f3a4882b8" x="75.998805" y="74.772969" style="fill: #262626; stroke: #262626; stroke-width: 1.5"/>
      </g>
     </g>
    </g>
    <g id="ytick_14">
     <g id="line2d_35">
      <g>
       <use xlink:href="#m8f3a4882b8" x="75.998805" y="62.306471" style="fill: #262626; stroke: #262626; stroke-width: 1.5"/>
      </g>
     </g>
    </g>
    <g id="text_6">
     <!-- number of peaks -->
     <g style="fill: #262626" transform="translate(27.339274 263.007844)rotate(-90)scale(0.15 -0.15)">
      <defs>
       <path id="DejaVuSans-6e" d="M 3513 2113 
L 3513 0 
L 2938 0 
L 2938 2094 
Q 2938 2591 2744 2837 
Q 2550 3084 2163 3084 
Q 1697 3084 1428 2787 
Q 1159 2491 1159 1978 
L 1159 0 
L 581 0 
L 581 3500 
L 1159 3500 
L 1159 2956 
Q 1366 3272 1645 3428 
Q 1925 3584 2291 3584 
Q 2894 3584 3203 3211 
Q 3513 2838 3513 2113 
z
" transform="scale(0.015625)"/>
       <path id="DejaVuSans-75" d="M 544 1381 
L 544 3500 
L 1119 3500 
L 1119 1403 
Q 1119 906 1312 657 
Q 1506 409 1894 409 
Q 2359 409 2629 706 
Q 2900 1003 2900 1516 
L 2900 3500 
L 3475 3500 
L 3475 0 
L 2900 0 
L 2900 538 
Q 2691 219 2414 64 
Q 2138 -91 1772 -91 
Q 1169 -91 856 284 
Q 544 659 544 1381 
z
M 1991 3584 
L 1991 3584 
z
" transform="scale(0.015625)"/>
       <path id="DejaVuSans-6d" d="M 3328 2828 
Q 3544 3216 3844 3400 
Q 4144 3584 4550 3584 
Q 5097 3584 5394 3201 
Q 5691 2819 5691 2113 
L 5691 0 
L 5113 0 
L 5113 2094 
Q 5113 2597 4934 2840 
Q 4756 3084 4391 3084 
Q 3944 3084 3684 2787 
Q 3425 2491 3425 1978 
L 3425 0 
L 2847 0 
L 2847 2094 
Q 2847 2600 2669 2842 
Q 2491 3084 2119 3084 
Q 1678 3084 1418 2786 
Q 1159 2488 1159 1978 
L 1159 0 
L 581 0 
L 581 3500 
L 1159 3500 
L 1159 2956 
Q 1356 3278 1631 3431 
Q 1906 3584 2284 3584 
Q 2666 3584 2933 3390 
Q 3200 3197 3328 2828 
z
" transform="scale(0.015625)"/>
       <path id="DejaVuSans-62" d="M 3116 1747 
Q 3116 2381 2855 2742 
Q 2594 3103 2138 3103 
Q 1681 3103 1420 2742 
Q 1159 2381 1159 1747 
Q 1159 1113 1420 752 
Q 1681 391 2138 391 
Q 2594 391 2855 752 
Q 3116 1113 3116 1747 
z
M 1159 2969 
Q 1341 3281 1617 3432 
Q 1894 3584 2278 3584 
Q 2916 3584 3314 3078 
Q 3713 2572 3713 1747 
Q 3713 922 3314 415 
Q 2916 -91 2278 -91 
Q 1894 -91 1617 61 
Q 1341 213 1159 525 
L 1159 0 
L 581 0 
L 581 4863 
L 1159 4863 
L 1159 2969 
z
" transform="scale(0.015625)"/>
       <path id="DejaVuSans-72" d="M 2631 2963 
Q 2534 3019 2420 3045 
Q 2306 3072 2169 3072 
Q 1681 3072 1420 2755 
Q 1159 2438 1159 1844 
L 1159 0 
L 581 0 
L 581 3500 
L 1159 3500 
L 1159 2956 
Q 1341 3275 1631 3429 
Q 1922 3584 2338 3584 
Q 2397 3584 2469 3576 
Q 2541 3569 2628 3553 
L 2631 2963 
z
" transform="scale(0.015625)"/>
       <path id="DejaVuSans-20" transform="scale(0.015625)"/>
       <path id="DejaVuSans-6f" d="M 1959 3097 
Q 1497 3097 1228 2736 
Q 959 2375 959 1747 
Q 959 1119 1226 758 
Q 1494 397 1959 397 
Q 2419 397 2687 759 
Q 2956 1122 2956 1747 
Q 2956 2369 2687 2733 
Q 2419 3097 1959 3097 
z
M 1959 3584 
Q 2709 3584 3137 3096 
Q 3566 2609 3566 1747 
Q 3566 888 3137 398 
Q 2709 -91 1959 -91 
Q 1206 -91 779 398 
Q 353 888 353 1747 
Q 353 2609 779 3096 
Q 1206 3584 1959 3584 
z
" transform="scale(0.015625)"/>
       <path id="DejaVuSans-66" d="M 2375 4863 
L 2375 4384 
L 1825 4384 
Q 1516 4384 1395 4259 
Q 1275 4134 1275 3809 
L 1275 3500 
L 2222 3500 
L 2222 3053 
L 1275 3053 
L 1275 0 
L 697 0 
L 697 3053 
L 147 3053 
L 147 3500 
L 697 3500 
L 697 3744 
Q 697 4328 969 4595 
Q 1241 4863 1831 4863 
L 2375 4863 
z
" transform="scale(0.015625)"/>
       <path id="DejaVuSans-70" d="M 1159 525 
L 1159 -1331 
L 581 -1331 
L 581 3500 
L 1159 3500 
L 1159 2969 
Q 1341 3281 1617 3432 
Q 1894 3584 2278 3584 
Q 2916 3584 3314 3078 
Q 3713 2572 3713 1747 
Q 3713 922 3314 415 
Q 2916 -91 2278 -91 
Q 1894 -91 1617 61 
Q 1341 213 1159 525 
z
M 3116 1747 
Q 3116 2381 2855 2742 
Q 2594 3103 2138 3103 
Q 1681 3103 1420 2742 
Q 1159 2381 1159 1747 
Q 1159 1113 1420 752 
Q 1681 391 2138 391 
Q 2594 391 2855 752 
Q 3116 1113 3116 1747 
z
" transform="scale(0.015625)"/>
       <path id="DejaVuSans-61" d="M 2194 1759 
Q 1497 1759 1228 1600 
Q 959 1441 959 1056 
Q 959 750 1161 570 
Q 1363 391 1709 391 
Q 2188 391 2477 730 
Q 2766 1069 2766 1631 
L 2766 1759 
L 2194 1759 
z
M 3341 1997 
L 3341 0 
L 2766 0 
L 2766 531 
Q 2569 213 2275 61 
Q 1981 -91 1556 -91 
Q 1019 -91 701 211 
Q 384 513 384 1019 
Q 384 1609 779 1909 
Q 1175 2209 1959 2209 
L 2766 2209 
L 2766 2266 
Q 2766 2663 2505 2880 
Q 2244 3097 1772 3097 
Q 1472 3097 1187 3025 
Q 903 2953 641 2809 
L 641 3341 
Q 956 3463 1253 3523 
Q 1550 3584 1831 3584 
Q 2591 3584 2966 3190 
Q 3341 2797 3341 1997 
z
" transform="scale(0.015625)"/>
       <path id="DejaVuSans-6b" d="M 581 4863 
L 1159 4863 
L 1159 1991 
L 2875 3500 
L 3609 3500 
L 1753 1863 
L 3688 0 
L 2938 0 
L 1159 1709 
L 1159 0 
L 581 0 
L 581 4863 
z
" transform="scale(0.015625)"/>
       <path id="DejaVuSans-73" d="M 2834 3397 
L 2834 2853 
Q 2591 2978 2328 3040 
Q 2066 3103 1784 3103 
Q 1356 3103 1142 2972 
Q 928 2841 928 2578 
Q 928 2378 1081 2264 
Q 1234 2150 1697 2047 
L 1894 2003 
Q 2506 1872 2764 1633 
Q 3022 1394 3022 966 
Q 3022 478 2636 193 
Q 2250 -91 1575 -91 
Q 1294 -91 989 -36 
Q 684 19 347 128 
L 347 722 
Q 666 556 975 473 
Q 1284 391 1588 391 
Q 1994 391 2212 530 
Q 2431 669 2431 922 
Q 2431 1156 2273 1281 
Q 2116 1406 1581 1522 
L 1381 1569 
Q 847 1681 609 1914 
Q 372 2147 372 2553 
Q 372 3047 722 3315 
Q 1072 3584 1716 3584 
Q 2034 3584 2315 3537 
Q 2597 3491 2834 3397 
z
" transform="scale(0.015625)"/>
      </defs>
      <use xlink:href="#DejaVuSans-6e"/>
      <use xlink:href="#DejaVuSans-75" x="63.378906"/>
      <use xlink:href="#DejaVuSans-6d" x="126.757812"/>
      <use xlink:href="#DejaVuSans-62" x="224.169922"/>
      <use xlink:href="#DejaVuSans-65" x="287.646484"/>
      <use xlink:href="#DejaVuSans-72" x="349.169922"/>
      <use xlink:href="#DejaVuSans-20" x="390.283203"/>
      <use xlink:href="#DejaVuSans-6f" x="422.070312"/>
      <use xlink:href="#DejaVuSans-66" x="483.251953"/>
      <use xlink:href="#DejaVuSans-20" x="518.457031"/>
      <use xlink:href="#DejaVuSans-70" x="550.244141"/>
      <use xlink:href="#DejaVuSans-65" x="613.720703"/>
      <use xlink:href="#DejaVuSans-61" x="675.244141"/>
      <use xlink:href="#DejaVuSans-6b" x="736.523438"/>
      <use xlink:href="#DejaVuSans-73" x="794.433594"/>
     </g>
    </g>
   </g>
   <g id="line2d_36">
    <defs>
     <path id="m31b2976cc6" d="M 0 2.5 
C 0.663008 2.5 1.29895 2.236584 1.767767 1.767767 
C 2.236584 1.29895 2.5 0.663008 2.5 0 
C 2.5 -0.663008 2.236584 -1.29895 1.767767 -1.767767 
C 1.29895 -2.236584 0.663008 -2.5 0 -2.5 
C -0.663008 -2.5 -1.29895 -2.236584 -1.767767 -1.767767 
C -2.236584 -1.29895 -2.5 -0.663008 -2.5 0 
C -2.5 0.663008 -2.236584 1.29895 -1.767767 1.767767 
C -1.29895 2.236584 -0.663008 2.5 0 2.5 
z
"/>
    </defs>
    <g clip-path="url(#pa4df49f416)">
     <use xlink:href="#m31b2976cc6" x="97.989768" y="53.293121" style="fill: #1b9e77; fill-opacity: 0.35"/>
     <use xlink:href="#m31b2976cc6" x="97.989768" y="54.378699" style="fill: #1b9e77; fill-opacity: 0.35"/>
     <use xlink:href="#m31b2976cc6" x="97.989768" y="50.101636" style="fill: #1b9e77; fill-opacity: 0.35"/>
     <use xlink:href="#m31b2976cc6" x="97.989768" y="51.154808" style="fill: #1b9e77; fill-opacity: 0.35"/>
     <use xlink:href="#m31b2976cc6" x="97.989768" y="50.101636" style="fill: #1b9e77; fill-opacity: 0.35"/>
     <use xlink:href="#m31b2976cc6" x="97.989768" y="50.101636" style="fill: #1b9e77; fill-opacity: 0.35"/>
     <use xlink:href="#m31b2976cc6" x="97.989768" y="51.154808" style="fill: #1b9e77; fill-opacity: 0.35"/>
     <use xlink:href="#m31b2976cc6" x="97.989768" y="51.154808" style="fill: #1b9e77; fill-opacity: 0.35"/>
     <use xlink:href="#m31b2976cc6" x="97.989768" y="50.101636" style="fill: #1b9e77; fill-opacity: 0.35"/>
     <use xlink:href="#m31b2976cc6" x="97.989768" y="51.154808" style="fill: #1b9e77; fill-opacity: 0.35"/>
     <use xlink:href="#m31b2976cc6" x="180.632611" y="57.703881" style="fill: #1b9e77; fill-opacity: 0.35"/>
     <use xlink:href="#m31b2976cc6" x="180.632611" y="55.475527" style="fill: #1b9e77; fill-opacity: 0.35"/>
     <use xlink:href="#m31b2976cc6" x="180.632611" y="54.378699" style="fill: #1b9e77; fill-opacity: 0.35"/>
     <use xlink:href="#m31b2976cc6" x="180.632611" y="54.378699" style="fill: #1b9e77; fill-opacity: 0.35"/>
     <use xlink:href="#m31b2976cc6" x="180.632611" y="53.293121" style="fill: #1b9e77; fill-opacity: 0.35"/>
     <use xlink:href="#m31b2976cc6" x="180.632611" y="58.835901" style="fill: #1b9e77; fill-opacity: 0.35"/>
     <use xlink:href="#m31b2976cc6" x="180.632611" y="56.583839" style="fill: #1b9e77; fill-opacity: 0.35"/>
     <use xlink:href="#m31b2976cc6" x="180.632611" y="54.378699" style="fill: #1b9e77; fill-opacity: 0.35"/>
     <use xlink:href="#m31b2976cc6" x="180.632611" y="55.475527" style="fill: #1b9e77; fill-opacity: 0.35"/>
     <use xlink:href="#m31b2976cc6" x="180.632611" y="53.293121" style="fill: #1b9e77; fill-opacity: 0.35"/>
     <use xlink:href="#m31b2976cc6" x="289.880507" y="65.89471" style="fill: #1b9e77; fill-opacity: 0.35"/>
     <use xlink:href="#m31b2976cc6" x="289.880507" y="69.608877" style="fill: #1b9e77; fill-opacity: 0.35"/>
     <use xlink:href="#m31b2976cc6" x="289.880507" y="65.89471" style="fill: #1b9e77; fill-opacity: 0.35"/>
     <use xlink:href="#m31b2976cc6" x="289.880507" y="68.356283" style="fill: #1b9e77; fill-opacity: 0.35"/>
     <use xlink:href="#m31b2976cc6" x="289.880507" y="68.356283" style="fill: #1b9e77; fill-opacity: 0.35"/>
     <use xlink:href="#m31b2976cc6" x="289.880507" y="67.118341" style="fill: #1b9e77; fill-opacity: 0.35"/>
     <use xlink:href="#m31b2976cc6" x="289.880507" y="65.89471" style="fill: #1b9e77; fill-opacity: 0.35"/>
     <use xlink:href="#m31b2976cc6" x="289.880507" y="68.356283" style="fill: #1b9e77; fill-opacity: 0.35"/>
     <use xlink:href="#m31b2976cc6" x="289.880507" y="68.356283" style="fill: #1b9e77; fill-opacity: 0.35"/>
     <use xlink:href="#m31b2976cc6" x="289.880507" y="65.89471" style="fill: #1b9e77; fill-opacity: 0.35"/>
     <use xlink:href="#m31b2976cc6" x="372.52335" y="101.751505" style="fill: #1b9e77; fill-opacity: 0.35"/>
     <use xlink:href="#m31b2976cc6" x="372.52335" y="103.472566" style="fill: #1b9e77; fill-opacity: 0.35"/>
     <use xlink:href="#m31b2976cc6" x="372.52335" y="101.751505" style="fill: #1b9e77; fill-opacity: 0.35"/>
     <use xlink:href="#m31b2976cc6" x="372.52335" y="98.39113" style="fill: #1b9e77; fill-opacity: 0.35"/>
     <use xlink:href="#m31b2976cc6" x="372.52335" y="95.134169" style="fill: #1b9e77; fill-opacity: 0.35"/>
     <use xlink:href="#m31b2976cc6" x="372.52335" y="105.222075" style="fill: #1b9e77; fill-opacity: 0.35"/>
     <use xlink:href="#m31b2976cc6" x="372.52335" y="96.750122" style="fill: #1b9e77; fill-opacity: 0.35"/>
     <use xlink:href="#m31b2976cc6" x="372.52335" y="103.472566" style="fill: #1b9e77; fill-opacity: 0.35"/>
     <use xlink:href="#m31b2976cc6" x="372.52335" y="100.057982" style="fill: #1b9e77; fill-opacity: 0.35"/>
     <use xlink:href="#m31b2976cc6" x="372.52335" y="100.057982" style="fill: #1b9e77; fill-opacity: 0.35"/>
     <use xlink:href="#m31b2976cc6" x="455.166194" y="306.01876" style="fill: #1b9e77; fill-opacity: 0.35"/>
     <use xlink:href="#m31b2976cc6" x="455.166194" y="294.867097" style="fill: #1b9e77; fill-opacity: 0.35"/>
     <use xlink:href="#m31b2976cc6" x="455.166194" y="306.01876" style="fill: #1b9e77; fill-opacity: 0.35"/>
     <use xlink:href="#m31b2976cc6" x="455.166194" y="294.867097" style="fill: #1b9e77; fill-opacity: 0.35"/>
     <use xlink:href="#m31b2976cc6" x="455.166194" y="318.485258" style="fill: #1b9e77; fill-opacity: 0.35"/>
     <use xlink:href="#m31b2976cc6" x="455.166194" y="294.867097" style="fill: #1b9e77; fill-opacity: 0.35"/>
     <use xlink:href="#m31b2976cc6" x="455.166194" y="306.01876" style="fill: #1b9e77; fill-opacity: 0.35"/>
     <use xlink:href="#m31b2976cc6" x="455.166194" y="306.01876" style="fill: #1b9e77; fill-opacity: 0.35"/>
     <use xlink:href="#m31b2976cc6" x="455.166194" y="306.01876" style="fill: #1b9e77; fill-opacity: 0.35"/>
     <use xlink:href="#m31b2976cc6" x="455.166194" y="294.867097" style="fill: #1b9e77; fill-opacity: 0.35"/>
     <use xlink:href="#m31b2976cc6" x="537.809037" y="332.618608" style="fill: #1b9e77; fill-opacity: 0.35"/>
     <use xlink:href="#m31b2976cc6" x="537.809037" y="332.618608" style="fill: #1b9e77; fill-opacity: 0.35"/>
     <use xlink:href="#m31b2976cc6" x="537.809037" y="348.934364" style="fill: #1b9e77; fill-opacity: 0.35"/>
     <use xlink:href="#m31b2976cc6" x="537.809037" y="348.934364" style="fill: #1b9e77; fill-opacity: 0.35"/>
     <use xlink:href="#m31b2976cc6" x="537.809037" y="348.934364" style="fill: #1b9e77; fill-opacity: 0.35"/>
     <use xlink:href="#m31b2976cc6" x="537.809037" y="348.934364" style="fill: #1b9e77; fill-opacity: 0.35"/>
     <use xlink:href="#m31b2976cc6" x="537.809037" y="348.934364" style="fill: #1b9e77; fill-opacity: 0.35"/>
     <use xlink:href="#m31b2976cc6" x="537.809037" y="332.618608" style="fill: #1b9e77; fill-opacity: 0.35"/>
     <use xlink:href="#m31b2976cc6" x="537.809037" y="332.618608" style="fill: #1b9e77; fill-opacity: 0.35"/>
     <use xlink:href="#m31b2976cc6" x="537.809037" y="332.618608" style="fill: #1b9e77; fill-opacity: 0.35"/>
    </g>
   </g>
   <g id="line2d_37">
    <path d="M 97.989768 51.260704 
L 180.632611 55.365331 
L 289.880507 67.364774 
L 372.52335 100.5632 
L 455.166194 302.54819 
L 537.809037 340.462411 
" clip-path="url(#pa4df49f416)" style="fill: none; stroke: #1b9e77; stroke-width: 2; stroke-linecap: round"/>
    <defs>
     <path id="m408891026c" d="M 0 4 
C 1.060812 4 2.078319 3.578535 2.828427 2.828427 
C 3.578535 2.078319 4 1.060812 4 0 
C 4 -1.060812 3.578535 -2.078319 2.828427 -2.828427 
C 2.078319 -3.578535 1.060812 -4 0 -4 
C -1.060812 -4 -2.078319 -3.578535 -2.828427 -2.828427 
C -3.578535 -2.078319 -4 -1.060812 -4 0 
C -4 1.060812 -3.578535 2.078319 -2.828427 2.828427 
C -2.078319 3.578535 -1.060812 4 0 4 
z
" style="stroke: #1b9e77"/>
    </defs>
    <g clip-path="url(#pa4df49f416)">
     <use xlink:href="#m408891026c" x="97.989768" y="51.260704" style="fill: #1b9e77; stroke: #1b9e77"/>
     <use xlink:href="#m408891026c" x="180.632611" y="55.365331" style="fill: #1b9e77; stroke: #1b9e77"/>
     <use xlink:href="#m408891026c" x="289.880507" y="67.364774" style="fill: #1b9e77; stroke: #1b9e77"/>
     <use xlink:href="#m408891026c" x="372.52335" y="100.5632" style="fill: #1b9e77; stroke: #1b9e77"/>
     <use xlink:href="#m408891026c" x="455.166194" y="302.54819" style="fill: #1b9e77; stroke: #1b9e77"/>
     <use xlink:href="#m408891026c" x="537.809037" y="340.462411" style="fill: #1b9e77; stroke: #1b9e77"/>
    </g>
   </g>
   <g id="patch_3">
    <path d="M 75.998805 363.876 
L 75.998805 35.16 
" style="fill: none; stroke: #999999; stroke-width: 1.875; stroke-linejoin: miter; stroke-linecap: square"/>
   </g>
   <g id="patch_4">
    <path d="M 559.8 363.876 
L 559.8 35.16 
" style="fill: none; stroke: #999999; stroke-width: 1.875; stroke-linejoin: miter; stroke-linecap: square"/>
   </g>
   <g id="patch_5">
    <path d="M 75.998805 363.876 
L 559.8 363.876 
" style="fill: none; stroke: #999999; stroke-width: 1.875; stroke-linejoin: miter; stroke-linecap: square"/>
   </g>
   <g id="patch_6">
    <path d="M 75.998805 35.16 
L 559.8 35.16 
" style="fill: none; stroke: #999999; stroke-width: 1.875; stroke-linejoin: miter; stroke-linecap: square"/>
   </g>
   <g id="text_7">
    <!-- peaks at $t$=1e+08 -->
    <g style="fill: #262626" transform="translate(248.899402 29.16)scale(0.15 -0.15)">
     <defs>
      <path id="DejaVuSans-Oblique-74" d="M 2706 3500 
L 2619 3053 
L 1472 3053 
L 1100 1153 
Q 1081 1047 1072 975 
Q 1063 903 1063 863 
Q 1063 663 1183 572 
Q 1303 481 1569 481 
L 2150 481 
L 2053 0 
L 1503 0 
Q 991 0 739 200 
Q 488 400 488 806 
Q 488 878 497 964 
Q 506 1050 525 1153 
L 897 3053 
L 409 3053 
L 500 3500 
L 978 3500 
L 1172 4494 
L 1747 4494 
L 1556 3500 
L 2706 3500 
z
" transform="scale(0.015625)"/>
      <path id="DejaVuSans-2b" d="M 2944 4013 
L 2944 2272 
L 4684 2272 
L 4684 1741 
L 2944 1741 
L 2944 0 
L 2419 0 
L 2419 1741 
L 678 1741 
L 678 2272 
L 2419 2272 
L 2419 4013 
L 2944 4013 
z
" transform="scale(0.015625)"/>
      <path id="DejaVuSans-38" d="M 2034 2216 
Q 1584 2216 1326 1975 
Q 1069 1734 1069 1313 
Q 1069 891 1326 650 
Q 1584 409 2034 409 
Q 2484 409 2743 651 
Q 3003 894 3003 1313 
Q 3003 1734 2745 1975 
Q 2488 2216 2034 2216 
z
M 1403 2484 
Q 997 2584 770 2862 
Q 544 3141 544 3541 
Q 544 4100 942 4425 
Q 1341 4750 2034 4750 
Q 2731 4750 3128 4425 
Q 3525 4100 3525 3541 
Q 3525 3141 3298 2862 
Q 3072 2584 2669 2484 
Q 3125 2378 3379 2068 
Q 3634 1759 3634 1313 
Q 3634 634 3220 271 
Q 2806 -91 2034 -91 
Q 1263 -91 848 271 
Q 434 634 434 1313 
Q 434 1759 690 2068 
Q 947 2378 1403 2484 
z
M 1172 3481 
Q 1172 3119 1398 2916 
Q 1625 2713 2034 2713 
Q 2441 2713 2670 2916 
Q 2900 3119 2900 3481 
Q 2900 3844 2670 4047 
Q 2441 4250 2034 4250 
Q 1625 4250 1398 4047 
Q 1172 3844 1172 3481 
z
" transform="scale(0.015625)"/>
     </defs>
     <use xlink:href="#DejaVuSans-70" transform="translate(0 0.015625)"/>
     <use xlink:href="#DejaVuSans-65" transform="translate(63.476562 0.015625)"/>
     <use xlink:href="#DejaVuSans-61" transform="translate(125 0.015625)"/>
     <use xlink:href="#DejaVuSans-6b" transform="translate(186.279297 0.015625)"/>
     <use xlink:href="#DejaVuSans-73" transform="translate(244.189453 0.015625)"/>
     <use xlink:href="#DejaVuSans-20" transform="translate(296.289062 0.015625)"/>
     <use xlink:href="#DejaVuSans-61" transform="translate(328.076172 0.015625)"/>
     <use xlink:href="#DejaVuSans-74" transform="translate(389.355469 0.015625)"/>
     <use xlink:href="#DejaVuSans-20" transform="translate(428.564453 0.015625)"/>
     <use xlink:href="#DejaVuSans-Oblique-74" transform="translate(460.351562 0.015625)"/>
     <use xlink:href="#DejaVuSans-3d" transform="translate(499.560547 0.015625)"/>
     <use xlink:href="#DejaVuSans-31" transform="translate(583.349609 0.015625)"/>
     <use xlink:href="#DejaVuSans-65" transform="translate(646.972656 0.015625)"/>
     <use xlink:href="#DejaVuSans-2b" transform="translate(708.496094 0.015625)"/>
     <use xlink:href="#DejaVuSans-30" transform="translate(792.285156 0.015625)"/>
     <use xlink:href="#DejaVuSans-38" transform="translate(855.908203 0.015625)"/>
    </g>
   </g>
   <g id="legend_1">
    <g id="line2d_38">
     <path d="M 86.798805 326.940375 
L 98.798805 326.940375 
L 110.798805 326.940375 
" style="fill: none; stroke: #1b9e77; stroke-width: 2; stroke-linecap: round"/>
     <g>
      <use xlink:href="#m408891026c" x="98.798805" y="326.940375" style="fill: #1b9e77; stroke: #1b9e77"/>
     </g>
    </g>
    <g id="text_8">
     <!-- replicate mean -->
     <g style="fill: #262626" transform="translate(120.398805 331.140375)scale(0.12 -0.12)">
      <defs>
       <path id="DejaVuSans-6c" d="M 603 4863 
L 1178 4863 
L 1178 0 
L 603 0 
L 603 4863 
z
" transform="scale(0.015625)"/>
       <path id="DejaVuSans-69" d="M 603 3500 
L 1178 3500 
L 1178 0 
L 603 0 
L 603 3500 
z
M 603 4863 
L 1178 4863 
L 1178 4134 
L 603 4134 
L 603 4863 
z
" transform="scale(0.015625)"/>
       <path id="DejaVuSans-63" d="M 3122 3366 
L 3122 2828 
Q 2878 2963 2633 3030 
Q 2388 3097 2138 3097 
Q 1578 3097 1268 2742 
Q 959 2388 959 1747 
Q 959 1106 1268 751 
Q 1578 397 2138 397 
Q 2388 397 2633 464 
Q 2878 531 3122 666 
L 3122 134 
Q 2881 22 2623 -34 
Q 2366 -91 2075 -91 
Q 1284 -91 818 406 
Q 353 903 353 1747 
Q 353 2603 823 3093 
Q 1294 3584 2113 3584 
Q 2378 3584 2631 3529 
Q 2884 3475 3122 3366 
z
" transform="scale(0.015625)"/>
      </defs>
      <use xlink:href="#DejaVuSans-72"/>
      <use xlink:href="#DejaVuSans-65" x="38.863281"/>
      <use xlink:href="#DejaVuSans-70" x="100.386719"/>
      <use xlink:href="#DejaVuSans-6c" x="163.863281"/>
      <use xlink:href="#DejaVuSans-69" x="191.646484"/>
      <use xlink:href="#DejaVuSans-63" x="219.429688"/>
      <use xlink:href="#DejaVuSans-61" x="274.410156"/>
      <use xlink:href="#DejaVuSans-74" x="335.689453"/>
      <use xlink:href="#DejaVuSans-65" x="374.898438"/>
      <use xlink:href="#DejaVuSans-20" x="436.421875"/>
      <use xlink:href="#DejaVuSans-6d" x="468.208984"/>
      <use xlink:href="#DejaVuSans-65" x="565.621094"/>
      <use xlink:href="#DejaVuSans-61" x="627.144531"/>
      <use xlink:href="#DejaVuSans-6e" x="688.423828"/>
     </g>
    </g>
    <g id="line2d_39">
     <path d="M 86.798805 346.356 
L 98.798805 346.356 
L 110.798805 346.356 
" style="fill: none; stroke-dasharray: 3.7,1.6; stroke-dashoffset: 0; stroke: #808080"/>
    </g>
    <g id="text_9">
     <!-- linear instability ($L/\lambda^*$) -->
     <g style="fill: #262626" transform="translate(120.398805 350.556)scale(0.12 -0.12)">
      <defs>
       <path id="DejaVuSans-79" d="M 2059 -325 
Q 1816 -950 1584 -1140 
Q 1353 -1331 966 -1331 
L 506 -1331 
L 506 -850 
L 844 -850 
Q 1081 -850 1212 -737 
Q 1344 -625 1503 -206 
L 1606 56 
L 191 3500 
L 800 3500 
L 1894 763 
L 2988 3500 
L 3597 3500 
L 2059 -325 
z
" transform="scale(0.015625)"/>
       <path id="DejaVuSans-28" d="M 1984 4856 
Q 1566 4138 1362 3434 
Q 1159 2731 1159 2009 
Q 1159 1288 1364 580 
Q 1569 -128 1984 -844 
L 1484 -844 
Q 1016 -109 783 600 
Q 550 1309 550 2009 
Q 550 2706 781 3412 
Q 1013 4119 1484 4856 
L 1984 4856 
z
" transform="scale(0.015625)"/>
       <path id="DejaVuSans-Oblique-4c" d="M 1075 4666 
L 1709 4666 
L 909 525 
L 3181 525 
L 3078 0 
L 172 0 
L 1075 4666 
z
" transform="scale(0.015625)"/>
       <path id="DejaVuSans-Oblique-3bb" d="M 2350 4316 
L 3125 0 
L 2516 0 
L 2038 2588 
L 328 0 
L -281 0 
L 1903 3356 
L 1794 3975 
Q 1725 4369 1391 4369 
L 1091 4369 
L 1184 4863 
L 1550 4856 
Q 2253 4847 2350 4316 
z
" transform="scale(0.015625)"/>
       <path id="DejaVuSans-2a" d="M 3009 3897 
L 1888 3291 
L 3009 2681 
L 2828 2375 
L 1778 3009 
L 1778 1831 
L 1422 1831 
L 1422 3009 
L 372 2375 
L 191 2681 
L 1313 3291 
L 191 3897 
L 372 4206 
L 1422 3572 
L 1422 4750 
L 1778 4750 
L 1778 3572 
L 2828 4206 
L 3009 3897 
z
" transform="scale(0.015625)"/>
       <path id="DejaVuSans-29" d="M 513 4856 
L 1013 4856 
Q 1481 4119 1714 3412 
Q 1947 2706 1947 2009 
Q 1947 1309 1714 600 
Q 1481 -109 1013 -844 
L 513 -844 
Q 928 -128 1133 580 
Q 1338 1288 1338 2009 
Q 1338 2731 1133 3434 
Q 928 4138 513 4856 
z
" transform="scale(0.015625)"/>
      </defs>
      <use xlink:href="#DejaVuSans-6c" transform="translate(0 0.765625)"/>
      <use xlink:href="#DejaVuSans-69" transform="translate(27.783203 0.765625)"/>
      <use xlink:href="#DejaVuSans-6e" transform="translate(55.566406 0.765625)"/>
      <use xlink:href="#DejaVuSans-65" transform="translate(118.945312 0.765625)"/>
      <use xlink:href="#DejaVuSans-61" transform="translate(180.46875 0.765625)"/>
      <use xlink:href="#DejaVuSans-72" transform="translate(241.748047 0.765625)"/>
      <use xlink:href="#DejaVuSans-20" transform="translate(282.861328 0.765625)"/>
      <use xlink:href="#DejaVuSans-69" transform="translate(314.648438 0.765625)"/>
      <use xlink:href="#DejaVuSans-6e" transform="translate(342.431641 0.765625)"/>
      <use xlink:href="#DejaVuSans-73" transform="translate(405.810547 0.765625)"/>
      <use xlink:href="#DejaVuSans-74" transform="translate(457.910156 0.765625)"/>
      <use xlink:href="#DejaVuSans-61" transform="translate(497.119141 0.765625)"/>
      <use xlink:href="#DejaVuSans-62" transform="translate(558.398438 0.765625)"/>
      <use xlink:href="#DejaVuSans-69" transform="translate(621.875 0.765625)"/>
      <use xlink:href="#DejaVuSans-6c" transform="translate(649.658203 0.765625)"/>
      <use xlink:href="#DejaVuSans-69" transform="translate(677.441406 0.765625)"/>
      <use xlink:href="#DejaVuSans-74" transform="translate(705.224609 0.765625)"/>
      <use xlink:href="#DejaVuSans-79" transform="translate(744.433594 0.765625)"/>
      <use xlink:href="#DejaVuSans-20" transform="translate(803.613281 0.765625)"/>
      <use xlink:href="#DejaVuSans-28" transform="translate(835.400391 0.765625)"/>
      <use xlink:href="#DejaVuSans-Oblique-4c" transform="translate(874.414062 0.765625)"/>
      <use xlink:href="#DejaVuSans-2f" transform="translate(930.126953 0.765625)"/>
      <use xlink:href="#DejaVuSans-Oblique-3bb" transform="translate(963.818359 0.765625)"/>
      <use xlink:href="#DejaVuSans-2a" transform="translate(1044.083451 39.046875)scale(0.7)"/>
      <use xlink:href="#DejaVuSans-29" transform="translate(1095.455521 0.765625)"/>
     </g>
    </g>
   </g>
  </g>
 </g>
 <defs>
  <clipPath id="pa4df49f416">
   <rect x="75.998805" y="35.16" width="483.801195" height="328.716"/>
  </clipPath>
 </defs>
</svg>
