<?xml version="1.0" encoding="UTF-8" standalone="no"?>
<!DOCTYPE svg PUBLIC "-//W3C//DTD SVG 1.1//EN"
 "http://www.w3.org/Graphics/SVG/1.1/DTD/svg11.dtd">
<!-- Generated by graphviz version 2.50.0 (20211204.2007)
 -->
<!-- Pages: 1 -->
<svg width="1473pt" height="816pt"
 viewBox="0.00 0.00 1473.40 816.00" xmlns="http://www.w3.org/2000/svg" xmlns:xlink="http://www.w3.org/1999/xlink">
<g id="graph0" class="graph" transform="scale(1 1) rotate(0) translate(4 812)">
<polygon fill="white" stroke="transparent" points="-4,4 -4,-812 1469.4,-812 1469.4,4 -4,4"/>
<!-- chemostat -->
<g id="node1" class="node">
<title>chemostat</title>
<polygon fill="none" stroke="black" points="72,-36 0,-36 0,0 72,0 72,-36"/>
<text text-anchor="middle" x="36" y="-14.3" font-family="Times,serif" font-size="14.00">chemostat</text>
</g>
<!-- R8 -->
<g id="node14" class="node">
<title>R8</title>
<polygon fill="none" stroke="#365c8d" points="187,-116 133,-116 133,-78 187,-78 187,-116"/>
<text text-anchor="middle" x="160" y="-100.8" font-family="Times,serif" font-size="14.00">R_8</text>
<text text-anchor="middle" x="160" y="-85.8" font-family="Times,serif" font-size="14.00">0.14</text>
</g>
<!-- chemostat&#45;&gt;R8 -->
<g id="edge52" class="edge">
<title>chemostat&#45;&gt;R8</title>
<path fill="none" stroke="#fde725" d="M64.99,-36.12C82.6,-47.53 105.47,-62.34 124.24,-74.49"/>
<polygon fill="#fde725" stroke="#fde725" points="122.51,-77.54 132.81,-80.04 126.32,-71.67 122.51,-77.54"/>
<text text-anchor="middle" x="102.5" y="-70.8" font-family="Times,serif" font-size="14.00">9.91</text>
</g>
<!-- R7 -->
<g id="node16" class="node">
<title>R7</title>
<polygon fill="none" stroke="#2c738e" points="498.98,-113 444.98,-113 444.98,-75 498.98,-75 498.98,-113"/>
<text text-anchor="middle" x="471.98" y="-97.8" font-family="Times,serif" font-size="14.00">R_7</text>
<text text-anchor="middle" x="471.98" y="-82.8" font-family="Times,serif" font-size="14.00">0.276</text>
</g>
<!-- chemostat&#45;&gt;R7 -->
<g id="edge53" class="edge">
<title>chemostat&#45;&gt;R7</title>
<path fill="none" stroke="#e3e418" d="M72.26,-23.39C110.99,-29.37 175,-39.45 230,-49 302.71,-61.63 387.47,-77.79 434.61,-86.91"/>
<polygon fill="#e3e418" stroke="#e3e418" points="434.15,-90.39 444.63,-88.85 435.48,-83.51 434.15,-90.39"/>
<text text-anchor="middle" x="217.5" y="-52.8" font-family="Times,serif" font-size="14.00">8.23</text>
</g>
<!-- N2 -->
<g id="node2" class="node">
<title>N2</title>
<ellipse fill="none" stroke="#5ac864" cx="545.97" cy="-461" rx="28.98" ry="26.74"/>
<text text-anchor="middle" x="545.97" y="-464.8" font-family="Times,serif" font-size="14.00">N_2</text>
<text text-anchor="middle" x="545.97" y="-449.8" font-family="Times,serif" font-size="14.00">4.49</text>
</g>
<!-- R3 -->
<g id="node7" class="node">
<title>R3</title>
<polygon fill="none" stroke="#2c728e" points="426.98,-403 372.98,-403 372.98,-365 426.98,-365 426.98,-403"/>
<text text-anchor="middle" x="399.98" y="-387.8" font-family="Times,serif" font-size="14.00">R_3</text>
<text text-anchor="middle" x="399.98" y="-372.8" font-family="Times,serif" font-size="14.00">0.269</text>
</g>
<!-- N2&#45;&gt;R3 -->
<g id="edge2" class="edge">
<title>N2&#45;&gt;R3</title>
<path fill="none" stroke="#482a79" d="M530.51,-437.99C522.49,-427.04 511.6,-414.7 498.98,-407 480.39,-395.66 456.68,-389.91 437.24,-386.99"/>
<polygon fill="#482a79" stroke="#482a79" points="437.6,-383.51 427.23,-385.68 436.69,-390.45 437.6,-383.51"/>
<text text-anchor="middle" x="471.98" y="-410.8" font-family="Times,serif" font-size="14.00">0.175</text>
</g>
<!-- R13 -->
<g id="node9" class="node">
<title>R13</title>
<polygon fill="none" stroke="#32658e" points="718.97,-460 664.97,-460 664.97,-422 718.97,-422 718.97,-460"/>
<text text-anchor="middle" x="691.97" y="-444.8" font-family="Times,serif" font-size="14.00">R_13</text>
<text text-anchor="middle" x="691.97" y="-429.8" font-family="Times,serif" font-size="14.00">0.181</text>
</g>
<!-- N2&#45;&gt;R13 -->
<g id="edge5" class="edge">
<title>N2&#45;&gt;R13</title>
<path fill="none" stroke="#472e7c" d="M567.43,-442.18C574.91,-436.48 583.8,-430.95 592.97,-428 612.91,-421.59 636.11,-424.24 654.94,-428.78"/>
<polygon fill="#472e7c" stroke="#472e7c" points="654.05,-432.17 664.62,-431.37 655.86,-425.4 654.05,-432.17"/>
<text text-anchor="middle" x="619.97" y="-431.8" font-family="Times,serif" font-size="14.00">0.186</text>
</g>
<!-- R4 -->
<g id="node12" class="node">
<title>R4</title>
<polygon fill="none" stroke="#2c738e" points="1465.4,-455 1411.4,-455 1411.4,-417 1465.4,-417 1465.4,-455"/>
<text text-anchor="middle" x="1438.4" y="-439.8" font-family="Times,serif" font-size="14.00">R_4</text>
<text text-anchor="middle" x="1438.4" y="-424.8" font-family="Times,serif" font-size="14.00">0.28</text>
</g>
<!-- N2&#45;&gt;R4 -->
<g id="edge7" class="edge">
<title>N2&#45;&gt;R4</title>
<path fill="none" stroke="#20a387" d="M569.22,-477.89C576.42,-482.41 584.68,-486.68 592.97,-489 769.69,-538.56 822.39,-489 1005.93,-489 1005.93,-489 1005.93,-489 1316.41,-489 1347.18,-489 1378.94,-474.44 1402.19,-460.58"/>
<polygon fill="#20a387" stroke="#20a387" points="1404.32,-463.38 1410.98,-455.13 1400.63,-457.43 1404.32,-463.38"/>
<text text-anchor="middle" x="1006.93" y="-492.8" font-family="Times,serif" font-size="14.00">1.44</text>
</g>
<!-- R5 -->
<g id="node13" class="node">
<title>R5</title>
<polygon fill="none" stroke="#440154" points="1465.4,-695 1411.4,-695 1411.4,-657 1465.4,-657 1465.4,-695"/>
<text text-anchor="middle" x="1438.4" y="-679.8" font-family="Times,serif" font-size="14.00">R_5</text>
<text text-anchor="middle" x="1438.4" y="-664.8" font-family="Times,serif" font-size="14.00">0.0157</text>
</g>
<!-- N2&#45;&gt;R5 -->
<g id="edge8" class="edge">
<title>N2&#45;&gt;R5</title>
<path fill="none" stroke="#424186" d="M550.31,-487.58C555.16,-516.37 566.67,-562.16 592.97,-592 625.16,-628.53 642.27,-641 690.97,-641 690.97,-641 690.97,-641 886.93,-641 1000.51,-641 1017.34,-717 1130.92,-717 1130.92,-717 1130.92,-717 1316.41,-717 1346.43,-717 1378.52,-705.54 1402.11,-694.74"/>
<polygon fill="#424186" stroke="#424186" points="1403.82,-697.8 1411.35,-690.34 1400.82,-691.48 1403.82,-697.8"/>
<text text-anchor="middle" x="1006.93" y="-689.8" font-family="Times,serif" font-size="14.00">0.248</text>
</g>
<!-- R9 -->
<g id="node19" class="node">
<title>R9</title>
<polygon fill="none" stroke="#433e85" points="718.97,-404 664.97,-404 664.97,-366 718.97,-366 718.97,-404"/>
<text text-anchor="middle" x="691.97" y="-388.8" font-family="Times,serif" font-size="14.00">R_9</text>
<text text-anchor="middle" x="691.97" y="-373.8" font-family="Times,serif" font-size="14.00">0.0617</text>
</g>
<!-- N2&#45;&gt;R9 -->
<g id="edge9" class="edge">
<title>N2&#45;&gt;R9</title>
<path fill="none" stroke="#287c8e" d="M560.78,-437.54C568.76,-426.01 579.82,-412.92 592.97,-405 611.5,-393.83 635.21,-388.8 654.66,-386.57"/>
<polygon fill="#287c8e" stroke="#287c8e" points="655.06,-390.05 664.69,-385.63 654.4,-383.08 655.06,-390.05"/>
<text text-anchor="middle" x="619.97" y="-408.8" font-family="Times,serif" font-size="14.00">0.69</text>
</g>
<!-- N3 -->
<g id="node3" class="node">
<title>N3</title>
<ellipse fill="none" stroke="#5ac864" cx="1315.41" cy="-346" rx="28.98" ry="26.74"/>
<text text-anchor="middle" x="1315.41" y="-349.8" font-family="Times,serif" font-size="14.00">N_3</text>
<text text-anchor="middle" x="1315.41" y="-334.8" font-family="Times,serif" font-size="14.00">4.46</text>
</g>
<!-- R2 -->
<g id="node11" class="node">
<title>R2</title>
<polygon fill="none" stroke="#46095d" points="1465.4,-278 1411.4,-278 1411.4,-240 1465.4,-240 1465.4,-278"/>
<text text-anchor="middle" x="1438.4" y="-262.8" font-family="Times,serif" font-size="14.00">R_2</text>
<text text-anchor="middle" x="1438.4" y="-247.8" font-family="Times,serif" font-size="14.00">0.0186</text>
</g>
<!-- N3&#45;&gt;R2 -->
<g id="edge12" class="edge">
<title>N3&#45;&gt;R2</title>
<path fill="none" stroke="#26818e" d="M1342.42,-336.11C1358.04,-329.47 1377.84,-319.8 1393.4,-308 1401.56,-301.81 1409.4,-293.95 1416.14,-286.35"/>
<polygon fill="#26818e" stroke="#26818e" points="1419.18,-288.18 1422.99,-278.29 1413.85,-283.65 1419.18,-288.18"/>
<text text-anchor="middle" x="1377.9" y="-330.8" font-family="Times,serif" font-size="14.00">0.754</text>
</g>
<!-- N3&#45;&gt;R4 -->
<g id="edge14" class="edge">
<title>N3&#45;&gt;R4</title>
<path fill="none" stroke="#2e6e8e" d="M1344.58,-347.78C1360.2,-349.96 1379.26,-354.71 1393.4,-365 1408.02,-375.64 1418.84,-392.76 1426.09,-407.52"/>
<polygon fill="#2e6e8e" stroke="#2e6e8e" points="1422.99,-409.16 1430.34,-416.79 1429.35,-406.24 1422.99,-409.16"/>
<text text-anchor="middle" x="1377.9" y="-368.8" font-family="Times,serif" font-size="14.00">0.528</text>
</g>
<!-- N3&#45;&gt;R5 -->
<g id="edge15" class="edge">
<title>N3&#45;&gt;R5</title>
<path fill="none" stroke="#38588c" d="M1325.7,-371.35C1347.87,-431.8 1403.72,-584.14 1426.98,-647.58"/>
<polygon fill="#38588c" stroke="#38588c" points="1423.69,-648.79 1430.42,-656.97 1430.27,-646.38 1423.69,-648.79"/>
<text text-anchor="middle" x="1377.9" y="-553.8" font-family="Times,serif" font-size="14.00">0.36</text>
</g>
<!-- N3&#45;&gt;R8 -->
<g id="edge16" class="edge">
<title>N3&#45;&gt;R8</title>
<path fill="none" stroke="#287c8e" d="M1297.48,-324.8C1281.38,-304.31 1256.82,-272.19 1237.42,-243 1193.73,-177.31 1209,-139.31 1147.42,-90 1084.01,-39.22 1053.17,-49.51 973.43,-34 711.32,16.99 638.43,-25.95 372.98,-55 317.37,-61.09 302.88,-59.12 248,-70 228.54,-73.86 223.95,-76.13 205,-82 202.41,-82.8 199.75,-83.65 197.08,-84.52"/>
<polygon fill="#287c8e" stroke="#287c8e" points="195.83,-81.24 187.45,-87.71 198.04,-87.89 195.83,-81.24"/>
<text text-anchor="middle" x="752.47" y="-14.8" font-family="Times,serif" font-size="14.00">0.689</text>
</g>
<!-- N4 -->
<g id="node4" class="node">
<title>N4</title>
<ellipse fill="none" stroke="#fde725" cx="276.99" cy="-301" rx="28.98" ry="26.74"/>
<text text-anchor="middle" x="276.99" y="-304.8" font-family="Times,serif" font-size="14.00">N_4</text>
<text text-anchor="middle" x="276.99" y="-289.8" font-family="Times,serif" font-size="14.00">30.9</text>
</g>
<!-- N4&#45;&gt;R3 -->
<g id="edge17" class="edge">
<title>N4&#45;&gt;R3</title>
<path fill="none" stroke="#1fa088" d="M294.44,-322.62C302.55,-332.22 312.95,-343.11 323.98,-351 335.88,-359.51 350.31,-366.5 363.33,-371.83"/>
<polygon fill="#1fa088" stroke="#1fa088" points="362.35,-375.21 372.94,-375.57 364.9,-368.68 362.35,-375.21"/>
<text text-anchor="middle" x="339.48" y="-370.8" font-family="Times,serif" font-size="14.00">1.37</text>
</g>
<!-- N4&#45;&gt;R13 -->
<g id="edge18" class="edge">
<title>N4&#45;&gt;R13</title>
<path fill="none" stroke="#1f9f88" d="M304.51,-310.07C310.83,-311.95 317.59,-313.74 323.98,-315 465.44,-342.8 536.92,-251.87 646.97,-345 670.83,-365.2 649.88,-385.62 664.97,-413 665.02,-413.09 665.07,-413.19 665.12,-413.28"/>
<polygon fill="#1f9f88" stroke="#1f9f88" points="662.38,-415.48 670.92,-421.75 668.16,-411.52 662.38,-415.48"/>
<text text-anchor="middle" x="471.98" y="-318.8" font-family="Times,serif" font-size="14.00">1.34</text>
</g>
<!-- R14 -->
<g id="node10" class="node">
<title>R14</title>
<polygon fill="none" stroke="#481e6f" points="1219.42,-635 1165.42,-635 1165.42,-597 1219.42,-597 1219.42,-635"/>
<text text-anchor="middle" x="1192.42" y="-619.8" font-family="Times,serif" font-size="14.00">R_14</text>
<text text-anchor="middle" x="1192.42" y="-604.8" font-family="Times,serif" font-size="14.00">0.0285</text>
</g>
<!-- N4&#45;&gt;R14 -->
<g id="edge20" class="edge">
<title>N4&#45;&gt;R14</title>
<path fill="none" stroke="#482777" d="M277.78,-327.87C278.21,-383.75 283.82,-515.74 323.98,-617 344.47,-668.64 343.43,-717 398.98,-717 398.98,-717 398.98,-717 886.93,-717 1006.58,-717 1041.26,-704.2 1147.42,-649 1151.74,-646.75 1156.09,-644.09 1160.29,-641.26"/>
<polygon fill="#482777" stroke="#482777" points="1162.51,-643.97 1168.62,-635.32 1158.44,-638.28 1162.51,-643.97"/>
<text text-anchor="middle" x="752.47" y="-720.8" font-family="Times,serif" font-size="14.00">0.169</text>
</g>
<!-- N4&#45;&gt;R4 -->
<g id="edge21" class="edge">
<title>N4&#45;&gt;R4</title>
<path fill="none" stroke="#2c728e" d="M279.37,-328.03C283.46,-402.35 296.99,-608.35 323.98,-670 344.19,-716.15 348.6,-755 398.98,-755 398.98,-755 398.98,-755 1007.93,-755 1198.15,-755 1267.92,-711.96 1393.4,-569 1419.26,-539.53 1430,-494.44 1434.41,-465.08"/>
<polygon fill="#2c728e" stroke="#2c728e" points="1437.89,-465.42 1435.76,-455.04 1430.96,-464.48 1437.89,-465.42"/>
<text text-anchor="middle" x="885.93" y="-758.8" font-family="Times,serif" font-size="14.00">0.572</text>
</g>
<!-- N4&#45;&gt;R8 -->
<g id="edge24" class="edge">
<title>N4&#45;&gt;R8</title>
<path fill="none" stroke="#20948c" d="M265.02,-276.4C256.13,-256.99 243,-229.38 230,-206 214.21,-177.62 194.17,-146.41 179.76,-124.69"/>
<polygon fill="#20948c" stroke="#20948c" points="182.61,-122.66 174.15,-116.29 176.79,-126.55 182.61,-122.66"/>
<text text-anchor="middle" x="217.5" y="-209.8" font-family="Times,serif" font-size="14.00">1.09</text>
</g>
<!-- R15 -->
<g id="node15" class="node">
<title>R15</title>
<polygon fill="none" stroke="#470f62" points="426.98,-271 372.98,-271 372.98,-233 426.98,-233 426.98,-271"/>
<text text-anchor="middle" x="399.98" y="-255.8" font-family="Times,serif" font-size="14.00">R_15</text>
<text text-anchor="middle" x="399.98" y="-240.8" font-family="Times,serif" font-size="14.00">0.0208</text>
</g>
<!-- N4&#45;&gt;R15 -->
<g id="edge26" class="edge">
<title>N4&#45;&gt;R15</title>
<path fill="none" stroke="#228b8d" d="M300.63,-284.82C307.85,-280.2 316.02,-275.47 323.98,-272 336.14,-266.69 350.04,-262.51 362.54,-259.37"/>
<polygon fill="#228b8d" stroke="#228b8d" points="363.72,-262.69 372.64,-256.98 362.11,-255.88 363.72,-262.69"/>
<text text-anchor="middle" x="339.48" y="-275.8" font-family="Times,serif" font-size="14.00">0.915</text>
</g>
<!-- N4&#45;&gt;R7 -->
<g id="edge27" class="edge">
<title>N4&#45;&gt;R7</title>
<path fill="none" stroke="#2b758e" d="M281.53,-274.45C286.55,-245.95 298.19,-200.76 323.98,-171 353.57,-136.87 402.05,-115.66 435.19,-104.35"/>
<polygon fill="#2b758e" stroke="#2b758e" points="436.53,-107.6 444.94,-101.16 434.35,-100.94 436.53,-107.6"/>
<text text-anchor="middle" x="339.48" y="-174.8" font-family="Times,serif" font-size="14.00">0.604</text>
</g>
<!-- R10 -->
<g id="node17" class="node">
<title>R10</title>
<polygon fill="none" stroke="#47307d" points="646.97,-183 592.97,-183 592.97,-145 646.97,-145 646.97,-183"/>
<text text-anchor="middle" x="619.97" y="-167.8" font-family="Times,serif" font-size="14.00">R_10</text>
<text text-anchor="middle" x="619.97" y="-152.8" font-family="Times,serif" font-size="14.00">0.0438</text>
</g>
<!-- N4&#45;&gt;R10 -->
<g id="edge28" class="edge">
<title>N4&#45;&gt;R10</title>
<path fill="none" stroke="#472e7c" d="M288,-275.95C295.65,-259.67 307.68,-239.11 323.98,-226 363.55,-194.18 512.61,-174.98 582.44,-167.55"/>
<polygon fill="#472e7c" stroke="#472e7c" points="582.96,-171.01 592.55,-166.49 582.24,-164.05 582.96,-171.01"/>
<text text-anchor="middle" x="399.98" y="-207.8" font-family="Times,serif" font-size="14.00">0.187</text>
</g>
<!-- R12 -->
<g id="node18" class="node">
<title>R12</title>
<polygon fill="none" stroke="#33638d" points="973.43,-269 919.43,-269 919.43,-231 973.43,-231 973.43,-269"/>
<text text-anchor="middle" x="946.43" y="-253.8" font-family="Times,serif" font-size="14.00">R_12</text>
<text text-anchor="middle" x="946.43" y="-238.8" font-family="Times,serif" font-size="14.00">0.17</text>
</g>
<!-- N4&#45;&gt;R12 -->
<g id="edge29" class="edge">
<title>N4&#45;&gt;R12</title>
<path fill="none" stroke="#2b758e" d="M305.83,-297.75C335.84,-294.08 384.96,-287.63 426.98,-280 501.35,-266.49 518.13,-253.61 592.97,-243 656.46,-234 672.87,-236 736.97,-234 750.74,-233.57 754.2,-233.38 767.97,-234 817.05,-236.21 873.54,-241.83 909.35,-245.79"/>
<polygon fill="#2b758e" stroke="#2b758e" points="909,-249.27 919.32,-246.91 909.77,-242.31 909,-249.27"/>
<text text-anchor="middle" x="619.97" y="-246.8" font-family="Times,serif" font-size="14.00">0.6</text>
</g>
<!-- N9 -->
<g id="node5" class="node">
<title>N9</title>
<ellipse fill="none" stroke="#33b67a" cx="1069.42" cy="-209" rx="28.98" ry="26.74"/>
<text text-anchor="middle" x="1069.42" y="-212.8" font-family="Times,serif" font-size="14.00">N_9</text>
<text text-anchor="middle" x="1069.42" y="-197.8" font-family="Times,serif" font-size="14.00">2.35</text>
</g>
<!-- N9&#45;&gt;R3 -->
<g id="edge30" class="edge">
<title>N9&#45;&gt;R3</title>
<path fill="none" stroke="#2c748e" d="M1040.23,-206.87C1034.35,-206.51 1028.19,-206.19 1022.43,-206 1008.66,-205.55 1005.13,-204.5 991.43,-206 958.85,-209.58 951.15,-213.71 919.43,-222 706.36,-277.7 651.85,-289.44 444.98,-365 442.27,-365.99 439.49,-367.06 436.7,-368.17"/>
<polygon fill="#2c748e" stroke="#2c748e" points="435.22,-365 427.31,-372.05 437.89,-371.47 435.22,-365"/>
<text text-anchor="middle" x="752.47" y="-273.8" font-family="Times,serif" font-size="14.00">0.589</text>
</g>
<!-- R6 -->
<g id="node8" class="node">
<title>R6</title>
<polygon fill="none" stroke="#482072" points="1219.42,-365 1165.42,-365 1165.42,-327 1219.42,-327 1219.42,-365"/>
<text text-anchor="middle" x="1192.42" y="-349.8" font-family="Times,serif" font-size="14.00">R_6</text>
<text text-anchor="middle" x="1192.42" y="-334.8" font-family="Times,serif" font-size="14.00">0.0304</text>
</g>
<!-- N9&#45;&gt;R6 -->
<g id="edge31" class="edge">
<title>N9&#45;&gt;R6</title>
<path fill="none" stroke="#46337f" d="M1098.35,-211.69C1114.46,-214.59 1134.11,-220.58 1147.42,-233 1160.01,-244.76 1174.49,-287.68 1183.29,-317.11"/>
<polygon fill="#46337f" stroke="#46337f" points="1179.99,-318.27 1186.16,-326.88 1186.7,-316.3 1179.99,-318.27"/>
<text text-anchor="middle" x="1131.92" y="-236.8" font-family="Times,serif" font-size="14.00">0.2</text>
</g>
<!-- N9&#45;&gt;R14 -->
<g id="edge32" class="edge">
<title>N9&#45;&gt;R14</title>
<path fill="none" stroke="#31678e" d="M1091.25,-227.15C1099.05,-233.82 1108.05,-241.36 1116.42,-248 1129.85,-258.66 1138.75,-256.19 1147.42,-271 1155.39,-284.62 1179.7,-506.18 1188.33,-586.89"/>
<polygon fill="#31678e" stroke="#31678e" points="1184.86,-587.3 1189.4,-596.88 1191.82,-586.56 1184.86,-587.3"/>
<text text-anchor="middle" x="1131.92" y="-274.8" font-family="Times,serif" font-size="14.00">0.466</text>
</g>
<!-- N9&#45;&gt;R8 -->
<g id="edge34" class="edge">
<title>N9&#45;&gt;R8</title>
<path fill="none" stroke="#481e70" d="M1061.8,-182.77C1048.52,-137.15 1014.04,-48 947.43,-48 618.97,-48 618.97,-48 618.97,-48 461.26,-48 274.74,-77.08 197.4,-90.44"/>
<polygon fill="#481e70" stroke="#481e70" points="196.47,-87.05 187.22,-92.21 197.68,-93.94 196.47,-87.05"/>
<text text-anchor="middle" x="619.97" y="-52.8" font-family="Times,serif" font-size="14.00">0.149</text>
</g>
<!-- N9&#45;&gt;R12 -->
<g id="edge38" class="edge">
<title>N9&#45;&gt;R12</title>
<path fill="none" stroke="#482273" d="M1040.14,-208.35C1025.2,-208.89 1006.82,-210.97 991.43,-217 986.32,-219 981.29,-221.77 976.55,-224.86"/>
<polygon fill="#482273" stroke="#482273" points="974.51,-222.02 968.4,-230.67 978.57,-227.72 974.51,-222.02"/>
<text text-anchor="middle" x="1006.93" y="-220.8" font-family="Times,serif" font-size="14.00">0.157</text>
</g>
<!-- N9&#45;&gt;R9 -->
<g id="edge39" class="edge">
<title>N9&#45;&gt;R9</title>
<path fill="none" stroke="#38578c" d="M1052.72,-231.17C1044.47,-241.87 1033.73,-254.42 1022.43,-264 955.56,-320.67 931.29,-325.71 852.43,-364 804.42,-387.32 789.87,-404.08 736.97,-397 734.42,-396.66 731.82,-396.21 729.22,-395.69"/>
<polygon fill="#38578c" stroke="#38578c" points="729.79,-392.23 719.26,-393.39 728.21,-399.05 729.79,-392.23"/>
<text text-anchor="middle" x="885.93" y="-357.8" font-family="Times,serif" font-size="14.00">0.351</text>
</g>
<!-- N15 -->
<g id="node6" class="node">
<title>N15</title>
<ellipse fill="none" stroke="#bddf26" cx="819.2" cy="-328" rx="33.47" ry="26.74"/>
<text text-anchor="middle" x="819.2" y="-331.8" font-family="Times,serif" font-size="14.00">N_15</text>
<text text-anchor="middle" x="819.2" y="-316.8" font-family="Times,serif" font-size="14.00">14.8</text>
</g>
<!-- N15&#45;&gt;R3 -->
<g id="edge40" class="edge">
<title>N15&#45;&gt;R3</title>
<path fill="none" stroke="#2a778e" d="M786.15,-331.34C771.19,-332.95 753.16,-334.97 736.97,-337 627.58,-350.71 498.54,-369.5 437.06,-378.61"/>
<polygon fill="#2a778e" stroke="#2a778e" points="436.47,-375.16 427.09,-380.09 437.49,-382.08 436.47,-375.16"/>
<text text-anchor="middle" x="619.97" y="-358.8" font-family="Times,serif" font-size="14.00">0.632</text>
</g>
<!-- N15&#45;&gt;R6 -->
<g id="edge41" class="edge">
<title>N15&#45;&gt;R6</title>
<path fill="none" stroke="#3a548b" d="M852.49,-329.57C921.43,-332.91 1082.57,-340.72 1155.01,-344.23"/>
<polygon fill="#3a548b" stroke="#3a548b" points="1154.88,-347.73 1165.03,-344.72 1155.21,-340.74 1154.88,-347.73"/>
<text text-anchor="middle" x="1006.93" y="-341.8" font-family="Times,serif" font-size="14.00">0.334</text>
</g>
<!-- N15&#45;&gt;R14 -->
<g id="edge42" class="edge">
<title>N15&#45;&gt;R14</title>
<path fill="none" stroke="#29af7f" d="M828.95,-353.82C837.15,-375.23 851.07,-405.53 870.43,-427 953.07,-518.62 1090.82,-578.66 1155.63,-603.29"/>
<polygon fill="#29af7f" stroke="#29af7f" points="1154.8,-606.72 1165.39,-606.94 1157.25,-600.16 1154.8,-606.72"/>
<text text-anchor="middle" x="1006.93" y="-544.8" font-family="Times,serif" font-size="14.00">1.83</text>
</g>
<!-- N15&#45;&gt;R2 -->
<g id="edge44" class="edge">
<title>N15&#45;&gt;R2</title>
<path fill="none" stroke="#433d84" d="M852.51,-324.39C957.76,-312.62 1290.26,-275.45 1401.07,-263.06"/>
<polygon fill="#433d84" stroke="#433d84" points="1401.54,-266.53 1411.09,-261.94 1400.76,-259.57 1401.54,-266.53"/>
<text text-anchor="middle" x="1131.92" y="-298.8" font-family="Times,serif" font-size="14.00">0.232</text>
</g>
<!-- N15&#45;&gt;R4 -->
<g id="edge45" class="edge">
<title>N15&#45;&gt;R4</title>
<path fill="none" stroke="#287c8e" d="M839.46,-349.37C848.15,-357.86 859.03,-367.01 870.43,-373 975.87,-428.41 1011.81,-436 1130.92,-436 1130.92,-436 1130.92,-436 1316.41,-436 1344.77,-436 1376.87,-436 1400.88,-436"/>
<polygon fill="#287c8e" stroke="#287c8e" points="1400.96,-439.5 1410.96,-436 1400.96,-432.5 1400.96,-439.5"/>
<text text-anchor="middle" x="1131.92" y="-439.8" font-family="Times,serif" font-size="14.00">0.689</text>
</g>
<!-- N15&#45;&gt;R5 -->
<g id="edge46" class="edge">
<title>N15&#45;&gt;R5</title>
<path fill="none" stroke="#3b518b" d="M827,-354.17C834.81,-381.32 849.31,-424.29 870.43,-457 887.31,-483.14 895.08,-487.63 919.43,-507 948.78,-530.35 956.27,-537.97 991.43,-551 1087.69,-586.65 1120.55,-560.39 1219.42,-588 1285.93,-606.57 1359.74,-639.04 1402.15,-658.92"/>
<polygon fill="#3b518b" stroke="#3b518b" points="1400.68,-662.09 1411.22,-663.2 1403.67,-655.76 1400.68,-662.09"/>
<text text-anchor="middle" x="1131.92" y="-577.8" font-family="Times,serif" font-size="14.00">0.316</text>
</g>
<!-- N15&#45;&gt;R12 -->
<g id="edge49" class="edge">
<title>N15&#45;&gt;R12</title>
<path fill="none" stroke="#355f8d" d="M836.22,-304.74C845.11,-293.4 857.06,-280.43 870.43,-272 882.12,-264.63 896.37,-259.65 909.3,-256.31"/>
<polygon fill="#355f8d" stroke="#355f8d" points="910.36,-259.66 919.31,-253.98 908.77,-252.84 910.36,-259.66"/>
<text text-anchor="middle" x="885.93" y="-275.8" font-family="Times,serif" font-size="14.00">0.401</text>
</g>
<!-- N15&#45;&gt;R9 -->
<g id="edge51" class="edge">
<title>N15&#45;&gt;R9</title>
<path fill="none" stroke="#440154" d="M797.15,-348.25C788.67,-355.44 778.42,-362.98 767.97,-368 756.02,-373.73 742.07,-377.58 729.46,-380.13"/>
<polygon fill="#440154" stroke="#440154" points="728.47,-376.76 719.26,-381.99 729.73,-383.64 728.47,-376.76"/>
<text text-anchor="middle" x="752.47" y="-381.8" font-family="Times,serif" font-size="14.00">0.103</text>
</g>
<!-- R3&#45;&gt;N2 -->
<g id="edge1" class="edge">
<title>R3&#45;&gt;N2</title>
<path fill="none" stroke="#42be71" d="M417.51,-403.05C425.21,-411.01 434.9,-419.82 444.98,-426 464.35,-437.86 488.3,-446.42 507.9,-452.11"/>
<polygon fill="#42be71" stroke="#42be71" points="507.14,-455.53 517.71,-454.82 509,-448.78 507.14,-455.53"/>
<text text-anchor="middle" x="471.98" y="-451.8" font-family="Times,serif" font-size="14.00">2.49</text>
</g>
<!-- R6&#45;&gt;N2 -->
<g id="edge3" class="edge">
<title>R6&#45;&gt;N2</title>
<path fill="none" stroke="#34608d" d="M1165.17,-354.82C1094.22,-378.2 892.31,-441.9 718.97,-469 663.61,-477.65 648.54,-480.13 592.97,-473 589.95,-472.61 586.85,-472.09 583.76,-471.48"/>
<polygon fill="#34608d" stroke="#34608d" points="584.51,-468.06 573.99,-469.27 582.97,-474.89 584.51,-468.06"/>
<text text-anchor="middle" x="885.93" y="-441.8" font-family="Times,serif" font-size="14.00">0.411</text>
</g>
<!-- R6&#45;&gt;N3 -->
<g id="edge10" class="edge">
<title>R6&#45;&gt;N3</title>
<path fill="none" stroke="#433e85" d="M1219.67,-346C1236.13,-346 1257.63,-346 1275.99,-346"/>
<polygon fill="#433e85" stroke="#433e85" points="1276.1,-349.5 1286.1,-346 1276.1,-342.5 1276.1,-349.5"/>
<text text-anchor="middle" x="1252.92" y="-349.8" font-family="Times,serif" font-size="14.00">0.237</text>
</g>
<!-- R13&#45;&gt;N2 -->
<g id="edge4" class="edge">
<title>R13&#45;&gt;N2</title>
<path fill="none" stroke="#1fa088" d="M664.74,-444.64C642.35,-447.75 609.87,-452.26 584.68,-455.76"/>
<polygon fill="#1fa088" stroke="#1fa088" points="584.16,-452.3 574.74,-457.14 585.12,-459.23 584.16,-452.3"/>
<text text-anchor="middle" x="619.97" y="-457.8" font-family="Times,serif" font-size="14.00">1.37</text>
</g>
<!-- R14&#45;&gt;N2 -->
<g id="edge6" class="edge">
<title>R14&#45;&gt;N2</title>
<path fill="none" stroke="#46337f" d="M1165.33,-612.98C1129.79,-609.14 1064.14,-603 1007.93,-603 690.97,-603 690.97,-603 690.97,-603 643.4,-603 626.96,-593.27 592.97,-560 575.39,-542.8 563.82,-517.6 556.67,-496.93"/>
<polygon fill="#46337f" stroke="#46337f" points="559.93,-495.63 553.52,-487.2 553.27,-497.79 559.93,-495.63"/>
<text text-anchor="middle" x="885.93" y="-606.8" font-family="Times,serif" font-size="14.00">0.199</text>
</g>
<!-- R14&#45;&gt;N4 -->
<g id="edge19" class="edge">
<title>R14&#45;&gt;N4</title>
<path fill="none" stroke="#38b977" d="M1165.32,-625.16C1113.14,-642.63 991.93,-679 886.93,-679 398.98,-679 398.98,-679 398.98,-679 327.84,-679 292.74,-433.03 281.83,-337.92"/>
<polygon fill="#38b977" stroke="#38b977" points="285.3,-337.43 280.71,-327.88 278.34,-338.21 285.3,-337.43"/>
<text text-anchor="middle" x="752.47" y="-682.8" font-family="Times,serif" font-size="14.00">2.24</text>
</g>
<!-- R2&#45;&gt;N3 -->
<g id="edge11" class="edge">
<title>R2&#45;&gt;N3</title>
<path fill="none" stroke="#453681" d="M1411.25,-267.66C1396.11,-273.43 1377.18,-281.97 1362.4,-293 1353.67,-299.51 1345.42,-307.94 1338.39,-316.16"/>
<polygon fill="#453681" stroke="#453681" points="1335.68,-313.94 1332.05,-323.89 1341.09,-318.38 1335.68,-313.94"/>
<text text-anchor="middle" x="1377.9" y="-296.8" font-family="Times,serif" font-size="14.00">0.21</text>
</g>
<!-- R2&#45;&gt;N9 -->
<g id="edge33" class="edge">
<title>R2&#45;&gt;N9</title>
<path fill="none" stroke="#48196b" d="M1411.08,-249.78C1405.31,-248 1399.19,-246.29 1393.4,-245 1285.78,-221.08 1257.21,-222.98 1147.42,-213 1134.82,-211.85 1121.02,-211.01 1108.64,-210.4"/>
<polygon fill="#48196b" stroke="#48196b" points="1108.77,-206.9 1098.62,-209.94 1108.45,-213.89 1108.77,-206.9"/>
<text text-anchor="middle" x="1252.92" y="-227.8" font-family="Times,serif" font-size="14.00">0.138</text>
</g>
<!-- R2&#45;&gt;N15 -->
<g id="edge43" class="edge">
<title>R2&#45;&gt;N15</title>
<path fill="none" stroke="#297b8e" d="M1431.66,-239.78C1418.44,-199.94 1381.85,-112 1316.41,-112 1068.42,-112 1068.42,-112 1068.42,-112 958.66,-112 873.84,-233.67 838.34,-294.38"/>
<polygon fill="#297b8e" stroke="#297b8e" points="835.21,-292.81 833.27,-303.22 841.28,-296.29 835.21,-292.81"/>
<text text-anchor="middle" x="1131.92" y="-115.8" font-family="Times,serif" font-size="14.00">0.677</text>
</g>
<!-- R4&#45;&gt;N3 -->
<g id="edge13" class="edge">
<title>R4&#45;&gt;N3</title>
<path fill="none" stroke="#55c667" d="M1411.33,-418.72C1396.73,-408.84 1378.31,-396.06 1362.4,-384 1356.74,-379.71 1350.82,-375 1345.17,-370.39"/>
<polygon fill="#55c667" stroke="#55c667" points="1347.11,-367.45 1337.17,-363.78 1342.65,-372.85 1347.11,-367.45"/>
<text text-anchor="middle" x="1377.9" y="-409.8" font-family="Times,serif" font-size="14.00">2.97</text>
</g>
<!-- R5&#45;&gt;N4 -->
<g id="edge22" class="edge">
<title>R5&#45;&gt;N4</title>
<path fill="none" stroke="#228d8d" d="M1428.62,-695.06C1411.89,-728.21 1372.07,-793 1316.41,-793 398.98,-793 398.98,-793 398.98,-793 351.21,-793 344.39,-759.2 323.98,-716 292.52,-649.39 282.03,-426.98 279.04,-338.13"/>
<polygon fill="#228d8d" stroke="#228d8d" points="282.53,-337.86 278.71,-327.98 275.53,-338.08 282.53,-337.86"/>
<text text-anchor="middle" x="885.93" y="-796.8" font-family="Times,serif" font-size="14.00">0.961</text>
</g>
<!-- R8&#45;&gt;N4 -->
<g id="edge23" class="edge">
<title>R8&#45;&gt;N4</title>
<path fill="none" stroke="#e3e418" d="M164.96,-116.3C170.89,-142.35 183.69,-189.55 205,-225 216.38,-243.93 233.1,-262.13 247.45,-275.96"/>
<polygon fill="#e3e418" stroke="#e3e418" points="245.45,-278.89 255.13,-283.18 250.24,-273.78 245.45,-278.89"/>
<text text-anchor="middle" x="217.5" y="-260.8" font-family="Times,serif" font-size="14.00">8.22</text>
</g>
<!-- R8&#45;&gt;N15 -->
<g id="edge47" class="edge">
<title>R8&#45;&gt;N15</title>
<path fill="none" stroke="#68cd5c" d="M187.1,-101.79C261.25,-115.9 478.62,-160.97 646.97,-233 673.68,-244.43 741.08,-282.96 782.91,-307.3"/>
<polygon fill="#68cd5c" stroke="#68cd5c" points="781.28,-310.4 791.68,-312.41 784.8,-304.35 781.28,-310.4"/>
<text text-anchor="middle" x="471.98" y="-182.8" font-family="Times,serif" font-size="14.00">3.49</text>
</g>
<!-- R15&#45;&gt;N4 -->
<g id="edge25" class="edge">
<title>R15&#45;&gt;N4</title>
<path fill="none" stroke="#20928c" d="M372.86,-237.01C357.9,-230.52 339.15,-226.02 323.98,-234 310.52,-241.09 300.24,-254.09 292.85,-266.77"/>
<polygon fill="#20928c" stroke="#20928c" points="289.62,-265.39 287.97,-275.85 295.79,-268.7 289.62,-265.39"/>
<text text-anchor="middle" x="339.48" y="-237.8" font-family="Times,serif" font-size="14.00">1.04</text>
</g>
<!-- R7&#45;&gt;N9 -->
<g id="edge35" class="edge">
<title>R7&#45;&gt;N9</title>
<path fill="none" stroke="#1e9d89" d="M499.07,-91.71C528.25,-89.34 576.96,-86 618.97,-86 618.97,-86 618.97,-86 886.93,-86 953.28,-86 1013.43,-143.03 1045.05,-179.42"/>
<polygon fill="#1e9d89" stroke="#1e9d89" points="1042.59,-181.93 1051.73,-187.29 1047.93,-177.4 1042.59,-181.93"/>
<text text-anchor="middle" x="752.47" y="-89.8" font-family="Times,serif" font-size="14.00">1.29</text>
</g>
<!-- R7&#45;&gt;N15 -->
<g id="edge48" class="edge">
<title>R7&#45;&gt;N15</title>
<path fill="none" stroke="#d3e21b" d="M499.3,-97.66C546.3,-104.26 640.41,-117.76 646.97,-121 713.75,-154.02 722.56,-177.94 767.97,-237 781.33,-254.38 793.32,-275.76 802.24,-293.43"/>
<polygon fill="#d3e21b" stroke="#d3e21b" points="799.3,-295.39 806.86,-302.82 805.58,-292.3 799.3,-295.39"/>
<text text-anchor="middle" x="619.97" y="-124.8" font-family="Times,serif" font-size="14.00">7.32</text>
</g>
<!-- R10&#45;&gt;N9 -->
<g id="edge36" class="edge">
<title>R10&#45;&gt;N9</title>
<path fill="none" stroke="#443a83" d="M647.25,-159.64C712.75,-149.87 887.68,-130.43 1022.43,-176 1028.28,-177.98 1034.02,-180.97 1039.36,-184.36"/>
<polygon fill="#443a83" stroke="#443a83" points="1037.72,-187.48 1047.92,-190.33 1041.72,-181.74 1037.72,-187.48"/>
<text text-anchor="middle" x="819.2" y="-151.8" font-family="Times,serif" font-size="14.00">0.224</text>
</g>
<!-- R12&#45;&gt;N9 -->
<g id="edge37" class="edge">
<title>R12&#45;&gt;N9</title>
<path fill="none" stroke="#218f8d" d="M973.72,-247.36C988.39,-245.33 1006.8,-241.84 1022.43,-236 1027.07,-234.27 1031.77,-232.08 1036.31,-229.71"/>
<polygon fill="#218f8d" stroke="#218f8d" points="1038.32,-232.6 1045.34,-224.65 1034.9,-226.49 1038.32,-232.6"/>
<text text-anchor="middle" x="1006.93" y="-248.8" font-family="Times,serif" font-size="14.00">0.988</text>
</g>
<!-- R9&#45;&gt;N15 -->
<g id="edge50" class="edge">
<title>R9&#45;&gt;N15</title>
<path fill="none" stroke="#20948c" d="M716.25,-365.88C722.69,-361.21 729.87,-356.55 736.97,-353 749.48,-346.74 763.87,-341.69 777.03,-337.81"/>
<polygon fill="#20948c" stroke="#20948c" points="778.12,-341.14 786.8,-335.07 776.23,-334.4 778.12,-341.14"/>
<text text-anchor="middle" x="752.47" y="-356.8" font-family="Times,serif" font-size="14.00">1.09</text>
</g>
</g>
</svg>
