<?xml version="1.0" encoding="UTF-8" standalone="no"?>
<!DOCTYPE svg PUBLIC "-//W3C//DTD SVG 1.1//EN"
 "http://www.w3.org/Graphics/SVG/1.1/DTD/svg11.dtd">
<!-- Generated by graphviz version 2.50.0 (20211204.2007)
 -->
<!-- Pages: 1 -->
<svg width="2059pt" height="2965pt"
 viewBox="0.00 0.00 2058.79 2965.00" xmlns="http://www.w3.org/2000/svg" xmlns:xlink="http://www.w3.org/1999/xlink">
<g id="graph0" class="graph" transform="scale(1 1) rotate(0) translate(4 2961)">
<polygon fill="white" stroke="transparent" points="-4,4 -4,-2961 2054.79,-2961 2054.79,4 -4,4"/>
<!-- chemostat -->
<g id="node1" class="node">
<title>chemostat</title>
<polygon fill="none" stroke="black" points="72,-72 0,-72 0,-36 72,-36 72,-72"/>
<text text-anchor="middle" x="36" y="-50.3" font-family="Times,serif" font-size="14.00">chemostat</text>
</g>
<!-- R18 -->
<g id="node13" class="node">
<title>R18</title>
<polygon fill="none" stroke="#3a538b" points="187,-2441 133,-2441 133,-2403 187,-2403 187,-2441"/>
<text text-anchor="middle" x="160" y="-2425.8" font-family="Times,serif" font-size="14.00">R_18</text>
<text text-anchor="middle" x="160" y="-2410.8" font-family="Times,serif" font-size="14.00">0.086</text>
</g>
<!-- chemostat&#45;&gt;R18 -->
<g id="edge138" class="edge">
<title>chemostat&#45;&gt;R18</title>
<path fill="none" stroke="#f1e51d" d="M37.93,-72.04C48.41,-275.5 144.31,-2136.83 157.5,-2392.86"/>
<polygon fill="#f1e51d" stroke="#f1e51d" points="154.01,-2393.08 158.02,-2402.89 161,-2392.72 154.01,-2393.08"/>
<text text-anchor="middle" x="102.5" y="-1523.8" font-family="Times,serif" font-size="14.00">2.43</text>
</g>
<!-- R11 -->
<g id="node15" class="node">
<title>R11</title>
<polygon fill="none" stroke="#2e6e8e" points="1782.32,-1055 1728.32,-1055 1728.32,-1017 1782.32,-1017 1782.32,-1055"/>
<text text-anchor="middle" x="1755.32" y="-1039.8" font-family="Times,serif" font-size="14.00">R_11</text>
<text text-anchor="middle" x="1755.32" y="-1024.8" font-family="Times,serif" font-size="14.00">0.16</text>
</g>
<!-- chemostat&#45;&gt;R11 -->
<g id="edge139" class="edge">
<title>chemostat&#45;&gt;R11</title>
<path fill="none" stroke="#fde725" d="M72.08,-46.94C96.37,-42.65 129.52,-38 159,-38 159,-38 159,-38 886.92,-38 941.83,-38 944.17,-77.04 994.92,-98 1125.79,-152.05 1171.01,-129.77 1301.39,-185 1367.75,-213.11 1381.88,-226.04 1441.85,-266 1475.37,-288.33 1485.64,-292.27 1513.85,-321 1587.68,-396.19 1608.33,-417.19 1654.32,-512 1738.65,-685.85 1751.95,-924.36 1753.98,-1006.68"/>
<polygon fill="#fde725" stroke="#fde725" points="1750.48,-1006.87 1754.19,-1016.8 1757.48,-1006.73 1750.48,-1006.87"/>
<text text-anchor="middle" x="885.92" y="-41.8" font-family="Times,serif" font-size="14.00">2.7</text>
</g>
<!-- N2 -->
<g id="node2" class="node">
<title>N2</title>
<ellipse fill="none" stroke="#fde725" cx="289.99" cy="-2384" rx="28.98" ry="26.74"/>
<text text-anchor="middle" x="289.99" y="-2387.8" font-family="Times,serif" font-size="14.00">N_2</text>
<text text-anchor="middle" x="289.99" y="-2372.8" font-family="Times,serif" font-size="14.00">7.22</text>
</g>
<!-- R2 -->
<g id="node9" class="node">
<title>R2</title>
<polygon fill="none" stroke="#481366" points="439.98,-2350 385.98,-2350 385.98,-2312 439.98,-2312 439.98,-2350"/>
<text text-anchor="middle" x="412.98" y="-2334.8" font-family="Times,serif" font-size="14.00">R_2</text>
<text text-anchor="middle" x="412.98" y="-2319.8" font-family="Times,serif" font-size="14.00">0.025</text>
</g>
<!-- N2&#45;&gt;R2 -->
<g id="edge2" class="edge">
<title>N2&#45;&gt;R2</title>
<path fill="none" stroke="#20928c" d="M305.34,-2360.92C313.25,-2350.38 324.1,-2338.94 336.98,-2333 348.81,-2327.55 362.84,-2326.05 375.55,-2326.25"/>
<polygon fill="#20928c" stroke="#20928c" points="375.68,-2329.76 385.84,-2326.77 376.03,-2322.77 375.68,-2329.76"/>
<text text-anchor="middle" x="352.48" y="-2336.8" font-family="Times,serif" font-size="14.00">0.18</text>
</g>
<!-- R3 -->
<g id="node10" class="node">
<title>R3</title>
<polygon fill="none" stroke="#440255" points="708.45,-2134 654.45,-2134 654.45,-2096 708.45,-2096 708.45,-2134"/>
<text text-anchor="middle" x="681.45" y="-2118.8" font-family="Times,serif" font-size="14.00">R_3</text>
<text text-anchor="middle" x="681.45" y="-2103.8" font-family="Times,serif" font-size="14.00">0.0192</text>
</g>
<!-- N2&#45;&gt;R3 -->
<g id="edge4" class="edge">
<title>N2&#45;&gt;R3</title>
<path fill="none" stroke="#2d6f8e" d="M317.66,-2392.1C381.8,-2409.76 546.05,-2443.93 636.45,-2362 668.13,-2333.29 677.09,-2203.4 679.56,-2144.36"/>
<polygon fill="#2d6f8e" stroke="#2d6f8e" points="683.06,-2144.33 679.94,-2134.21 676.06,-2144.06 683.06,-2144.33"/>
<text text-anchor="middle" x="476.98" y="-2418.8" font-family="Times,serif" font-size="14.00">0.0801</text>
</g>
<!-- R14 -->
<g id="node12" class="node">
<title>R14</title>
<polygon fill="none" stroke="#482576" points="1782.32,-2168 1728.32,-2168 1728.32,-2130 1782.32,-2130 1782.32,-2168"/>
<text text-anchor="middle" x="1755.32" y="-2152.8" font-family="Times,serif" font-size="14.00">R_14</text>
<text text-anchor="middle" x="1755.32" y="-2137.8" font-family="Times,serif" font-size="14.00">0.0344</text>
</g>
<!-- N2&#45;&gt;R14 -->
<g id="edge7" class="edge">
<title>N2&#45;&gt;R14</title>
<path fill="none" stroke="#472c7a" d="M295.27,-2410.47C304.26,-2464.99 325.28,-2586.01 336.98,-2601 355.39,-2624.58 429.32,-2651.42 457.98,-2660 641.26,-2714.87 693.6,-2715 884.92,-2715 884.92,-2715 884.92,-2715 1155.39,-2715 1326.1,-2715 1374.28,-2675.3 1513.85,-2577 1538.86,-2559.39 1545.95,-2556.08 1569.85,-2537 1578.22,-2530.32 1579.67,-2527.9 1587.85,-2521 1641.14,-2476.05 1675.39,-2483.33 1710.32,-2423 1736.47,-2377.85 1720.09,-2358.52 1728.32,-2307 1735.5,-2262.11 1744.12,-2210.11 1749.4,-2178.39"/>
<polygon fill="#472c7a" stroke="#472c7a" points="1752.87,-2178.89 1751.06,-2168.45 1745.96,-2177.74 1752.87,-2178.89"/>
<text text-anchor="middle" x="1013.92" y="-2718.8" font-family="Times,serif" font-size="14.00">0.0211</text>
</g>
<!-- N2&#45;&gt;R18 -->
<g id="edge9" class="edge">
<title>N2&#45;&gt;R18</title>
<path fill="none" stroke="#32648e" d="M262.83,-2393.47C256.38,-2395.7 249.46,-2398.01 243,-2400 228.15,-2404.57 211.63,-2409.11 197.32,-2412.86"/>
<polygon fill="#32648e" stroke="#32648e" points="196.16,-2409.55 187.36,-2415.45 197.92,-2416.32 196.16,-2409.55"/>
<text text-anchor="middle" x="224" y="-2414.8" font-family="Times,serif" font-size="14.00">0.0621</text>
</g>
<!-- R19 -->
<g id="node14" class="node">
<title>R19</title>
<polygon fill="none" stroke="#482475" points="1513.85,-757 1459.85,-757 1459.85,-719 1513.85,-719 1513.85,-757"/>
<text text-anchor="middle" x="1486.85" y="-741.8" font-family="Times,serif" font-size="14.00">R_19</text>
<text text-anchor="middle" x="1486.85" y="-726.8" font-family="Times,serif" font-size="14.00">0.0338</text>
</g>
<!-- N2&#45;&gt;R19 -->
<g id="edge11" class="edge">
<title>N2&#45;&gt;R19</title>
<path fill="none" stroke="#297b8e" d="M290.89,-2356.94C290.11,-2124.16 286.36,-465.61 336.98,-375 372.88,-310.75 402.39,-285 475.98,-285 475.98,-285 475.98,-285 886.92,-285 1016.32,-285 1061.45,-272.08 1173.39,-337 1311.04,-416.83 1299.24,-491.09 1403.85,-611 1420.4,-629.97 1427.51,-632.32 1441.85,-653 1454.21,-670.8 1465.39,-692.53 1473.39,-709.55"/>
<polygon fill="#297b8e" stroke="#297b8e" points="1470.37,-711.35 1477.72,-718.97 1476.73,-708.42 1470.37,-711.35"/>
<text text-anchor="middle" x="885.92" y="-288.8" font-family="Times,serif" font-size="14.00">0.105</text>
</g>
<!-- N2&#45;&gt;R11 -->
<g id="edge12" class="edge">
<title>N2&#45;&gt;R11</title>
<path fill="none" stroke="#2e6e8e" d="M291.07,-2357.04C291.8,-2117.74 298.45,-363.93 336.98,-261 355.24,-212.24 359.91,-171 411.98,-171 411.98,-171 411.98,-171 1155.39,-171 1571.45,-171 1721.29,-855.82 1749.26,-1006.79"/>
<polygon fill="#2e6e8e" stroke="#2e6e8e" points="1745.84,-1007.51 1751.07,-1016.72 1752.72,-1006.26 1745.84,-1007.51"/>
<text text-anchor="middle" x="1013.92" y="-174.8" font-family="Times,serif" font-size="14.00">0.0772</text>
</g>
<!-- R12 -->
<g id="node16" class="node">
<title>R12</title>
<polygon fill="none" stroke="#3e4b8a" points="1513.85,-1939 1459.85,-1939 1459.85,-1901 1513.85,-1901 1513.85,-1939"/>
<text text-anchor="middle" x="1486.85" y="-1923.8" font-family="Times,serif" font-size="14.00">R_12</text>
<text text-anchor="middle" x="1486.85" y="-1908.8" font-family="Times,serif" font-size="14.00">0.0727</text>
</g>
<!-- N2&#45;&gt;R12 -->
<g id="edge13" class="edge">
<title>N2&#45;&gt;R12</title>
<path fill="none" stroke="#2e6f8e" d="M291.48,-2411.11C293.64,-2443.95 302.59,-2498.4 336.98,-2527 404.08,-2582.79 639.45,-2570.3 726.45,-2577 845.46,-2586.17 875.57,-2582.44 994.92,-2584 1011.81,-2584.22 1017.32,-2590.48 1032.92,-2584 1092.54,-2559.21 1086.48,-2523.16 1135.39,-2481 1151.28,-2467.3 1158.35,-2467.63 1173.39,-2453 1175.46,-2450.99 1299.64,-2291.3 1301.39,-2289 1347.66,-2228.22 1354.69,-2209.47 1403.85,-2151 1419.64,-2132.23 1430.25,-2132.6 1441.85,-2111 1445.71,-2103.83 1468.38,-2000.7 1479.59,-1949.04"/>
<polygon fill="#2e6f8e" stroke="#2e6f8e" points="1483.03,-1949.66 1481.73,-1939.15 1476.19,-1948.18 1483.03,-1949.66"/>
<text text-anchor="middle" x="885.92" y="-2587.8" font-family="Times,serif" font-size="14.00">0.0796</text>
</g>
<!-- R16 -->
<g id="node17" class="node">
<title>R16</title>
<polygon fill="none" stroke="#46075b" points="1782.32,-458 1728.32,-458 1728.32,-420 1782.32,-420 1782.32,-458"/>
<text text-anchor="middle" x="1755.32" y="-442.8" font-family="Times,serif" font-size="14.00">R_16</text>
<text text-anchor="middle" x="1755.32" y="-427.8" font-family="Times,serif" font-size="14.00">0.021</text>
</g>
<!-- N2&#45;&gt;R16 -->
<g id="edge14" class="edge">
<title>N2&#45;&gt;R16</title>
<path fill="none" stroke="#26828e" d="M290.97,-2356.84C290.87,-2111.97 291.61,-291.42 336.98,-187 355.52,-144.34 365.47,-114 411.98,-114 411.98,-114 411.98,-114 886.92,-114 1165.76,-114 1268.32,-5.84 1513.85,-138 1605.84,-187.51 1649.62,-181.99 1710.32,-267 1726.59,-289.78 1741.92,-366.8 1749.46,-409.64"/>
<polygon fill="#26828e" stroke="#26828e" points="1746.05,-410.48 1751.2,-419.74 1752.95,-409.29 1746.05,-410.48"/>
<text text-anchor="middle" x="1013.92" y="-112.8" font-family="Times,serif" font-size="14.00">0.123</text>
</g>
<!-- R20 -->
<g id="node18" class="node">
<title>R20</title>
<polygon fill="none" stroke="#482072" points="2050.79,-1537 1996.79,-1537 1996.79,-1499 2050.79,-1499 2050.79,-1537"/>
<text text-anchor="middle" x="2023.79" y="-1521.8" font-family="Times,serif" font-size="14.00">R_20</text>
<text text-anchor="middle" x="2023.79" y="-1506.8" font-family="Times,serif" font-size="14.00">0.0316</text>
</g>
<!-- N2&#45;&gt;R20 -->
<g id="edge15" class="edge">
<title>N2&#45;&gt;R20</title>
<path fill="none" stroke="#20928c" d="M290.53,-2410.92C289.49,-2498.78 290.08,-2775.72 336.98,-2849 357.82,-2881.55 373.34,-2893 411.98,-2893 411.98,-2893 411.98,-2893 746.45,-2893 801.13,-2893 812.72,-2910.78 866.92,-2918 1049.85,-2942.37 1096.84,-2943 1281.39,-2943 1281.39,-2943 1281.39,-2943 1890.56,-2943 1919.9,-2943 1957.86,-2835.98 1978.79,-2731 2026.01,-2494.13 2023.95,-1708.87 2023,-1547.24"/>
<polygon fill="#20928c" stroke="#20928c" points="2026.5,-1547.08 2022.93,-1537.1 2019.5,-1547.12 2026.5,-1547.08"/>
<text text-anchor="middle" x="1154.39" y="-2945.8" font-family="Times,serif" font-size="14.00">0.179</text>
</g>
<!-- R5 -->
<g id="node19" class="node">
<title>R5</title>
<polygon fill="none" stroke="#2e6e8e" points="1782.32,-2354 1728.32,-2354 1728.32,-2316 1782.32,-2316 1782.32,-2354"/>
<text text-anchor="middle" x="1755.32" y="-2338.8" font-family="Times,serif" font-size="14.00">R_5</text>
<text text-anchor="middle" x="1755.32" y="-2323.8" font-family="Times,serif" font-size="14.00">0.16</text>
</g>
<!-- N2&#45;&gt;R5 -->
<g id="edge16" class="edge">
<title>N2&#45;&gt;R5</title>
<path fill="none" stroke="#1f958b" d="M293.47,-2410.9C301.34,-2489.33 328.65,-2714.73 385.98,-2755 513.46,-2844.56 927.36,-2829 1083.15,-2829 1083.15,-2829 1083.15,-2829 1283.39,-2829 1330.16,-2829 1345.7,-2828.99 1385.85,-2805 1479.31,-2749.18 1652.14,-2530.01 1710.32,-2438 1725.22,-2414.45 1737.22,-2384.99 1744.91,-2363.61"/>
<polygon fill="#1f958b" stroke="#1f958b" points="1748.23,-2364.72 1748.23,-2354.12 1741.62,-2362.41 1748.23,-2364.72"/>
<text text-anchor="middle" x="1013.92" y="-2832.8" font-family="Times,serif" font-size="14.00">0.193</text>
</g>
<!-- R9 -->
<g id="node20" class="node">
<title>R9</title>
<polygon fill="none" stroke="#29798e" points="1245.39,-2497 1191.39,-2497 1191.39,-2459 1245.39,-2459 1245.39,-2497"/>
<text text-anchor="middle" x="1218.39" y="-2481.8" font-family="Times,serif" font-size="14.00">R_9</text>
<text text-anchor="middle" x="1218.39" y="-2466.8" font-family="Times,serif" font-size="14.00">0.206</text>
</g>
<!-- N2&#45;&gt;R9 -->
<g id="edge17" class="edge">
<title>N2&#45;&gt;R9</title>
<path fill="none" stroke="#277f8e" d="M291.71,-2410.94C294.44,-2503.26 305.67,-2802.74 336.98,-2831 362.16,-2853.72 354.69,-2836.29 495.98,-2793 571.45,-2769.88 1114.72,-2631.81 1173.39,-2579 1194.34,-2560.13 1205.75,-2529.5 1211.66,-2506.91"/>
<polygon fill="#277f8e" stroke="#277f8e" points="1215.07,-2507.71 1214.01,-2497.17 1208.27,-2506.08 1215.07,-2507.71"/>
<text text-anchor="middle" x="745.45" y="-2731.8" font-family="Times,serif" font-size="14.00">0.114</text>
</g>
<!-- R4 -->
<g id="node21" class="node">
<title>R4</title>
<polygon fill="none" stroke="#3e4b8a" points="1513.85,-504 1459.85,-504 1459.85,-466 1513.85,-466 1513.85,-504"/>
<text text-anchor="middle" x="1486.85" y="-488.8" font-family="Times,serif" font-size="14.00">R_4</text>
<text text-anchor="middle" x="1486.85" y="-473.8" font-family="Times,serif" font-size="14.00">0.0725</text>
</g>
<!-- N2&#45;&gt;R4 -->
<g id="edge18" class="edge">
<title>N2&#45;&gt;R4</title>
<path fill="none" stroke="#26818e" d="M291.04,-2357.11C291.52,-2122.15 296.43,-424.4 336.98,-326 355.43,-281.24 363.57,-247 411.98,-247 411.98,-247 411.98,-247 1014.92,-247 1115.04,-247 1372.43,-318.86 1441.85,-391 1461.46,-411.37 1446.87,-426.89 1459.85,-452 1460.78,-453.8 1461.82,-455.59 1462.92,-457.37"/>
<polygon fill="#26818e" stroke="#26818e" points="1460.3,-459.73 1468.87,-465.95 1466.05,-455.74 1460.3,-459.73"/>
<text text-anchor="middle" x="885.92" y="-250.8" font-family="Times,serif" font-size="14.00">0.121</text>
</g>
<!-- R8 -->
<g id="node22" class="node">
<title>R8</title>
<polygon fill="none" stroke="#453681" points="1782.32,-2658 1728.32,-2658 1728.32,-2620 1782.32,-2620 1782.32,-2658"/>
<text text-anchor="middle" x="1755.32" y="-2642.8" font-family="Times,serif" font-size="14.00">R_8</text>
<text text-anchor="middle" x="1755.32" y="-2627.8" font-family="Times,serif" font-size="14.00">0.0473</text>
</g>
<!-- N2&#45;&gt;R8 -->
<g id="edge19" class="edge">
<title>N2&#45;&gt;R8</title>
<path fill="none" stroke="#1f9a8a" d="M290.58,-2411C290.6,-2468.48 295.38,-2606.33 336.98,-2712 350.89,-2747.34 355.54,-2759.29 385.98,-2782 433.65,-2817.56 455.58,-2809.78 513.98,-2821 615.48,-2840.5 1342.79,-2915.44 1441.85,-2886 1578.39,-2845.43 1611.09,-2813.17 1710.32,-2711 1722.8,-2698.16 1733.39,-2681.16 1741.06,-2666.91"/>
<polygon fill="#1f9a8a" stroke="#1f9a8a" points="1744.17,-2668.5 1745.66,-2658.01 1737.95,-2665.29 1744.17,-2668.5"/>
<text text-anchor="middle" x="1013.92" y="-2879.8" font-family="Times,serif" font-size="14.00">0.215</text>
</g>
<!-- R10 -->
<g id="node23" class="node">
<title>R10</title>
<polygon fill="none" stroke="#39568c" points="1782.32,-1416 1728.32,-1416 1728.32,-1378 1782.32,-1378 1782.32,-1416"/>
<text text-anchor="middle" x="1755.32" y="-1400.8" font-family="Times,serif" font-size="14.00">R_10</text>
<text text-anchor="middle" x="1755.32" y="-1385.8" font-family="Times,serif" font-size="14.00">0.0919</text>
</g>
<!-- N2&#45;&gt;R10 -->
<g id="edge20" class="edge">
<title>N2&#45;&gt;R10</title>
<path fill="none" stroke="#2ab07f" d="M291.43,-2357C295.13,-2138.3 323.35,-665 411.98,-665 411.98,-665 411.98,-665 618.45,-665 889.51,-665 980.21,-727.85 1173.39,-918 1223.47,-967.3 1214.43,-997.58 1263.39,-1048 1278,-1063.05 1290.3,-1058.19 1301.39,-1076 1325.26,-1114.33 1291.78,-1140.26 1319.39,-1176 1361.44,-1230.44 1394.7,-1218.93 1459.85,-1241 1567.89,-1277.6 1622.21,-1224.56 1710.32,-1297 1731.92,-1314.76 1743.24,-1345.23 1748.95,-1367.88"/>
<polygon fill="#2ab07f" stroke="#2ab07f" points="1745.55,-1368.7 1751.19,-1377.66 1752.37,-1367.13 1745.55,-1368.7"/>
<text text-anchor="middle" x="1013.92" y="-792.8" font-family="Times,serif" font-size="14.00">0.36</text>
</g>
<!-- R17 -->
<g id="node24" class="node">
<title>R17</title>
<polygon fill="none" stroke="#470f61" points="1782.32,-1721 1728.32,-1721 1728.32,-1683 1782.32,-1683 1782.32,-1721"/>
<text text-anchor="middle" x="1755.32" y="-1705.8" font-family="Times,serif" font-size="14.00">R_17</text>
<text text-anchor="middle" x="1755.32" y="-1690.8" font-family="Times,serif" font-size="14.00">0.0233</text>
</g>
<!-- N2&#45;&gt;R17 -->
<g id="edge21" class="edge">
<title>N2&#45;&gt;R17</title>
<path fill="none" stroke="#375a8c" d="M291.51,-2410.89C293.6,-2446.77 302.35,-2510.36 336.98,-2550 352.57,-2567.84 363.15,-2564.66 385.98,-2571 778.01,-2679.91 926.06,-2739.1 1301.39,-2582 1427.67,-2529.14 1487.62,-2540.45 1569.85,-2431 1689.69,-2271.51 1604.97,-2181.78 1672.32,-1994 1685.21,-1958.08 1697.95,-1953.1 1710.32,-1917 1732.42,-1852.51 1745.12,-1773.14 1750.77,-1731.19"/>
<polygon fill="#375a8c" stroke="#375a8c" points="1754.26,-1731.49 1752.08,-1721.13 1747.32,-1730.59 1754.26,-1731.49"/>
<text text-anchor="middle" x="1013.92" y="-2674.8" font-family="Times,serif" font-size="14.00">0.0504</text>
</g>
<!-- R6 -->
<g id="node25" class="node">
<title>R6</title>
<polygon fill="none" stroke="#482677" points="1513.85,-894 1459.85,-894 1459.85,-856 1513.85,-856 1513.85,-894"/>
<text text-anchor="middle" x="1486.85" y="-878.8" font-family="Times,serif" font-size="14.00">R_6</text>
<text text-anchor="middle" x="1486.85" y="-863.8" font-family="Times,serif" font-size="14.00">0.0353</text>
</g>
<!-- N2&#45;&gt;R6 -->
<g id="edge22" class="edge">
<title>N2&#45;&gt;R6</title>
<path fill="none" stroke="#287c8e" d="M291.2,-2357.12C292.88,-2151.08 304.88,-825.65 336.98,-651 355.21,-551.88 311.2,-437 411.98,-437 411.98,-437 411.98,-437 618.45,-437 786.24,-437 1150.83,-684.94 1301.39,-759 1364.34,-789.96 1385.15,-789.7 1441.85,-831 1448.73,-836.01 1455.54,-842.1 1461.67,-848.13"/>
<polygon fill="#287c8e" stroke="#287c8e" points="1459.54,-850.96 1469.03,-855.66 1464.54,-846.06 1459.54,-850.96"/>
<text text-anchor="middle" x="885.92" y="-540.8" font-family="Times,serif" font-size="14.00">0.107</text>
</g>
<!-- R13 -->
<g id="node26" class="node">
<title>R13</title>
<polygon fill="none" stroke="#433f85" points="1782.32,-299 1728.32,-299 1728.32,-261 1782.32,-261 1782.32,-299"/>
<text text-anchor="middle" x="1755.32" y="-283.8" font-family="Times,serif" font-size="14.00">R_13</text>
<text text-anchor="middle" x="1755.32" y="-268.8" font-family="Times,serif" font-size="14.00">0.056</text>
</g>
<!-- N2&#45;&gt;R13 -->
<g id="edge23" class="edge">
<title>N2&#45;&gt;R13</title>
<path fill="none" stroke="#482978" d="M291.11,-2356.89C292.3,-2104.52 302.52,-174.4 336.98,-127 342.08,-119.99 642.46,0 744.45,0 744.45,0 744.45,0 1622.09,0 1732.03,0 1750.7,-178.68 1753.77,-250.57"/>
<polygon fill="#482978" stroke="#482978" points="1750.28,-250.88 1754.13,-260.75 1757.27,-250.64 1750.28,-250.88"/>
<text text-anchor="middle" x="1013.92" y="-3.8" font-family="Times,serif" font-size="14.00">0.0201</text>
</g>
<!-- R15 -->
<g id="node27" class="node">
<title>R15</title>
<polygon fill="none" stroke="#3f4989" points="1245.39,-1415 1191.39,-1415 1191.39,-1377 1245.39,-1377 1245.39,-1415"/>
<text text-anchor="middle" x="1218.39" y="-1399.8" font-family="Times,serif" font-size="14.00">R_15</text>
<text text-anchor="middle" x="1218.39" y="-1384.8" font-family="Times,serif" font-size="14.00">0.069</text>
</g>
<!-- N2&#45;&gt;R15 -->
<g id="edge24" class="edge">
<title>N2&#45;&gt;R15</title>
<path fill="none" stroke="#25ab82" d="M291.46,-2357.03C294.03,-2217.46 307.3,-1580.52 336.98,-1498 349.35,-1463.62 354.56,-1450.63 385.98,-1432 405.98,-1420.14 278.15,-1409.36 994.92,-1365 1074.15,-1360.1 1098.05,-1346.98 1173.39,-1372 1176.27,-1372.96 1179.18,-1374.1 1182.06,-1375.36"/>
<polygon fill="#25ab82" stroke="#25ab82" points="1180.56,-1378.52 1191.09,-1379.69 1183.58,-1372.2 1180.56,-1378.52"/>
<text text-anchor="middle" x="745.45" y="-1386.8" font-family="Times,serif" font-size="14.00">0.317</text>
</g>
<!-- R1 -->
<g id="node28" class="node">
<title>R1</title>
<polygon fill="none" stroke="#3a548c" points="976.92,-1450 922.92,-1450 922.92,-1412 976.92,-1412 976.92,-1450"/>
<text text-anchor="middle" x="949.92" y="-1434.8" font-family="Times,serif" font-size="14.00">R_1</text>
<text text-anchor="middle" x="949.92" y="-1419.8" font-family="Times,serif" font-size="14.00">0.0878</text>
</g>
<!-- N2&#45;&gt;R1 -->
<g id="edge25" class="edge">
<title>N2&#45;&gt;R1</title>
<path fill="none" stroke="#238a8d" d="M291.52,-2357.16C294.89,-2202.88 316.48,-1436 411.98,-1436 411.98,-1436 411.98,-1436 618.45,-1436 725.36,-1436 851.69,-1433.35 912.55,-1431.91"/>
<polygon fill="#238a8d" stroke="#238a8d" points="912.88,-1435.4 922.79,-1431.66 912.71,-1428.41 912.88,-1435.4"/>
<text text-anchor="middle" x="617.45" y="-1439.8" font-family="Times,serif" font-size="14.00">0.15</text>
</g>
<!-- N11 -->
<g id="node3" class="node">
<title>N11</title>
<ellipse fill="none" stroke="#d3e21b" cx="815.68" cy="-1982" rx="33.47" ry="26.74"/>
<text text-anchor="middle" x="815.68" y="-1985.8" font-family="Times,serif" font-size="14.00">N_11</text>
<text text-anchor="middle" x="815.68" y="-1970.8" font-family="Times,serif" font-size="14.00">4.87</text>
</g>
<!-- N11&#45;&gt;R2 -->
<g id="edge26" class="edge">
<title>N11&#45;&gt;R2</title>
<path fill="none" stroke="#2e6e8e" d="M787.97,-1997.12C755.16,-2016.22 698.44,-2050.96 654.45,-2087 567.47,-2158.26 477.81,-2257.35 436.87,-2304.29"/>
<polygon fill="#2e6e8e" stroke="#2e6e8e" points="434.17,-2302.06 430.26,-2311.9 439.46,-2306.65 434.17,-2302.06"/>
<text text-anchor="middle" x="617.45" y="-2138.8" font-family="Times,serif" font-size="14.00">0.0772</text>
</g>
<!-- N11&#45;&gt;R3 -->
<g id="edge28" class="edge">
<title>N11&#45;&gt;R3</title>
<path fill="none" stroke="#22a784" d="M801.93,-2006.72C793.04,-2022.1 780.01,-2041.47 764.45,-2055 750.2,-2067.39 741.96,-2063.23 726.45,-2074 720.2,-2078.34 713.94,-2083.53 708.19,-2088.74"/>
<polygon fill="#22a784" stroke="#22a784" points="705.6,-2086.37 700.7,-2095.77 710.39,-2091.47 705.6,-2086.37"/>
<text text-anchor="middle" x="745.45" y="-2077.8" font-family="Times,serif" font-size="14.00">0.292</text>
</g>
<!-- R7 -->
<g id="node11" class="node">
<title>R7</title>
<polygon fill="none" stroke="#440154" points="1513.85,-1845 1459.85,-1845 1459.85,-1807 1513.85,-1807 1513.85,-1845"/>
<text text-anchor="middle" x="1486.85" y="-1829.8" font-family="Times,serif" font-size="14.00">R_7</text>
<text text-anchor="middle" x="1486.85" y="-1814.8" font-family="Times,serif" font-size="14.00">0.0188</text>
</g>
<!-- N11&#45;&gt;R7 -->
<g id="edge29" class="edge">
<title>N11&#45;&gt;R7</title>
<path fill="none" stroke="#2f6b8e" d="M835.83,-1960.19C859.65,-1935.6 902.84,-1899 948.92,-1899 948.92,-1899 948.92,-1899 1155.39,-1899 1264.81,-1899 1389.91,-1860.37 1449.97,-1839.31"/>
<polygon fill="#2f6b8e" stroke="#2f6b8e" points="1451.48,-1842.49 1459.73,-1835.85 1449.14,-1835.9 1451.48,-1842.49"/>
<text text-anchor="middle" x="1154.39" y="-1902.8" font-family="Times,serif" font-size="14.00">0.0734</text>
</g>
<!-- N11&#45;&gt;R14 -->
<g id="edge30" class="edge">
<title>N11&#45;&gt;R14</title>
<path fill="none" stroke="#1fa287" d="M834.3,-2004.63C843.17,-2014.77 854.63,-2026.18 866.92,-2034 966.22,-2097.19 1010.12,-2071.56 1117.39,-2120 1211.54,-2162.52 1219.52,-2208.56 1319.39,-2235 1423.32,-2262.51 1538.18,-2301.93 1710.32,-2207 1722.72,-2200.16 1732.7,-2188.2 1740,-2176.91"/>
<polygon fill="#1fa287" stroke="#1fa287" points="1743.13,-2178.48 1745.27,-2168.11 1737.13,-2174.89 1743.13,-2178.48"/>
<text text-anchor="middle" x="1282.39" y="-2233.8" font-family="Times,serif" font-size="14.00">0.26</text>
</g>
<!-- N11&#45;&gt;R18 -->
<g id="edge32" class="edge">
<title>N11&#45;&gt;R18</title>
<path fill="none" stroke="#2a778e" d="M812.64,-2008.79C807.98,-2063.39 794.57,-2191.05 764.45,-2294 710.78,-2477.46 676.3,-2566.57 495.98,-2630 395.9,-2665.21 346.48,-2650.84 261,-2588 231.08,-2566.01 224.96,-2557.31 205,-2526 189.9,-2502.31 177.92,-2472.55 170.29,-2450.94"/>
<polygon fill="#2a778e" stroke="#2a778e" points="173.56,-2449.67 167.01,-2441.35 166.94,-2451.94 173.56,-2449.67"/>
<text text-anchor="middle" x="476.98" y="-2644.8" font-family="Times,serif" font-size="14.00">0.095</text>
</g>
<!-- N11&#45;&gt;R19 -->
<g id="edge33" class="edge">
<title>N11&#45;&gt;R19</title>
<path fill="none" stroke="#31688e" d="M817.28,-1954.86C820.12,-1832.5 833.64,-1335.43 866.92,-1275 877.04,-1256.62 894.84,-1265.4 904.92,-1247 933.71,-1194.46 899.83,-1033.28 922.92,-978 936.88,-944.59 959.94,-948.98 976.92,-917 991.98,-888.63 974.14,-871.49 994.92,-847 1014.16,-824.32 1090.75,-806.24 1117.39,-793 1125.58,-788.93 1126.99,-786.64 1135.39,-783 1159.37,-772.6 1166.29,-772.34 1191.39,-765 1223.15,-755.71 1230.65,-750.85 1263.39,-746 1328.37,-736.38 1405.14,-736.01 1449.4,-736.84"/>
<polygon fill="#31688e" stroke="#31688e" points="1449.58,-740.35 1459.65,-737.07 1449.73,-733.35 1449.58,-740.35"/>
<text text-anchor="middle" x="1154.39" y="-786.8" font-family="Times,serif" font-size="14.00">0.0682</text>
</g>
<!-- N11&#45;&gt;R11 -->
<g id="edge35" class="edge">
<title>N11&#45;&gt;R11</title>
<path fill="none" stroke="#277f8e" d="M817.11,-1954.85C819.04,-1850.02 828.55,-1471.88 866.92,-1359 869.94,-1350.1 1045.02,-1082.32 1050.92,-1075 1122.52,-986.2 1151.96,-955.44 1263.39,-931 1279.88,-927.38 1289.01,-919.5 1301.39,-931 1341.38,-968.16 1280.74,-1137.45 1319.39,-1176 1346.03,-1202.58 1366.24,-1180.67 1403.85,-1182 1420.73,-1182.6 1425.35,-1185.6 1441.85,-1182 1549.36,-1158.54 1663.54,-1093.52 1719.41,-1058.71"/>
<polygon fill="#277f8e" stroke="#277f8e" points="1721.59,-1061.47 1728.19,-1053.18 1717.86,-1055.55 1721.59,-1061.47"/>
<text text-anchor="middle" x="1282.39" y="-934.8" font-family="Times,serif" font-size="14.00">0.116</text>
</g>
<!-- N11&#45;&gt;R12 -->
<g id="edge37" class="edge">
<title>N11&#45;&gt;R12</title>
<path fill="none" stroke="#56c667" d="M849,-1984.3C965.99,-1992.52 1361.87,-2019.29 1385.85,-2007 1398.04,-2000.76 1394.23,-1991.73 1403.85,-1982 1418.61,-1967.08 1425.11,-1966.64 1441.85,-1954 1445.51,-1951.24 1449.32,-1948.34 1453.1,-1945.44"/>
<polygon fill="#56c667" stroke="#56c667" points="1455.47,-1948.03 1461.26,-1939.16 1451.2,-1942.49 1455.47,-1948.03"/>
<text text-anchor="middle" x="1154.39" y="-2008.8" font-family="Times,serif" font-size="14.00">0.632</text>
</g>
<!-- N11&#45;&gt;R5 -->
<g id="edge40" class="edge">
<title>N11&#45;&gt;R5</title>
<path fill="none" stroke="#43be71" d="M828.51,-2007.09C837.26,-2023.53 850.49,-2044.56 866.92,-2059 926.08,-2110.99 961.78,-2087.2 1032.92,-2121 1082.07,-2144.35 1087.61,-2161.96 1135.39,-2188 1359.82,-2310.32 1420.62,-2349.57 1672.32,-2394 1688.95,-2396.94 1695.23,-2401.57 1710.32,-2394 1723.43,-2387.42 1733.63,-2374.89 1740.89,-2363.06"/>
<polygon fill="#43be71" stroke="#43be71" points="1743.99,-2364.69 1745.87,-2354.26 1737.9,-2361.24 1743.99,-2364.69"/>
<text text-anchor="middle" x="1282.39" y="-2281.8" font-family="Times,serif" font-size="14.00">0.513</text>
</g>
<!-- N11&#45;&gt;R9 -->
<g id="edge41" class="edge">
<title>N11&#45;&gt;R9</title>
<path fill="none" stroke="#30698e" d="M818.18,-2008.94C822.23,-2072.91 835.27,-2231.69 866.92,-2273 916.38,-2337.56 959.43,-2315.17 1032.92,-2350 1095.6,-2379.71 1121.1,-2372.43 1173.39,-2418 1184.26,-2427.48 1182.92,-2433.33 1191.39,-2445 1192.71,-2446.82 1194.09,-2448.69 1195.5,-2450.55"/>
<polygon fill="#30698e" stroke="#30698e" points="1192.86,-2452.86 1201.73,-2458.65 1198.41,-2448.59 1192.86,-2452.86"/>
<text text-anchor="middle" x="1013.92" y="-2353.8" font-family="Times,serif" font-size="14.00">0.0697</text>
</g>
<!-- N11&#45;&gt;R8 -->
<g id="edge42" class="edge">
<title>N11&#45;&gt;R8</title>
<path fill="none" stroke="#4ec36b" d="M827.02,-2007.72C836.2,-2029.35 850.64,-2060.71 866.92,-2086 915.07,-2160.85 923.66,-2186.68 994.92,-2240 1064.09,-2291.75 1096.91,-2276.82 1173.39,-2317 1365.88,-2418.15 1392.85,-2480.78 1587.85,-2577 1631.4,-2598.49 1684.36,-2617 1718.67,-2628.06"/>
<polygon fill="#4ec36b" stroke="#4ec36b" points="1717.67,-2631.42 1728.26,-2631.12 1719.8,-2624.75 1717.67,-2631.42"/>
<text text-anchor="middle" x="1282.39" y="-2396.8" font-family="Times,serif" font-size="14.00">0.581</text>
</g>
<!-- N11&#45;&gt;R10 -->
<g id="edge43" class="edge">
<title>N11&#45;&gt;R10</title>
<path fill="none" stroke="#29af7f" d="M829.91,-1957.51C839.07,-1941.79 852.24,-1921.51 866.92,-1906 1071.29,-1690.06 1136.96,-1638.01 1403.85,-1507 1530.85,-1444.66 1579.29,-1474.32 1710.32,-1421 1713.21,-1419.82 1716.15,-1418.51 1719.08,-1417.11"/>
<polygon fill="#29af7f" stroke="#29af7f" points="1720.93,-1420.1 1728.27,-1412.46 1717.77,-1413.85 1720.93,-1420.1"/>
<text text-anchor="middle" x="1282.39" y="-1582.8" font-family="Times,serif" font-size="14.00">0.351</text>
</g>
<!-- N11&#45;&gt;R17 -->
<g id="edge44" class="edge">
<title>N11&#45;&gt;R17</title>
<path fill="none" stroke="#365b8d" d="M845.7,-1993.65C852.6,-1996.23 859.97,-1998.84 866.92,-2001 990.15,-2039.34 1322.97,-2133.21 1441.85,-2083 1599.5,-2016.42 1615.94,-1949.75 1710.32,-1807 1726.04,-1783.23 1738.01,-1752.93 1745.47,-1731"/>
<polygon fill="#365b8d" stroke="#365b8d" points="1748.87,-1731.86 1748.67,-1721.26 1742.22,-1729.67 1748.87,-1731.86"/>
<text text-anchor="middle" x="1282.39" y="-2099.8" font-family="Times,serif" font-size="14.00">0.052</text>
</g>
<!-- N11&#45;&gt;R6 -->
<g id="edge45" class="edge">
<title>N11&#45;&gt;R6</title>
<path fill="none" stroke="#365d8d" d="M817.35,-1955.02C820.45,-1835.64 834.81,-1358.13 866.92,-1300 877.06,-1281.64 894.74,-1290.34 904.92,-1272 929.91,-1226.98 893.83,-1083.48 922.92,-1041 997.18,-932.56 1063.18,-945.92 1191.39,-917 1222.68,-909.94 1231.33,-913.11 1263.39,-912 1280.27,-911.41 1285.41,-906.52 1301.39,-912 1310.97,-915.29 1309.8,-922.71 1319.39,-926 1347.33,-935.59 1357.13,-932.9 1385.85,-926 1408.82,-920.48 1432.44,-908.76 1450.97,-897.95"/>
<polygon fill="#365d8d" stroke="#365d8d" points="1452.86,-900.9 1459.62,-892.74 1449.25,-894.9 1452.86,-900.9"/>
<text text-anchor="middle" x="1154.39" y="-931.8" font-family="Times,serif" font-size="14.00">0.0534</text>
</g>
<!-- N11&#45;&gt;R13 -->
<g id="edge46" class="edge">
<title>N11&#45;&gt;R13</title>
<path fill="none" stroke="#3d4c8a" d="M817.02,-1955.1C818.83,-1822.81 828.88,-1244.8 866.92,-1175 876.96,-1156.58 894.92,-1165.44 904.92,-1147 938.11,-1085.75 895.7,-898.13 922.92,-834 941.35,-790.57 960.04,-787.76 994.92,-756 1010.63,-741.7 1019.26,-743.27 1032.92,-727 1096.62,-651.1 1079.69,-610.95 1135.39,-529 1184.09,-457.35 1198.09,-438.93 1263.39,-382 1319.63,-332.95 1332.65,-312.35 1403.85,-290 1513.88,-255.46 1653,-266.57 1717.89,-274.67"/>
<polygon fill="#3d4c8a" stroke="#3d4c8a" points="1717.65,-278.17 1728.02,-275.99 1718.56,-271.23 1717.65,-278.17"/>
<text text-anchor="middle" x="1282.39" y="-385.8" font-family="Times,serif" font-size="14.00">0.0383</text>
</g>
<!-- N11&#45;&gt;R15 -->
<g id="edge47" class="edge">
<title>N11&#45;&gt;R15</title>
<path fill="none" stroke="#20928c" d="M816.91,-1955.03C818.44,-1849.47 830.38,-1467.06 922.92,-1403 1001.42,-1348.66 1122.04,-1369.86 1181.59,-1385.31"/>
<polygon fill="#20928c" stroke="#20928c" points="1180.73,-1388.71 1191.29,-1387.92 1182.55,-1381.95 1180.73,-1388.71"/>
<text text-anchor="middle" x="1013.92" y="-1377.8" font-family="Times,serif" font-size="14.00">0.18</text>
</g>
<!-- N11&#45;&gt;R1 -->
<g id="edge48" class="edge">
<title>N11&#45;&gt;R1</title>
<path fill="none" stroke="#32658e" d="M819.03,-1955.02C824.32,-1898.74 838.95,-1764.99 866.92,-1656 885.53,-1583.49 918.53,-1501.67 936.47,-1459.51"/>
<polygon fill="#32658e" stroke="#32658e" points="939.75,-1460.73 940.48,-1450.16 933.32,-1457.97 939.75,-1460.73"/>
<text text-anchor="middle" x="885.92" y="-1659.8" font-family="Times,serif" font-size="14.00">0.0646</text>
</g>
<!-- N13 -->
<g id="node4" class="node">
<title>N13</title>
<ellipse fill="none" stroke="#32648e" cx="1889.56" cy="-2335" rx="33.47" ry="26.74"/>
<text text-anchor="middle" x="1889.56" y="-2338.8" font-family="Times,serif" font-size="14.00">N_13</text>
<text text-anchor="middle" x="1889.56" y="-2323.8" font-family="Times,serif" font-size="14.00">0.125</text>
</g>
<!-- N13&#45;&gt;R20 -->
<g id="edge49" class="edge">
<title>N13&#45;&gt;R20</title>
<path fill="none" stroke="#481669" d="M1894.88,-2308.28C1914.76,-2185.49 1997.24,-1675.88 2018.02,-1547.47"/>
<polygon fill="#481669" stroke="#481669" points="2021.53,-1547.67 2019.68,-1537.24 2014.62,-1546.55 2021.53,-1547.67"/>
<text text-anchor="middle" x="1959.79" y="-2027.8" font-family="Times,serif" font-size="14.00">0.0148</text>
</g>
<!-- N15 -->
<g id="node5" class="node">
<title>N15</title>
<ellipse fill="none" stroke="#cee11d" cx="547.22" cy="-1112" rx="33.47" ry="26.74"/>
<text text-anchor="middle" x="547.22" y="-1115.8" font-family="Times,serif" font-size="14.00">N_15</text>
<text text-anchor="middle" x="547.22" y="-1100.8" font-family="Times,serif" font-size="14.00">4.69</text>
</g>
<!-- N15&#45;&gt;R3 -->
<g id="edge53" class="edge">
<title>N15&#45;&gt;R3</title>
<path fill="none" stroke="#450659" d="M550.41,-1139.07C554.82,-1183.83 567.17,-1275.33 598.45,-1346 610.18,-1372.5 626.74,-1371.69 636.45,-1399 682.59,-1528.72 681.85,-1968.44 680.79,-2085.94"/>
<polygon fill="#450659" stroke="#450659" points="677.29,-2085.94 680.69,-2095.98 684.29,-2086.01 677.29,-2085.94"/>
<text text-anchor="middle" x="617.45" y="-1402.8" font-family="Times,serif" font-size="14.00">0.0116</text>
</g>
<!-- N15&#45;&gt;R7 -->
<g id="edge54" class="edge">
<title>N15&#45;&gt;R7</title>
<path fill="none" stroke="#228b8d" d="M548.63,-1139.01C551.52,-1305.29 571.91,-2183 680.45,-2183 680.45,-2183 680.45,-2183 886.92,-2183 1144.91,-2183 1388.45,-1935.57 1462.79,-1852.69"/>
<polygon fill="#228b8d" stroke="#228b8d" points="1465.43,-1854.99 1469.45,-1845.19 1460.19,-1850.34 1465.43,-1854.99"/>
<text text-anchor="middle" x="1013.92" y="-2172.8" font-family="Times,serif" font-size="14.00">0.153</text>
</g>
<!-- N15&#45;&gt;R14 -->
<g id="edge55" class="edge">
<title>N15&#45;&gt;R14</title>
<path fill="none" stroke="#440154" d="M548.71,-1139C551.62,-1291.99 567.45,-2046.58 598.45,-2145 612.49,-2189.58 616.44,-2206.81 654.45,-2234 699.12,-2265.95 1080.88,-2341.28 1135.39,-2348 1310.28,-2369.56 1355.64,-2351.89 1531.85,-2353 1548.74,-2353.11 1554.03,-2358.91 1569.85,-2353 1608.58,-2338.53 1684.52,-2263.3 1710.32,-2231 1723.39,-2214.64 1734.5,-2193.84 1742.29,-2177.28"/>
<polygon fill="#440154" stroke="#440154" points="1745.52,-2178.63 1746.48,-2168.08 1739.15,-2175.73 1745.52,-2178.63"/>
<text text-anchor="middle" x="1154.39" y="-2356.8" font-family="Times,serif" font-size="14.00">0.0108</text>
</g>
<!-- N15&#45;&gt;R19 -->
<g id="edge56" class="edge">
<title>N15&#45;&gt;R19</title>
<path fill="none" stroke="#26828e" d="M550.86,-1085.19C556.76,-1030.24 572.53,-907.32 598.45,-875 697.6,-751.34 769.48,-766.73 922.92,-727 1130.49,-673.25 1189.61,-697.45 1403.85,-689 1420.73,-688.33 1426.43,-682.12 1441.85,-689 1452.3,-693.66 1461.3,-702.16 1468.39,-710.79"/>
<polygon fill="#26828e" stroke="#26828e" points="1465.76,-713.11 1474.59,-718.98 1471.34,-708.89 1465.76,-713.11"/>
<text text-anchor="middle" x="1013.92" y="-714.8" font-family="Times,serif" font-size="14.00">0.123</text>
</g>
<!-- N15&#45;&gt;R11 -->
<g id="edge57" class="edge">
<title>N15&#45;&gt;R11</title>
<path fill="none" stroke="#3e4b89" d="M547.42,-1084.85C547.05,-1032.25 551.96,-914.25 598.45,-830 654.21,-728.94 937.3,-595.32 1050.92,-575 1182.15,-551.53 1386.31,-606.2 1441.85,-636 1602.74,-722.33 1707.89,-930.94 1742.13,-1007.34"/>
<polygon fill="#3e4b89" stroke="#3e4b89" points="1739.07,-1009.08 1746.31,-1016.81 1745.47,-1006.25 1739.07,-1009.08"/>
<text text-anchor="middle" x="1154.39" y="-575.8" font-family="Times,serif" font-size="14.00">0.0372</text>
</g>
<!-- N15&#45;&gt;R12 -->
<g id="edge58" class="edge">
<title>N15&#45;&gt;R12</title>
<path fill="none" stroke="#482676" d="M548.46,-1138.95C549.87,-1273.37 558.31,-1871.91 598.45,-2053 616.43,-2134.12 597.36,-2221 680.45,-2221 680.45,-2221 680.45,-2221 1014.92,-2221 1023.73,-2221 1165.64,-2217.2 1173.39,-2213 1233.26,-2180.55 1206.39,-2126.26 1263.39,-2089 1331.34,-2044.57 1381.34,-2104.13 1441.85,-2050 1470.64,-2024.25 1480.61,-1978.99 1484.06,-1949.25"/>
<polygon fill="#482676" stroke="#482676" points="1487.56,-1949.35 1485.05,-1939.06 1480.6,-1948.67 1487.56,-1949.35"/>
<text text-anchor="middle" x="1013.92" y="-2224.8" font-family="Times,serif" font-size="14.00">0.019</text>
</g>
<!-- N15&#45;&gt;R16 -->
<g id="edge60" class="edge">
<title>N15&#45;&gt;R16</title>
<path fill="none" stroke="#218f8d" d="M548.6,-1084.99C550.25,-997.44 558.54,-722.7 598.45,-645 642.62,-559.01 694.42,-568.95 782.45,-529 899.27,-475.98 929.94,-465.66 1050.92,-423 1160.88,-384.23 1190.53,-381.12 1301.39,-345 1355.16,-327.48 1365.3,-304 1421.85,-304 1421.85,-304 1421.85,-304 1622.09,-304 1681.22,-304 1722.63,-370.91 1741.97,-410.52"/>
<polygon fill="#218f8d" stroke="#218f8d" points="1738.98,-412.39 1746.4,-419.94 1745.31,-409.41 1738.98,-412.39"/>
<text text-anchor="middle" x="1154.39" y="-398.8" font-family="Times,serif" font-size="14.00">0.167</text>
</g>
<!-- N15&#45;&gt;R20 -->
<g id="edge61" class="edge">
<title>N15&#45;&gt;R20</title>
<path fill="none" stroke="#23888e" d="M549.06,-1084.93C552.76,-972.5 568.67,-545.79 598.45,-494 642.44,-417.48 701.95,-447.32 764.45,-385 890.87,-258.94 839.8,-144.37 994.92,-56 1056.51,-20.91 1082.5,-38 1153.39,-38 1153.39,-38 1153.39,-38 1890.56,-38 1966.19,-38 2014.24,-1280.41 2021.75,-1488.58"/>
<polygon fill="#23888e" stroke="#23888e" points="2018.26,-1488.88 2022.12,-1498.75 2025.26,-1488.63 2018.26,-1488.88"/>
<text text-anchor="middle" x="1282.39" y="-41.8" font-family="Times,serif" font-size="14.00">0.143</text>
</g>
<!-- N15&#45;&gt;R5 -->
<g id="edge62" class="edge">
<title>N15&#45;&gt;R5</title>
<path fill="none" stroke="#287e8e" d="M548.38,-1138.9C549.48,-1296.5 557.07,-2096.46 598.45,-2197 612.58,-2231.34 623.92,-2237.87 654.45,-2259 756.34,-2329.51 1084.82,-2376.35 1173.39,-2463 1188.2,-2477.49 1174.14,-2494.52 1191.39,-2506 1211.37,-2519.3 1221.51,-2508.41 1245.39,-2506 1455.22,-2484.78 1539.13,-2534.19 1710.32,-2411 1726.41,-2399.42 1737.51,-2380 1744.53,-2363.69"/>
<polygon fill="#287e8e" stroke="#287e8e" points="1747.93,-2364.62 1748.39,-2354.03 1741.43,-2362.02 1747.93,-2364.62"/>
<text text-anchor="middle" x="1154.39" y="-2466.8" font-family="Times,serif" font-size="14.00">0.111</text>
</g>
<!-- N15&#45;&gt;R4 -->
<g id="edge64" class="edge">
<title>N15&#45;&gt;R4</title>
<path fill="none" stroke="#22a785" d="M548.4,-1084.95C549.44,-1007 556.13,-783.83 598.45,-727 687.56,-607.34 778.32,-668.94 904.92,-590 913.76,-584.49 913.74,-579.92 922.92,-575 975.23,-546.98 993.83,-553.19 1050.92,-537 1144.35,-510.5 1167.12,-498.77 1263.39,-486 1342.19,-475.54 1362.95,-464.29 1441.85,-474 1444.39,-474.31 1446.98,-474.72 1449.58,-475.2"/>
<polygon fill="#22a785" stroke="#22a785" points="1449.02,-478.66 1459.53,-477.31 1450.47,-471.81 1449.02,-478.66"/>
<text text-anchor="middle" x="1013.92" y="-553.8" font-family="Times,serif" font-size="14.00">0.288</text>
</g>
<!-- N15&#45;&gt;R8 -->
<g id="edge66" class="edge">
<title>N15&#45;&gt;R8</title>
<path fill="none" stroke="#404588" d="M548.25,-1138.97C548.59,-1281.96 552.67,-1952.44 598.45,-2154 612.66,-2216.54 610.09,-2240.68 654.45,-2287 820.7,-2460.61 1434.01,-2621.59 1672.32,-2653 1689.07,-2655.21 1693.63,-2655.59 1710.32,-2653 1712.98,-2652.59 1715.69,-2652.04 1718.41,-2651.41"/>
<polygon fill="#404588" stroke="#404588" points="1719.37,-2654.77 1728.12,-2648.79 1717.55,-2648.01 1719.37,-2654.77"/>
<text text-anchor="middle" x="1154.39" y="-2538.8" font-family="Times,serif" font-size="14.00">0.0333</text>
</g>
<!-- N15&#45;&gt;R10 -->
<g id="edge68" class="edge">
<title>N15&#45;&gt;R10</title>
<path fill="none" stroke="#1f948c" d="M579.56,-1104.93C606.24,-1099.52 645.66,-1093 680.45,-1093 680.45,-1093 680.45,-1093 950.92,-1093 1025.67,-1093 1049.09,-1086.62 1117.39,-1117 1224.08,-1164.45 1223.45,-1218.44 1319.39,-1285 1347.35,-1304.4 1362.86,-1297.92 1385.85,-1323 1398.75,-1337.07 1388.31,-1350.92 1403.85,-1362 1453.5,-1397.37 1638.39,-1398.87 1717.75,-1397.81"/>
<polygon fill="#1f948c" stroke="#1f948c" points="1718.28,-1401.3 1728.23,-1397.65 1718.17,-1394.3 1718.28,-1401.3"/>
<text text-anchor="middle" x="1154.39" y="-1152.8" font-family="Times,serif" font-size="14.00">0.188</text>
</g>
<!-- N15&#45;&gt;R17 -->
<g id="edge70" class="edge">
<title>N15&#45;&gt;R17</title>
<path fill="none" stroke="#26818e" d="M569.67,-1131.93C648.52,-1205.17 918.04,-1455.42 922.92,-1459 973.3,-1495.91 989.66,-1504.81 1050.92,-1517 1087.02,-1524.19 1681.22,-1559.47 1710.32,-1582 1738.17,-1603.56 1748.4,-1644.52 1752.16,-1672.53"/>
<polygon fill="#26818e" stroke="#26818e" points="1748.69,-1673.02 1753.3,-1682.56 1755.64,-1672.23 1748.69,-1673.02"/>
<text text-anchor="middle" x="1154.39" y="-1531.8" font-family="Times,serif" font-size="14.00">0.119</text>
</g>
<!-- N15&#45;&gt;R6 -->
<g id="edge71" class="edge">
<title>N15&#45;&gt;R6</title>
<path fill="none" stroke="#482172" d="M550.13,-1085.1C556.29,-1021.08 581.47,-865 680.45,-865 680.45,-865 680.45,-865 886.92,-865 1017.67,-865 1046.54,-829.74 1173.39,-798 1229.54,-783.95 1252.48,-743.05 1301.39,-774 1317.18,-783.99 1305.04,-800.02 1319.39,-812 1362.65,-848.13 1390.63,-821.46 1441.85,-845 1445.25,-846.56 1448.66,-848.37 1452.01,-850.32"/>
<polygon fill="#482172" stroke="#482172" points="1450.32,-853.39 1460.66,-855.71 1454.02,-847.45 1450.32,-853.39"/>
<text text-anchor="middle" x="1013.92" y="-857.8" font-family="Times,serif" font-size="14.00">0.0177</text>
</g>
<!-- N15&#45;&gt;R13 -->
<g id="edge72" class="edge">
<title>N15&#45;&gt;R13</title>
<path fill="none" stroke="#27808e" d="M549.16,-1084.85C553.13,-975.98 569.63,-574.5 598.45,-526 613.69,-500.36 628.57,-503.83 654.45,-489 769.81,-422.89 801.7,-411.63 922.92,-357 1141.49,-258.5 1182.12,-152 1421.85,-152 1421.85,-152 1421.85,-152 1622.09,-152 1679.08,-152 1720.85,-214.15 1740.94,-251.84"/>
<polygon fill="#27808e" stroke="#27808e" points="1737.89,-253.55 1745.58,-260.84 1744.11,-250.34 1737.89,-253.55"/>
<text text-anchor="middle" x="1154.39" y="-238.8" font-family="Times,serif" font-size="14.00">0.118</text>
</g>
<!-- N15&#45;&gt;R15 -->
<g id="edge73" class="edge">
<title>N15&#45;&gt;R15</title>
<path fill="none" stroke="#218e8d" d="M579.56,-1119.07C606.24,-1124.48 645.66,-1131 680.45,-1131 680.45,-1131 680.45,-1131 1085.15,-1131 1189.6,-1131 1211.55,-1297.85 1216.16,-1366.76"/>
<polygon fill="#218e8d" stroke="#218e8d" points="1212.68,-1367.17 1216.76,-1376.94 1219.67,-1366.75 1212.68,-1367.17"/>
<text text-anchor="middle" x="885.92" y="-1134.8" font-family="Times,serif" font-size="14.00">0.163</text>
</g>
<!-- N16 -->
<g id="node6" class="node">
<title>N16</title>
<ellipse fill="none" stroke="#c2df23" cx="1352.62" cy="-1140" rx="33.47" ry="26.74"/>
<text text-anchor="middle" x="1352.62" y="-1143.8" font-family="Times,serif" font-size="14.00">N_16</text>
<text text-anchor="middle" x="1352.62" y="-1128.8" font-family="Times,serif" font-size="14.00">4.19</text>
</g>
<!-- N16&#45;&gt;R2 -->
<g id="edge74" class="edge">
<title>N16&#45;&gt;R2</title>
<path fill="none" stroke="#20a486" d="M1350.93,-1112.97C1348.67,-1069.42 1339.34,-982.38 1301.39,-921 1281.07,-888.14 1068.21,-715.73 1032.92,-700 974.89,-674.14 694.5,-554.21 598.45,-683 434.71,-902.54 495.11,-1011.65 457.98,-1283 429.96,-1487.84 417.03,-2153.8 414.47,-2301.72"/>
<polygon fill="#20a486" stroke="#20a486" points="410.97,-2301.77 414.29,-2311.83 417.97,-2301.89 410.97,-2301.77"/>
<text text-anchor="middle" x="885.92" y="-655.8" font-family="Times,serif" font-size="14.00">0.269</text>
</g>
<!-- N16&#45;&gt;R7 -->
<g id="edge75" class="edge">
<title>N16&#45;&gt;R7</title>
<path fill="none" stroke="#433e85" d="M1364.33,-1165.39C1383.27,-1211.44 1422.5,-1312.2 1441.85,-1401 1473.72,-1547.19 1482.69,-1726.86 1485.06,-1796.49"/>
<polygon fill="#433e85" stroke="#433e85" points="1481.56,-1796.81 1485.38,-1806.7 1488.56,-1796.59 1481.56,-1796.81"/>
<text text-anchor="middle" x="1422.85" y="-1404.8" font-family="Times,serif" font-size="14.00">0.0294</text>
</g>
<!-- N16&#45;&gt;R14 -->
<g id="edge76" class="edge">
<title>N16&#45;&gt;R14</title>
<path fill="none" stroke="#20a586" d="M1353.2,-1167.05C1352.51,-1250.05 1354.76,-1507.95 1403.85,-1714 1419.39,-1779.19 1407.96,-1811.6 1459.85,-1854 1498.33,-1885.44 1524.84,-1852.96 1569.85,-1874 1643.46,-1908.4 1666.21,-1922.77 1710.32,-1991 1736.27,-2031.13 1747.11,-2086.55 1751.49,-2119.97"/>
<polygon fill="#20a586" stroke="#20a586" points="1748.03,-2120.49 1752.7,-2130 1754.98,-2119.65 1748.03,-2120.49"/>
<text text-anchor="middle" x="1550.85" y="-1877.8" font-family="Times,serif" font-size="14.00">0.274</text>
</g>
<!-- N16&#45;&gt;R18 -->
<g id="edge77" class="edge">
<title>N16&#45;&gt;R18</title>
<path fill="none" stroke="#27ad81" d="M1351.14,-1112.94C1349.27,-1063.79 1340.6,-957.67 1301.39,-879 1284.82,-845.77 1272.02,-842.87 1245.39,-817 985.78,-564.86 931.01,-436.89 580.45,-347 475.63,-320.12 416.66,-273.79 336.98,-347 179.01,-492.14 162.69,-2151.86 161.15,-2392.88"/>
<polygon fill="#27ad81" stroke="#27ad81" points="157.65,-2392.96 161.09,-2402.98 164.65,-2393 157.65,-2392.96"/>
<text text-anchor="middle" x="745.45" y="-411.8" font-family="Times,serif" font-size="14.00">0.338</text>
</g>
<!-- N16&#45;&gt;R19 -->
<g id="edge78" class="edge">
<title>N16&#45;&gt;R19</title>
<path fill="none" stroke="#36b878" d="M1358.39,-1113.45C1369.08,-1054.54 1394.72,-916.57 1403.85,-897 1415.36,-872.34 1428.25,-872.57 1441.85,-849 1457.11,-822.57 1469.37,-789.83 1477.04,-766.78"/>
<polygon fill="#36b878" stroke="#36b878" points="1480.38,-767.83 1480.13,-757.23 1473.72,-765.67 1480.38,-767.83"/>
<text text-anchor="middle" x="1422.85" y="-900.8" font-family="Times,serif" font-size="14.00">0.432</text>
</g>
<!-- N16&#45;&gt;R11 -->
<g id="edge80" class="edge">
<title>N16&#45;&gt;R11</title>
<path fill="none" stroke="#37598c" d="M1378.44,-1123.04C1396.17,-1110.88 1420.56,-1094.05 1441.85,-1079 1449.91,-1073.3 1451.13,-1070.61 1459.85,-1066 1489.94,-1050.11 1498.4,-1046.17 1531.85,-1040 1596.57,-1028.07 1673.66,-1030.25 1718.01,-1033.04"/>
<polygon fill="#37598c" stroke="#37598c" points="1717.8,-1036.53 1728.02,-1033.71 1718.28,-1029.55 1717.8,-1036.53"/>
<text text-anchor="middle" x="1550.85" y="-1043.8" font-family="Times,serif" font-size="14.00">0.0497</text>
</g>
<!-- N16&#45;&gt;R12 -->
<g id="edge81" class="edge">
<title>N16&#45;&gt;R12</title>
<path fill="none" stroke="#2b758e" d="M1355.99,-1167.12C1361.23,-1222.39 1375.66,-1351.78 1403.85,-1457 1416.05,-1502.52 1431.87,-1509.94 1441.85,-1556 1469.96,-1685.68 1431.18,-1724.45 1459.85,-1854 1462.65,-1866.65 1467.54,-1880.05 1472.33,-1891.44"/>
<polygon fill="#2b758e" stroke="#2b758e" points="1469.24,-1893.11 1476.46,-1900.87 1475.65,-1890.31 1469.24,-1893.11"/>
<text text-anchor="middle" x="1422.85" y="-1559.8" font-family="Times,serif" font-size="14.00">0.0921</text>
</g>
<!-- N16&#45;&gt;R16 -->
<g id="edge82" class="edge">
<title>N16&#45;&gt;R16</title>
<path fill="none" stroke="#3b518b" d="M1370.29,-1117.11C1379.53,-1105.14 1391.61,-1090.61 1403.85,-1079 1419.08,-1064.57 1427.59,-1066.38 1441.85,-1051 1615.4,-863.8 1717.14,-561.97 1745.86,-467.92"/>
<polygon fill="#3b518b" stroke="#3b518b" points="1749.24,-468.83 1748.78,-458.24 1742.54,-466.8 1749.24,-468.83"/>
<text text-anchor="middle" x="1550.85" y="-935.8" font-family="Times,serif" font-size="14.00">0.0424</text>
</g>
<!-- N16&#45;&gt;R20 -->
<g id="edge84" class="edge">
<title>N16&#45;&gt;R20</title>
<path fill="none" stroke="#1f9f88" d="M1381.03,-1154.04C1388.31,-1157.35 1396.26,-1160.61 1403.85,-1163 1535.93,-1204.59 1587,-1156.04 1710.32,-1219 1843.53,-1287.01 1958.63,-1430.22 2003.14,-1490.42"/>
<polygon fill="#1f9f88" stroke="#1f9f88" points="2000.46,-1492.68 2009.19,-1498.68 2006.11,-1488.55 2000.46,-1492.68"/>
<text text-anchor="middle" x="1691.32" y="-1222.8" font-family="Times,serif" font-size="14.00">0.243</text>
</g>
<!-- N16&#45;&gt;R4 -->
<g id="edge85" class="edge">
<title>N16&#45;&gt;R4</title>
<path fill="none" stroke="#1f988b" d="M1357.27,-1113.34C1364.79,-1059.55 1383.05,-934.26 1403.85,-830 1427.39,-712.11 1462.73,-573.33 1478.17,-514.13"/>
<polygon fill="#1f988b" stroke="#1f988b" points="1481.59,-514.9 1480.73,-504.34 1474.82,-513.13 1481.59,-514.9"/>
<text text-anchor="middle" x="1422.85" y="-833.8" font-family="Times,serif" font-size="14.00">0.203</text>
</g>
<!-- N16&#45;&gt;R10 -->
<g id="edge87" class="edge">
<title>N16&#45;&gt;R10</title>
<path fill="none" stroke="#20a387" d="M1367.63,-1164.06C1376.41,-1177 1388.89,-1192.08 1403.85,-1201 1523.3,-1272.2 1608.4,-1169.4 1710.32,-1264 1739.34,-1290.94 1749.25,-1337.4 1752.61,-1367.66"/>
<polygon fill="#20a387" stroke="#20a387" points="1749.13,-1368.01 1753.55,-1377.63 1756.1,-1367.35 1749.13,-1368.01"/>
<text text-anchor="middle" x="1550.85" y="-1230.8" font-family="Times,serif" font-size="14.00">0.264</text>
</g>
<!-- N16&#45;&gt;R17 -->
<g id="edge88" class="edge">
<title>N16&#45;&gt;R17</title>
<path fill="none" stroke="#433d85" d="M1366.65,-1164.74C1376.13,-1181.94 1389.72,-1205.08 1403.85,-1224 1433.94,-1264.29 1685.37,-1513.34 1710.32,-1557 1731.46,-1593.98 1743.46,-1642.18 1749.43,-1672.62"/>
<polygon fill="#433d85" stroke="#433d85" points="1746.01,-1673.41 1751.29,-1682.6 1752.89,-1672.13 1746.01,-1673.41"/>
<text text-anchor="middle" x="1550.85" y="-1403.8" font-family="Times,serif" font-size="14.00">0.029</text>
</g>
<!-- N16&#45;&gt;R6 -->
<g id="edge90" class="edge">
<title>N16&#45;&gt;R6</title>
<path fill="none" stroke="#24aa83" d="M1358.76,-1113.25C1367.34,-1070.91 1385.44,-991.02 1403.85,-969 1415.97,-954.51 1428.9,-963.74 1441.85,-950 1455.79,-935.22 1449.48,-925.46 1459.85,-908 1460.89,-906.26 1462,-904.51 1463.17,-902.77"/>
<polygon fill="#24aa83" stroke="#24aa83" points="1466.28,-904.44 1469.3,-894.29 1460.61,-900.35 1466.28,-904.44"/>
<text text-anchor="middle" x="1422.85" y="-972.8" font-family="Times,serif" font-size="14.00">0.308</text>
</g>
<!-- N16&#45;&gt;R15 -->
<g id="edge93" class="edge">
<title>N16&#45;&gt;R15</title>
<path fill="none" stroke="#375a8c" d="M1349,-1166.82C1343.24,-1220.47 1327.86,-1338.38 1301.39,-1368 1289.79,-1380.97 1271.94,-1387.94 1255.84,-1391.68"/>
<polygon fill="#375a8c" stroke="#375a8c" points="1254.74,-1388.33 1245.61,-1393.7 1256.09,-1395.2 1254.74,-1388.33"/>
<text text-anchor="middle" x="1282.39" y="-1393.8" font-family="Times,serif" font-size="14.00">0.0502</text>
</g>
<!-- N16&#45;&gt;R1 -->
<g id="edge94" class="edge">
<title>N16&#45;&gt;R1</title>
<path fill="none" stroke="#37598c" d="M1327.26,-1157.8C1273.97,-1196.74 1142.97,-1292.35 1032.92,-1372 1017.36,-1383.26 1000.11,-1395.68 985.46,-1406.21"/>
<polygon fill="#37598c" stroke="#37598c" points="983.24,-1403.49 977.17,-1412.17 987.33,-1409.18 983.24,-1403.49"/>
<text text-anchor="middle" x="1154.39" y="-1300.8" font-family="Times,serif" font-size="14.00">0.0499</text>
</g>
<!-- N18 -->
<g id="node7" class="node">
<title>N18</title>
<ellipse fill="none" stroke="#56c666" cx="1621.09" cy="-1796" rx="33.47" ry="26.74"/>
<text text-anchor="middle" x="1621.09" y="-1799.8" font-family="Times,serif" font-size="14.00">N_18</text>
<text text-anchor="middle" x="1621.09" y="-1784.8" font-family="Times,serif" font-size="14.00">1.52</text>
</g>
<!-- N18&#45;&gt;R2 -->
<g id="edge95" class="edge">
<title>N18&#45;&gt;R2</title>
<path fill="none" stroke="#2a778e" d="M1617.16,-1822.99C1601.57,-1950.76 1515.77,-2492.31 1173.39,-2582 1070.73,-2608.89 811.93,-2496.52 708.45,-2473 597.76,-2447.84 547.6,-2492.68 457.98,-2423 438.01,-2407.47 426.63,-2380.63 420.47,-2359.93"/>
<polygon fill="#2a778e" stroke="#2a778e" points="423.78,-2358.77 417.78,-2350.05 417.03,-2360.62 423.78,-2358.77"/>
<text text-anchor="middle" x="1013.92" y="-2575.8" font-family="Times,serif" font-size="14.00">0.0967</text>
</g>
<!-- N18&#45;&gt;R3 -->
<g id="edge96" class="edge">
<title>N18&#45;&gt;R3</title>
<path fill="none" stroke="#460a5d" d="M1616.22,-1822.69C1604.39,-1894.22 1561.9,-2091.5 1441.85,-2191 1391.97,-2232.35 1365.59,-2221.25 1301.39,-2230 1284.65,-2232.28 1280.2,-2231.55 1263.39,-2230 1142.53,-2218.84 843.86,-2160.77 726.45,-2130 723.83,-2129.31 721.15,-2128.55 718.45,-2127.74"/>
<polygon fill="#460a5d" stroke="#460a5d" points="719.38,-2124.36 708.79,-2124.67 717.26,-2131.03 719.38,-2124.36"/>
<text text-anchor="middle" x="1154.39" y="-2222.8" font-family="Times,serif" font-size="14.00">0.0124</text>
</g>
<!-- N18&#45;&gt;R7 -->
<g id="edge98" class="edge">
<title>N18&#45;&gt;R7</title>
<path fill="none" stroke="#31688e" d="M1588.35,-1790.9C1571.23,-1789.32 1549.96,-1789.26 1531.85,-1795 1527.2,-1796.47 1522.61,-1798.64 1518.26,-1801.15"/>
<polygon fill="#31688e" stroke="#31688e" points="1516.2,-1798.31 1509.7,-1806.68 1520,-1804.19 1516.2,-1798.31"/>
<text text-anchor="middle" x="1550.85" y="-1798.8" font-family="Times,serif" font-size="14.00">0.0678</text>
</g>
<!-- N18&#45;&gt;R14 -->
<g id="edge99" class="edge">
<title>N18&#45;&gt;R14</title>
<path fill="none" stroke="#34618d" d="M1644.79,-1815.43C1665.32,-1834.35 1694.65,-1865 1710.32,-1898 1745.61,-1972.31 1752.85,-2071.09 1754.17,-2119.59"/>
<polygon fill="#34618d" stroke="#34618d" points="1750.67,-2119.77 1754.38,-2129.7 1757.67,-2119.63 1750.67,-2119.77"/>
<text text-anchor="middle" x="1691.32" y="-1901.8" font-family="Times,serif" font-size="14.00">0.059</text>
</g>
<!-- N18&#45;&gt;R18 -->
<g id="edge100" class="edge">
<title>N18&#45;&gt;R18</title>
<path fill="none" stroke="#46317e" d="M1617.23,-1822.78C1611.19,-1880.03 1596.93,-2018.59 1587.85,-2135 1582.74,-2200.7 1598.33,-2371.57 1569.85,-2431 1436,-2710.36 1281.45,-2707.28 994.92,-2825 883.87,-2870.63 866.51,-2931 746.45,-2931 288.99,-2931 288.99,-2931 288.99,-2931 189.34,-2931 166.54,-2559.39 162.01,-2451.21"/>
<polygon fill="#46317e" stroke="#46317e" points="165.5,-2450.88 161.61,-2441.02 158.51,-2451.16 165.5,-2450.88"/>
<text text-anchor="middle" x="885.92" y="-2902.8" font-family="Times,serif" font-size="14.00">0.0234</text>
</g>
<!-- N18&#45;&gt;R11 -->
<g id="edge101" class="edge">
<title>N18&#45;&gt;R11</title>
<path fill="none" stroke="#34608d" d="M1625.32,-1769C1632.02,-1715.14 1648.8,-1590.72 1672.32,-1488 1685.57,-1430.15 1697.85,-1418.02 1710.32,-1360 1733.42,-1252.6 1746.74,-1122.42 1751.87,-1065.28"/>
<polygon fill="#34608d" stroke="#34608d" points="1755.37,-1065.44 1752.76,-1055.17 1748.39,-1064.82 1755.37,-1065.44"/>
<text text-anchor="middle" x="1691.32" y="-1491.8" font-family="Times,serif" font-size="14.00">0.0575</text>
</g>
<!-- N18&#45;&gt;R16 -->
<g id="edge103" class="edge">
<title>N18&#45;&gt;R16</title>
<path fill="none" stroke="#30698e" d="M1622.76,-1768.94C1625.01,-1697.84 1634.48,-1500.28 1672.32,-1341 1683.51,-1293.93 1700.44,-1286.36 1710.32,-1239 1718.34,-1200.6 1746.41,-608.39 1752.95,-468.47"/>
<polygon fill="#30698e" stroke="#30698e" points="1756.46,-468.27 1753.43,-458.11 1749.47,-467.94 1756.46,-468.27"/>
<text text-anchor="middle" x="1691.32" y="-1344.8" font-family="Times,serif" font-size="14.00">0.07</text>
</g>
<!-- N18&#45;&gt;R5 -->
<g id="edge105" class="edge">
<title>N18&#45;&gt;R5</title>
<path fill="none" stroke="#1fa187" d="M1633.21,-1821.2C1652.06,-1865 1690.23,-1958.42 1710.32,-2041 1724.74,-2100.24 1719.37,-2116.69 1728.32,-2177 1735,-2221.96 1743.75,-2273.95 1749.21,-2305.64"/>
<polygon fill="#1fa187" stroke="#1fa187" points="1745.77,-2306.31 1750.92,-2315.57 1752.67,-2305.12 1745.77,-2306.31"/>
<text text-anchor="middle" x="1691.32" y="-2044.8" font-family="Times,serif" font-size="14.00">0.253</text>
</g>
<!-- N18&#45;&gt;R8 -->
<g id="edge106" class="edge">
<title>N18&#45;&gt;R8</title>
<path fill="none" stroke="#31688e" d="M1624.57,-1823.13C1630.86,-1890.08 1648.63,-2068.45 1672.32,-2216 1685.84,-2300.17 1694.03,-2320.33 1710.32,-2404 1724.72,-2477.96 1740.82,-2565.2 1748.97,-2609.69"/>
<polygon fill="#31688e" stroke="#31688e" points="1745.58,-2610.58 1750.82,-2619.79 1752.47,-2609.32 1745.58,-2610.58"/>
<text text-anchor="middle" x="1691.32" y="-2407.8" font-family="Times,serif" font-size="14.00">0.0677</text>
</g>
<!-- N18&#45;&gt;R10 -->
<g id="edge108" class="edge">
<title>N18&#45;&gt;R10</title>
<path fill="none" stroke="#48196b" d="M1627.75,-1769.5C1636.08,-1731.69 1652.8,-1660.27 1672.32,-1601 1686.42,-1558.2 1693.51,-1548.81 1710.32,-1507 1721.44,-1479.36 1734.06,-1447.79 1742.92,-1425.58"/>
<polygon fill="#48196b" stroke="#48196b" points="1746.26,-1426.67 1746.71,-1416.09 1739.76,-1424.08 1746.26,-1426.67"/>
<text text-anchor="middle" x="1691.32" y="-1604.8" font-family="Times,serif" font-size="14.00">0.0154</text>
</g>
<!-- N18&#45;&gt;R17 -->
<g id="edge110" class="edge">
<title>N18&#45;&gt;R17</title>
<path fill="none" stroke="#365c8d" d="M1654.34,-1792.09C1672.23,-1788.63 1694.07,-1782.14 1710.32,-1770 1723.96,-1759.81 1734.54,-1744.05 1741.9,-1730.27"/>
<polygon fill="#365c8d" stroke="#365c8d" points="1745.13,-1731.64 1746.49,-1721.14 1738.87,-1728.51 1745.13,-1731.64"/>
<text text-anchor="middle" x="1691.32" y="-1791.8" font-family="Times,serif" font-size="14.00">0.0525</text>
</g>
<!-- N18&#45;&gt;R13 -->
<g id="edge111" class="edge">
<title>N18&#45;&gt;R13</title>
<path fill="none" stroke="#1e9c8a" d="M1622.94,-1769C1627.64,-1627.27 1653.11,-955.06 1728.32,-411 1733.2,-375.72 1741.59,-335.61 1747.51,-309.17"/>
<polygon fill="#1e9c8a" stroke="#1e9c8a" points="1750.93,-309.94 1749.73,-299.41 1744.1,-308.39 1750.93,-309.94"/>
<text text-anchor="middle" x="1691.32" y="-908.8" font-family="Times,serif" font-size="14.00">0.223</text>
</g>
<!-- N18&#45;&gt;R15 -->
<g id="edge113" class="edge">
<title>N18&#45;&gt;R15</title>
<path fill="none" stroke="#20938c" d="M1606.72,-1771.66C1597.77,-1757.02 1584.88,-1738.81 1569.85,-1726 1548.68,-1707.95 1538.88,-1710.16 1513.85,-1698 1482.03,-1682.53 1474.48,-1677.71 1441.85,-1664 1402.87,-1647.62 1291.13,-1629.91 1263.39,-1598 1241.18,-1572.45 1227.81,-1474.85 1222.31,-1425.28"/>
<polygon fill="#20938c" stroke="#20938c" points="1225.77,-1424.75 1221.23,-1415.19 1218.81,-1425.5 1225.77,-1424.75"/>
<text text-anchor="middle" x="1422.85" y="-1667.8" font-family="Times,serif" font-size="14.00">0.184</text>
</g>
<!-- N18&#45;&gt;R1 -->
<g id="edge114" class="edge">
<title>N18&#45;&gt;R1</title>
<path fill="none" stroke="#450457" d="M1588.85,-1789.07C1582.58,-1787.88 1576.03,-1786.78 1569.85,-1786 1434.52,-1768.86 1388.7,-1822.92 1263.39,-1769 1113.7,-1704.59 1004.23,-1528.35 965.87,-1459.29"/>
<polygon fill="#450457" stroke="#450457" points="968.81,-1457.37 960.94,-1450.28 962.67,-1460.73 968.81,-1457.37"/>
<text text-anchor="middle" x="1282.39" y="-1786.8" font-family="Times,serif" font-size="14.00">0.0112</text>
</g>
<!-- N20 -->
<g id="node8" class="node">
<title>N20</title>
<ellipse fill="none" stroke="#49c16e" cx="1084.15" cy="-1481" rx="33.47" ry="26.74"/>
<text text-anchor="middle" x="1084.15" y="-1484.8" font-family="Times,serif" font-size="14.00">N_20</text>
<text text-anchor="middle" x="1084.15" y="-1469.8" font-family="Times,serif" font-size="14.00">1.3</text>
</g>
<!-- N20&#45;&gt;R2 -->
<g id="edge115" class="edge">
<title>N20&#45;&gt;R2</title>
<path fill="none" stroke="#2a778e" d="M1050.84,-1483.29C1024.08,-1484.98 985.05,-1487 950.92,-1487 546.22,-1487 546.22,-1487 546.22,-1487 461.93,-1487 423.07,-2152.43 415.42,-2301.58"/>
<polygon fill="#2a778e" stroke="#2a778e" points="411.91,-2301.62 414.9,-2311.79 418.9,-2301.98 411.91,-2301.62"/>
<text text-anchor="middle" x="745.45" y="-1490.8" font-family="Times,serif" font-size="14.00">0.0959</text>
</g>
<!-- N20&#45;&gt;R3 -->
<g id="edge116" class="edge">
<title>N20&#45;&gt;R3</title>
<path fill="none" stroke="#2d708e" d="M1063.29,-1502.04C1011.34,-1557.12 874.86,-1702.13 866.92,-1714 780.79,-1842.74 715.67,-2018.16 692.08,-2086.3"/>
<polygon fill="#2d708e" stroke="#2d708e" points="688.71,-2085.33 688.78,-2095.92 695.33,-2087.6 688.71,-2085.33"/>
<text text-anchor="middle" x="885.92" y="-1717.8" font-family="Times,serif" font-size="14.00">0.0814</text>
</g>
<!-- N20&#45;&gt;R7 -->
<g id="edge117" class="edge">
<title>N20&#45;&gt;R7</title>
<path fill="none" stroke="#2c738e" d="M1093.76,-1507C1101.95,-1528.99 1115.93,-1560.42 1135.39,-1583 1183.95,-1639.38 1372.31,-1757.03 1451,-1804.98"/>
<polygon fill="#2c738e" stroke="#2c738e" points="1449.24,-1808 1459.6,-1810.21 1452.87,-1802.02 1449.24,-1808"/>
<text text-anchor="middle" x="1282.39" y="-1713.8" font-family="Times,serif" font-size="14.00">0.0879</text>
</g>
<!-- N20&#45;&gt;R14 -->
<g id="edge119" class="edge">
<title>N20&#45;&gt;R14</title>
<path fill="none" stroke="#472c7b" d="M1086.13,-1507.92C1089.12,-1576.54 1100.19,-1755.86 1135.39,-1802 1183.34,-1864.87 1385.57,-1920.92 1459.85,-1948 1568.56,-1987.62 1626.48,-1939.26 1710.32,-2019 1738.16,-2045.47 1748.38,-2090.15 1752.14,-2119.61"/>
<polygon fill="#472c7b" stroke="#472c7b" points="1748.68,-2120.16 1753.25,-2129.72 1755.64,-2119.39 1748.68,-2120.16"/>
<text text-anchor="middle" x="1422.85" y="-1945.8" font-family="Times,serif" font-size="14.00">0.0214</text>
</g>
<!-- N20&#45;&gt;R19 -->
<g id="edge121" class="edge">
<title>N20&#45;&gt;R19</title>
<path fill="none" stroke="#46337f" d="M1093.88,-1454.87C1102.51,-1430.94 1117.06,-1395.07 1135.39,-1367 1174.95,-1306.42 1215.21,-1312.76 1245.39,-1247 1273.58,-1185.57 1226.77,-1152.81 1263.39,-1096 1274.08,-1079.41 1287.95,-1087.46 1301.39,-1073 1308.43,-1065.42 1381.89,-916.56 1385.85,-907 1395.72,-883.25 1389.79,-873.53 1403.85,-852 1416.25,-833.03 1427.75,-835.74 1441.85,-818 1454.36,-802.28 1465.26,-782.53 1473.09,-766.58"/>
<polygon fill="#46337f" stroke="#46337f" points="1476.41,-767.75 1477.55,-757.21 1470.09,-764.73 1476.41,-767.75"/>
<text text-anchor="middle" x="1282.39" y="-1099.8" font-family="Times,serif" font-size="14.00">0.0242</text>
</g>
<!-- N20&#45;&gt;R11 -->
<g id="edge122" class="edge">
<title>N20&#45;&gt;R11</title>
<path fill="none" stroke="#37598c" d="M1097.58,-1456.32C1106.87,-1438.94 1120.5,-1415.55 1135.39,-1397 1145.91,-1383.88 1235.98,-1306.95 1245.39,-1293 1295.82,-1218.21 1278.1,-1184.21 1319.39,-1104 1344.15,-1055.89 1364.14,-1051.56 1385.85,-1002 1398.92,-972.18 1378.16,-950.99 1403.85,-931 1429.29,-911.21 1634.69,-988.8 1718.7,-1021.8"/>
<polygon fill="#37598c" stroke="#37598c" points="1717.51,-1025.09 1728.09,-1025.5 1720.07,-1018.58 1717.51,-1025.09"/>
<text text-anchor="middle" x="1422.85" y="-934.8" font-family="Times,serif" font-size="14.00">0.0498</text>
</g>
<!-- N20&#45;&gt;R12 -->
<g id="edge123" class="edge">
<title>N20&#45;&gt;R12</title>
<path fill="none" stroke="#31678e" d="M1091.1,-1507.41C1098.35,-1535.76 1112.54,-1581.27 1135.39,-1615 1154.27,-1642.87 1166.27,-1643.58 1191.39,-1666 1223.11,-1694.32 1229.55,-1703.25 1263.39,-1729 1279.48,-1741.24 1286.34,-1740.5 1301.39,-1754 1354.61,-1801.73 1348.12,-1833.23 1403.85,-1878 1417.66,-1889.09 1434.87,-1898.45 1449.95,-1905.49"/>
<polygon fill="#31678e" stroke="#31678e" points="1448.94,-1908.88 1459.5,-1909.78 1451.81,-1902.49 1448.94,-1908.88"/>
<text text-anchor="middle" x="1282.39" y="-1757.8" font-family="Times,serif" font-size="14.00">0.067</text>
</g>
<!-- N20&#45;&gt;R16 -->
<g id="edge124" class="edge">
<title>N20&#45;&gt;R16</title>
<path fill="none" stroke="#46095c" d="M1087.82,-1454.16C1094.04,-1395.69 1110.82,-1258.93 1135.39,-1220 1146.58,-1202.26 1160.45,-1208.52 1173.39,-1192 1237.77,-1109.8 1199,-1057.2 1263.39,-975 1276.32,-958.48 1290.25,-964.78 1301.39,-947 1324.66,-909.84 1307.11,-892.09 1319.39,-850 1347.44,-753.82 1338.09,-716.59 1403.85,-641 1450.14,-587.8 1639.5,-493.75 1718.96,-455.69"/>
<polygon fill="#46095c" stroke="#46095c" points="1720.58,-458.79 1728.09,-451.33 1717.56,-452.48 1720.58,-458.79"/>
<text text-anchor="middle" x="1422.85" y="-644.8" font-family="Times,serif" font-size="14.00">0.0121</text>
</g>
<!-- N20&#45;&gt;R20 -->
<g id="edge125" class="edge">
<title>N20&#45;&gt;R20</title>
<path fill="none" stroke="#472a79" d="M1117.29,-1483.94C1123.3,-1484.38 1129.53,-1484.77 1135.39,-1485 1152.26,-1485.67 1156.5,-1485.11 1173.39,-1485 1275.82,-1484.33 1301.42,-1482.67 1403.85,-1482 1420.74,-1481.89 1424.99,-1481.2 1441.85,-1482 1544.63,-1486.89 1569.66,-1497.05 1672.32,-1504 1786.61,-1511.73 1922.18,-1515.66 1986.04,-1517.2"/>
<polygon fill="#472a79" stroke="#472a79" points="1986.31,-1520.71 1996.39,-1517.44 1986.47,-1513.71 1986.31,-1520.71"/>
<text text-anchor="middle" x="1550.85" y="-1497.8" font-family="Times,serif" font-size="14.00">0.0206</text>
</g>
<!-- N20&#45;&gt;R5 -->
<g id="edge127" class="edge">
<title>N20&#45;&gt;R5</title>
<path fill="none" stroke="#47307d" d="M1084.66,-1508.15C1083.26,-1608.64 1082.38,-1958.65 1135.39,-2054 1161.19,-2100.42 1481.29,-2304.76 1531.85,-2321 1594.96,-2341.26 1673.2,-2340.68 1718.08,-2338.07"/>
<polygon fill="#47307d" stroke="#47307d" points="1718.46,-2341.56 1728.21,-2337.42 1718,-2334.57 1718.46,-2341.56"/>
<text text-anchor="middle" x="1422.85" y="-2275.8" font-family="Times,serif" font-size="14.00">0.0228</text>
</g>
<!-- N20&#45;&gt;R9 -->
<g id="edge128" class="edge">
<title>N20&#45;&gt;R9</title>
<path fill="none" stroke="#32668e" d="M1085.06,-1508C1085.14,-1602.64 1089,-1927.83 1135.39,-2191 1144.33,-2241.76 1188.89,-2386.93 1208.31,-2449.13"/>
<polygon fill="#32668e" stroke="#32668e" points="1204.98,-2450.22 1211.31,-2458.72 1211.66,-2448.13 1204.98,-2450.22"/>
<text text-anchor="middle" x="1154.39" y="-2332.8" font-family="Times,serif" font-size="14.00">0.0648</text>
</g>
<!-- N20&#45;&gt;R4 -->
<g id="edge130" class="edge">
<title>N20&#45;&gt;R4</title>
<path fill="none" stroke="#414287" d="M1091.69,-1454.73C1098.29,-1428.11 1108.72,-1385.73 1117.39,-1349 1125.66,-1313.95 1120.15,-1302.63 1135.39,-1270 1147.2,-1244.71 1159.71,-1244.33 1173.39,-1220 1226.98,-1124.68 1205.21,-1083.6 1263.39,-991 1276.6,-969.96 1290.37,-972.27 1301.39,-950 1322.19,-907.95 1309.61,-891.88 1319.39,-846 1327.34,-808.67 1377.97,-541.06 1403.85,-513 1415.65,-500.21 1433.53,-493.26 1449.58,-489.49"/>
<polygon fill="#414287" stroke="#414287" points="1450.67,-492.84 1459.79,-487.44 1449.29,-485.98 1450.67,-492.84"/>
<text text-anchor="middle" x="1282.39" y="-994.8" font-family="Times,serif" font-size="14.00">0.0318</text>
</g>
<!-- N20&#45;&gt;R10 -->
<g id="edge131" class="edge">
<title>N20&#45;&gt;R10</title>
<path fill="none" stroke="#3f4989" d="M1116.91,-1475.88C1161.89,-1468.74 1246.76,-1455.7 1319.39,-1447 1356.83,-1442.51 1366.29,-1442.32 1403.85,-1439 1452.72,-1434.69 1465.09,-1435.34 1513.85,-1430 1586.49,-1422.05 1671.04,-1409.73 1718.05,-1402.61"/>
<polygon fill="#3f4989" stroke="#3f4989" points="1718.69,-1406.05 1728.05,-1401.09 1717.64,-1399.13 1718.69,-1406.05"/>
<text text-anchor="middle" x="1422.85" y="-1442.8" font-family="Times,serif" font-size="14.00">0.0359</text>
</g>
<!-- N20&#45;&gt;R17 -->
<g id="edge132" class="edge">
<title>N20&#45;&gt;R17</title>
<path fill="none" stroke="#3f4788" d="M1108.12,-1499.99C1116.34,-1506.08 1125.92,-1512.43 1135.39,-1517 1158.69,-1528.26 1166.28,-1526.71 1191.39,-1533 1248.61,-1547.33 1660.44,-1613.52 1710.32,-1645 1721.8,-1652.25 1731.46,-1663.6 1738.78,-1674.28"/>
<polygon fill="#3f4788" stroke="#3f4788" points="1736.01,-1676.45 1744.36,-1682.98 1741.91,-1672.67 1736.01,-1676.45"/>
<text text-anchor="middle" x="1422.85" y="-1584.8" font-family="Times,serif" font-size="14.00">0.0346</text>
</g>
<!-- N20&#45;&gt;R13 -->
<g id="edge134" class="edge">
<title>N20&#45;&gt;R13</title>
<path fill="none" stroke="#375b8d" d="M1085.22,-1453.78C1086.32,-1400.34 1093.64,-1279 1135.39,-1188 1146.44,-1163.9 1162.87,-1166.34 1173.39,-1142 1198.79,-1083.2 1175.97,-1061.17 1191.39,-999 1230.16,-842.69 1225.82,-791.08 1319.39,-660 1347.71,-620.32 1365.08,-619.56 1403.85,-590 1451.31,-553.82 1467.84,-550.99 1513.85,-513 1597.58,-443.87 1687.15,-351.58 1729.46,-306.73"/>
<polygon fill="#375b8d" stroke="#375b8d" points="1732.25,-308.86 1736.55,-299.18 1727.15,-304.06 1732.25,-308.86"/>
<text text-anchor="middle" x="1422.85" y="-593.8" font-family="Times,serif" font-size="14.00">0.0513</text>
</g>
<!-- N20&#45;&gt;R15 -->
<g id="edge135" class="edge">
<title>N20&#45;&gt;R15</title>
<path fill="none" stroke="#2f6a8e" d="M1098.06,-1456.49C1106.76,-1442.28 1119.55,-1425.24 1135.39,-1415 1148.95,-1406.23 1166.08,-1401.49 1181.17,-1398.94"/>
<polygon fill="#2f6a8e" stroke="#2f6a8e" points="1181.83,-1402.38 1191.23,-1397.5 1180.83,-1395.45 1181.83,-1402.38"/>
<text text-anchor="middle" x="1154.39" y="-1418.8" font-family="Times,serif" font-size="14.00">0.0719</text>
</g>
<!-- N20&#45;&gt;R1 -->
<g id="edge137" class="edge">
<title>N20&#45;&gt;R1</title>
<path fill="none" stroke="#423f86" d="M1068.35,-1457.09C1059.64,-1445.37 1047.47,-1432.42 1032.92,-1426 1018.85,-1419.79 1002.08,-1419.7 987.39,-1421.68"/>
<polygon fill="#423f86" stroke="#423f86" points="986.4,-1418.3 977.12,-1423.42 987.57,-1425.2 986.4,-1418.3"/>
<text text-anchor="middle" x="1013.92" y="-1429.8" font-family="Times,serif" font-size="14.00">0.0301</text>
</g>
<!-- R2&#45;&gt;N2 -->
<g id="edge1" class="edge">
<title>R2&#45;&gt;N2</title>
<path fill="none" stroke="#3bbb75" d="M385.94,-2342.41C368.41,-2350.09 345.09,-2360.3 325.95,-2368.69"/>
<polygon fill="#3bbb75" stroke="#3bbb75" points="324.41,-2365.54 316.65,-2372.76 327.21,-2371.95 324.41,-2365.54"/>
<text text-anchor="middle" x="352.48" y="-2367.8" font-family="Times,serif" font-size="14.00">0.467</text>
</g>
<!-- R2&#45;&gt;N15 -->
<g id="edge52" class="edge">
<title>R2&#45;&gt;N15</title>
<path fill="none" stroke="#1f9e89" d="M414.43,-2311.89C417.1,-2200.2 431.84,-1630.93 457.98,-1458 475.4,-1342.74 514.84,-1210.14 534.54,-1147.84"/>
<polygon fill="#1f9e89" stroke="#1f9e89" points="537.95,-1148.7 537.65,-1138.11 531.28,-1146.58 537.95,-1148.7"/>
<text text-anchor="middle" x="476.98" y="-1461.8" font-family="Times,serif" font-size="14.00">0.233</text>
</g>
<!-- R3&#45;&gt;N2 -->
<g id="edge3" class="edge">
<title>R3&#45;&gt;N2</title>
<path fill="none" stroke="#1e9c89" d="M680.79,-2134.33C681.47,-2197.32 680.01,-2395 636.45,-2437 540.33,-2529.68 458.16,-2469.08 336.98,-2413 332.18,-2410.78 327.28,-2408.14 322.54,-2405.37"/>
<polygon fill="#1e9c89" stroke="#1e9c89" points="324.08,-2402.21 313.73,-2399.97 320.42,-2408.18 324.08,-2402.21"/>
<text text-anchor="middle" x="476.98" y="-2484.8" font-family="Times,serif" font-size="14.00">0.225</text>
</g>
<!-- R3&#45;&gt;N11 -->
<g id="edge27" class="edge">
<title>R3&#45;&gt;N11</title>
<path fill="none" stroke="#1f9f88" d="M708.77,-2113.68C726.33,-2111.53 748.95,-2106.17 764.45,-2093 786.84,-2073.99 799.72,-2042.94 806.82,-2018.51"/>
<polygon fill="#1f9f88" stroke="#1f9f88" points="810.21,-2019.4 809.44,-2008.84 803.45,-2017.58 810.21,-2019.4"/>
<text text-anchor="middle" x="745.45" y="-2114.8" font-family="Times,serif" font-size="14.00">0.241</text>
</g>
<!-- R7&#45;&gt;N2 -->
<g id="edge5" class="edge">
<title>R7&#45;&gt;N2</title>
<path fill="none" stroke="#27ad81" d="M1476.74,-1845.2C1470.99,-1858.14 1463.91,-1875.75 1459.85,-1892 1442.76,-1960.58 1472.88,-1986.5 1441.85,-2050 1408.4,-2118.47 1356.57,-2103.49 1319.39,-2170 1301.81,-2201.43 1326.47,-2223.16 1301.39,-2249 1248.3,-2303.68 1202.71,-2256.28 1135.39,-2292 1014.81,-2355.97 1019.76,-2421.23 904.92,-2495 737.79,-2602.36 650.03,-2549.79 457.98,-2499 399.17,-2483.45 384.07,-2473.52 336.98,-2435 329.19,-2428.62 321.53,-2420.9 314.77,-2413.42"/>
<polygon fill="#27ad81" stroke="#27ad81" points="317.04,-2410.7 307.82,-2405.47 311.77,-2415.3 317.04,-2410.7"/>
<text text-anchor="middle" x="885.92" y="-2521.8" font-family="Times,serif" font-size="14.00">0.335</text>
</g>
<!-- R7&#45;&gt;N18 -->
<g id="edge97" class="edge">
<title>R7&#45;&gt;N18</title>
<path fill="none" stroke="#355e8d" d="M1513.96,-1823.52C1530.2,-1821.65 1551.43,-1818.6 1569.85,-1814 1573.64,-1813.05 1577.54,-1811.93 1581.41,-1810.72"/>
<polygon fill="#355e8d" stroke="#355e8d" points="1582.52,-1814.04 1590.91,-1807.56 1580.31,-1807.4 1582.52,-1814.04"/>
<text text-anchor="middle" x="1550.85" y="-1825.8" font-family="Times,serif" font-size="14.00">0.0553</text>
</g>
<!-- R14&#45;&gt;N2 -->
<g id="edge6" class="edge">
<title>R14&#45;&gt;N2</title>
<path fill="none" stroke="#42be72" d="M1750.68,-2168.39C1745.19,-2198.13 1734.77,-2256.82 1728.32,-2307 1722.8,-2349.94 1737.59,-2467.37 1710.32,-2501 1674.43,-2545.27 1634.77,-2506.64 1587.85,-2539 1577.17,-2546.37 1578.24,-2552.09 1569.85,-2562 1556.24,-2578.09 1458.76,-2689.42 1441.85,-2702 1387.94,-2742.12 1366.59,-2741.7 1301.39,-2758 1119.3,-2803.53 632.65,-2781.69 457.98,-2713 427.16,-2700.88 354.79,-2653.92 336.98,-2626 315.62,-2592.49 301.04,-2480.1 294.65,-2421.02"/>
<polygon fill="#42be72" stroke="#42be72" points="298.12,-2420.55 293.59,-2410.98 291.16,-2421.29 298.12,-2420.55"/>
<text text-anchor="middle" x="1013.92" y="-2784.8" font-family="Times,serif" font-size="14.00">0.506</text>
</g>
<!-- R14&#45;&gt;N20 -->
<g id="edge118" class="edge">
<title>R14&#45;&gt;N20</title>
<path fill="none" stroke="#297b8e" d="M1744.36,-2129.76C1736.73,-2116.89 1725.02,-2100.62 1710.32,-2091 1593.07,-2014.28 1532.15,-2073.34 1403.85,-2017 1370.97,-2002.56 1154.47,-1867.43 1135.39,-1837 1102.38,-1784.37 1090.33,-1598.34 1086.6,-1518.19"/>
<polygon fill="#297b8e" stroke="#297b8e" points="1090.09,-1517.89 1086.15,-1508.05 1083.1,-1518.2 1090.09,-1517.89"/>
<text text-anchor="middle" x="1422.85" y="-2034.8" font-family="Times,serif" font-size="14.00">0.105</text>
</g>
<!-- R18&#45;&gt;N2 -->
<g id="edge8" class="edge">
<title>R18&#45;&gt;N2</title>
<path fill="none" stroke="#bbde28" d="M177.98,-2402.96C185.49,-2395.92 194.89,-2388.75 205,-2385 219.41,-2379.65 236.2,-2378.53 250.95,-2379.08"/>
<polygon fill="#bbde28" stroke="#bbde28" points="251.08,-2382.59 261.28,-2379.73 251.52,-2375.6 251.08,-2382.59"/>
<text text-anchor="middle" x="224" y="-2388.8" font-family="Times,serif" font-size="14.00">1.54</text>
</g>
<!-- R18&#45;&gt;N11 -->
<g id="edge31" class="edge">
<title>R18&#45;&gt;N11</title>
<path fill="none" stroke="#a7db34" d="M172.06,-2441.06C196.11,-2480.33 257.45,-2569.4 336.98,-2603 441.4,-2647.11 491.04,-2596.68 580.45,-2527 748.96,-2395.67 798.18,-2119.32 810.79,-2019.21"/>
<polygon fill="#a7db34" stroke="#a7db34" points="814.3,-2019.33 812.02,-2008.99 807.35,-2018.49 814.3,-2019.33"/>
<text text-anchor="middle" x="476.98" y="-2614.8" font-family="Times,serif" font-size="14.00">1.32</text>
</g>
<!-- R19&#45;&gt;N2 -->
<g id="edge10" class="edge">
<title>R19&#45;&gt;N2</title>
<path fill="none" stroke="#4ac26d" d="M1473.93,-718.89C1465.92,-707.17 1454.54,-692.47 1441.85,-682 1394.65,-643.04 1373.52,-647.57 1319.39,-619 1025.79,-464.08 950.41,-361 618.45,-361 411.98,-361 411.98,-361 411.98,-361 361.6,-361 355.36,-399.09 336.98,-446 301.02,-537.81 292.36,-2085.94 291.15,-2346.82"/>
<polygon fill="#4ac26d" stroke="#4ac26d" points="287.65,-2346.9 291.1,-2356.92 294.65,-2346.93 287.65,-2346.9"/>
<text text-anchor="middle" x="885.92" y="-404.8" font-family="Times,serif" font-size="14.00">0.56</text>
</g>
<!-- R19&#45;&gt;N20 -->
<g id="edge120" class="edge">
<title>R19&#45;&gt;N20</title>
<path fill="none" stroke="#238b8d" d="M1466.06,-757.01C1448.85,-773.93 1423.66,-799.69 1403.85,-824 1394.98,-834.9 1394.16,-838.66 1385.85,-850 1357.33,-888.98 1340.32,-892.47 1319.39,-936 1304.72,-966.5 1316.24,-979.58 1301.39,-1010 1289.45,-1034.45 1273.82,-1032.87 1263.39,-1058 1237.14,-1121.24 1279.02,-1151.36 1245.39,-1211 1225.48,-1246.31 1205.71,-1242.53 1173.39,-1267 1156.66,-1279.66 1147.23,-1277.68 1135.39,-1295 1126.91,-1307.4 1105.6,-1393.97 1093.63,-1444.52"/>
<polygon fill="#238b8d" stroke="#238b8d" points="1090.19,-1443.89 1091.3,-1454.42 1097,-1445.49 1090.19,-1443.89"/>
<text text-anchor="middle" x="1282.39" y="-1061.8" font-family="Times,serif" font-size="14.00">0.15</text>
</g>
<!-- R11&#45;&gt;N11 -->
<g id="edge34" class="edge">
<title>R11&#45;&gt;N11</title>
<path fill="none" stroke="#c3e023" d="M1748.97,-1055.14C1742.13,-1077.75 1728.91,-1115.95 1710.32,-1145 1675.97,-1198.7 1569.87,-1323.58 1513.85,-1354 1470.59,-1377.49 1451.67,-1378.71 1403.85,-1367 1362.74,-1356.93 1355.82,-1344.55 1319.39,-1323 1311.11,-1318.11 1310.59,-1313.79 1301.39,-1311 1111.05,-1253.37 962.68,-1243.71 866.92,-1418 816.88,-1509.08 815.23,-1834.42 816.17,-1944.95"/>
<polygon fill="#c3e023" stroke="#c3e023" points="812.67,-1944.99 816.27,-1954.96 819.67,-1944.92 812.67,-1944.99"/>
<text text-anchor="middle" x="1282.39" y="-1314.8" font-family="Times,serif" font-size="14.00">1.65</text>
</g>
<!-- R11&#45;&gt;N16 -->
<g id="edge79" class="edge">
<title>R11&#45;&gt;N16</title>
<path fill="none" stroke="#a4db36" d="M1728.31,-1042.71C1722.41,-1044.18 1716.16,-1045.68 1710.32,-1047 1599.51,-1072.01 1553.46,-1033.63 1459.85,-1098 1447.67,-1106.38 1454.24,-1117.91 1441.85,-1126 1428.56,-1134.68 1411.79,-1138.66 1396.45,-1140.3"/>
<polygon fill="#a4db36" stroke="#a4db36" points="1395.81,-1136.84 1386.11,-1141.1 1396.35,-1143.82 1395.81,-1136.84"/>
<text text-anchor="middle" x="1550.85" y="-1067.8" font-family="Times,serif" font-size="14.00">1.28</text>
</g>
<!-- R12&#45;&gt;N11 -->
<g id="edge36" class="edge">
<title>R12&#45;&gt;N11</title>
<path fill="none" stroke="#5ac864" d="M1459.75,-1922.26C1403.93,-1926.88 1268.85,-1937 1155.39,-1937 948.92,-1937 948.92,-1937 948.92,-1937 915.01,-1937 878.69,-1950.43 852.71,-1962.61"/>
<polygon fill="#5ac864" stroke="#5ac864" points="851.1,-1959.5 843.64,-1967.02 854.16,-1965.8 851.1,-1959.5"/>
<text text-anchor="middle" x="1154.39" y="-1940.8" font-family="Times,serif" font-size="14.00">0.664</text>
</g>
<!-- R12&#45;&gt;N18 -->
<g id="edge102" class="edge">
<title>R12&#45;&gt;N18</title>
<path fill="none" stroke="#228d8d" d="M1514.02,-1916.63C1531.51,-1913.21 1554.11,-1906.41 1569.85,-1893 1588.59,-1877.04 1601.24,-1852.34 1609.16,-1831.86"/>
<polygon fill="#228d8d" stroke="#228d8d" points="1612.54,-1832.79 1612.67,-1822.2 1605.96,-1830.4 1612.54,-1832.79"/>
<text text-anchor="middle" x="1550.85" y="-1915.8" font-family="Times,serif" font-size="14.00">0.159</text>
</g>
<!-- R16&#45;&gt;N11 -->
<g id="edge38" class="edge">
<title>R16&#45;&gt;N11</title>
<path fill="none" stroke="#21a585" d="M1728.3,-435.12C1656.25,-425.81 1450.87,-409.14 1319.39,-498 1199.02,-579.35 1228.26,-661.12 1117.39,-755 1070.04,-795.09 1041.91,-781.49 994.92,-822 954.79,-856.59 941.54,-867.4 922.92,-917 882.52,-1024.61 935.5,-1064.2 904.92,-1175 894.98,-1211.02 876.84,-1213.97 866.92,-1250 830.28,-1383.04 819.68,-1815.2 817.28,-1944.88"/>
<polygon fill="#21a585" stroke="#21a585" points="813.78,-1945.02 817.1,-1955.08 820.78,-1945.15 813.78,-1945.02"/>
<text text-anchor="middle" x="1282.39" y="-550.8" font-family="Times,serif" font-size="14.00">0.278</text>
</g>
<!-- R16&#45;&gt;N15 -->
<g id="edge59" class="edge">
<title>R16&#45;&gt;N15</title>
<path fill="none" stroke="#26818e" d="M1755.1,-419.94C1755.26,-387.35 1750.3,-321.41 1710.32,-290 1642.54,-236.74 1511.41,-266.9 1403.85,-277 1294.8,-287.24 1016.58,-328.21 922.92,-385 912.41,-391.37 914.66,-398.5 904.92,-406 883.02,-422.85 874.17,-421.77 848.92,-433 795.2,-456.89 779.69,-458.07 726.45,-483 711.87,-489.83 607.36,-537.58 598.45,-551 569.55,-594.55 553.89,-956.64 549.51,-1074.84"/>
<polygon fill="#26818e" stroke="#26818e" points="546.01,-1074.74 549.14,-1084.86 553,-1074.99 546.01,-1074.74"/>
<text text-anchor="middle" x="1154.39" y="-321.8" font-family="Times,serif" font-size="14.00">0.12</text>
</g>
<!-- R20&#45;&gt;N11 -->
<g id="edge39" class="edge">
<title>R20&#45;&gt;N11</title>
<path fill="none" stroke="#24aa83" d="M2023,-1537.07C2024.54,-1701.03 2030.57,-2867 1890.56,-2867 1281.39,-2867 1281.39,-2867 1281.39,-2867 1130.02,-2867 1262.47,-2666.38 1173.39,-2544 1161.04,-2527.04 1152.08,-2528.71 1135.39,-2516 1014.62,-2424.09 943.57,-2435.98 866.92,-2305 838.85,-2257.03 824.32,-2093.39 819.05,-2019.15"/>
<polygon fill="#24aa83" stroke="#24aa83" points="822.52,-2018.61 818.34,-2008.87 815.54,-2019.09 822.52,-2018.61"/>
<text text-anchor="middle" x="1422.85" y="-2870.8" font-family="Times,serif" font-size="14.00">0.31</text>
</g>
<!-- R20&#45;&gt;N16 -->
<g id="edge83" class="edge">
<title>R20&#45;&gt;N16</title>
<path fill="none" stroke="#1fa287" d="M2022.93,-1498.94C2022.97,-1437.75 2019.72,-1247.85 1978.79,-1206 1832.69,-1056.6 1722.75,-1141.59 1513.85,-1136 1489.86,-1135.36 1482.96,-1129.5 1459.85,-1136 1450.83,-1138.54 1450.88,-1144.46 1441.85,-1147 1425.6,-1151.57 1420.7,-1148.17 1403.85,-1147 1401.15,-1146.81 1398.37,-1146.57 1395.56,-1146.28"/>
<polygon fill="#1fa287" stroke="#1fa287" points="1395.78,-1142.79 1385.44,-1145.11 1394.97,-1149.74 1395.78,-1142.79"/>
<text text-anchor="middle" x="1691.32" y="-1129.8" font-family="Times,serif" font-size="14.00">0.258</text>
</g>
<!-- R5&#45;&gt;N13 -->
<g id="edge50" class="edge">
<title>R5&#45;&gt;N13</title>
<path fill="none" stroke="#463580" d="M1782.45,-2335C1800.48,-2335 1824.86,-2335 1845.71,-2335"/>
<polygon fill="#463580" stroke="#463580" points="1845.92,-2338.5 1855.92,-2335 1845.92,-2331.5 1845.92,-2338.5"/>
<text text-anchor="middle" x="1819.32" y="-2338.8" font-family="Times,serif" font-size="14.00">0.0247</text>
</g>
<!-- R5&#45;&gt;N18 -->
<g id="edge104" class="edge">
<title>R5&#45;&gt;N18</title>
<path fill="none" stroke="#52c569" d="M1747.88,-2315.85C1733.06,-2271.34 1696.02,-2157.29 1672.32,-2060 1652.75,-1979.64 1636.19,-1883.97 1627.86,-1832.73"/>
<polygon fill="#52c569" stroke="#52c569" points="1631.31,-1832.11 1626.26,-1822.8 1624.4,-1833.23 1631.31,-1832.11"/>
<text text-anchor="middle" x="1691.32" y="-2200.8" font-family="Times,serif" font-size="14.00">0.606</text>
</g>
<!-- R5&#45;&gt;N20 -->
<g id="edge126" class="edge">
<title>R5&#45;&gt;N20</title>
<path fill="none" stroke="#23a983" d="M1728.28,-2321.25C1653.59,-2281.91 1432.04,-2165.91 1245.39,-2075 1196.94,-2051.4 1166.45,-2068.03 1135.39,-2024 1106.31,-1982.79 1090.83,-1633.94 1086.46,-1518.17"/>
<polygon fill="#23a983" stroke="#23a983" points="1089.95,-1517.89 1086.09,-1508.02 1082.96,-1518.15 1089.95,-1517.89"/>
<text text-anchor="middle" x="1422.85" y="-2175.8" font-family="Times,serif" font-size="14.00">0.305</text>
</g>
<!-- R9&#45;&gt;N13 -->
<g id="edge51" class="edge">
<title>R9&#45;&gt;N13</title>
<path fill="none" stroke="#33628d" d="M1238.31,-2497.22C1283.84,-2541.89 1405.13,-2651.92 1531.85,-2691 1607.65,-2714.38 1632.03,-2703.71 1710.32,-2691 1743.62,-2685.6 1758.62,-2690.99 1782.32,-2667 1863.68,-2584.66 1882.77,-2440.03 1887.22,-2372.15"/>
<polygon fill="#33628d" stroke="#33628d" points="1890.73,-2372.13 1887.82,-2361.94 1883.74,-2371.72 1890.73,-2372.13"/>
<text text-anchor="middle" x="1550.85" y="-2703.8" font-family="Times,serif" font-size="14.00">0.0603</text>
</g>
<!-- R4&#45;&gt;N15 -->
<g id="edge63" class="edge">
<title>R4&#45;&gt;N15</title>
<path fill="none" stroke="#33b67a" d="M1469.77,-465.94C1466.32,-461.49 1462.83,-456.68 1459.85,-452 1450.27,-436.9 1456,-426.96 1441.85,-416 1379.1,-367.39 1341.59,-395.41 1263.39,-409 1105.42,-436.45 689.11,-556.76 598.45,-689 555.71,-751.34 549.2,-983.81 548.31,-1074.98"/>
<polygon fill="#33b67a" stroke="#33b67a" points="544.81,-1075.1 548.23,-1085.12 551.81,-1075.15 544.81,-1075.1"/>
<text text-anchor="middle" x="1013.92" y="-482.8" font-family="Times,serif" font-size="14.00">0.414</text>
</g>
<!-- R4&#45;&gt;N20 -->
<g id="edge129" class="edge">
<title>R4&#45;&gt;N20</title>
<path fill="none" stroke="#218f8d" d="M1459.49,-479.02C1442.14,-476.64 1419.77,-476.7 1403.85,-488 1192.52,-637.98 1256.07,-780.05 1191.39,-1031 1176.17,-1090.04 1204.4,-1114.51 1173.39,-1167 1162.72,-1185.06 1146.44,-1177.17 1135.39,-1195 1109.93,-1236.08 1094.42,-1376.07 1088.25,-1443.75"/>
<polygon fill="#218f8d" stroke="#218f8d" points="1084.74,-1443.7 1087.33,-1453.97 1091.71,-1444.32 1084.74,-1443.7"/>
<text text-anchor="middle" x="1282.39" y="-653.8" font-family="Times,serif" font-size="14.00">0.167</text>
</g>
<!-- R8&#45;&gt;N15 -->
<g id="edge65" class="edge">
<title>R8&#45;&gt;N15</title>
<path fill="none" stroke="#47c06f" d="M1741.43,-2658.46C1733.62,-2668.76 1722.77,-2680.74 1710.32,-2688 1640.79,-2728.57 1611.48,-2730.89 1531.85,-2719 1375.37,-2695.63 1340.87,-2666.87 1191.39,-2615 1174.69,-2609.21 608.71,-2398.39 598.45,-2384 561.7,-2332.46 550.49,-1354.02 548.55,-1149.34"/>
<polygon fill="#47c06f" stroke="#47c06f" points="552.04,-1149.07 548.45,-1139.11 545.04,-1149.14 552.04,-1149.07"/>
<text text-anchor="middle" x="1154.39" y="-2612.8" font-family="Times,serif" font-size="14.00">0.539</text>
</g>
<!-- R8&#45;&gt;N16 -->
<g id="edge86" class="edge">
<title>R8&#45;&gt;N16</title>
<path fill="none" stroke="#24aa83" d="M1738.38,-2619.81C1671.1,-2538.73 1413.42,-2227.3 1403.85,-2202 1367.02,-2104.61 1356.09,-1353.85 1354.02,-1177.16"/>
<polygon fill="#24aa83" stroke="#24aa83" points="1357.52,-1177.02 1353.9,-1167.06 1350.52,-1177.1 1357.52,-1177.02"/>
<text text-anchor="middle" x="1550.85" y="-2415.8" font-family="Times,serif" font-size="14.00">0.313</text>
</g>
<!-- R10&#45;&gt;N15 -->
<g id="edge67" class="edge">
<title>R10&#45;&gt;N15</title>
<path fill="none" stroke="#70cf57" d="M1750,-1377.98C1744.45,-1358.53 1732.74,-1329.34 1710.32,-1316 1592.93,-1246.17 1517.26,-1415.13 1403.85,-1339 1386.31,-1327.22 1398.92,-1311.6 1385.85,-1295 1363.32,-1266.37 1344.61,-1273.3 1319.39,-1247 1237.9,-1162.04 1272.19,-1090 1173.39,-1026 1065.1,-955.86 1015.94,-979 886.92,-979 680.45,-979 680.45,-979 680.45,-979 624.83,-979 584.57,-1038.21 563.93,-1077.62"/>
<polygon fill="#70cf57" stroke="#70cf57" points="560.74,-1076.17 559.34,-1086.67 566.98,-1079.33 560.74,-1076.17"/>
<text text-anchor="middle" x="1154.39" y="-1029.8" font-family="Times,serif" font-size="14.00">0.818</text>
</g>
<!-- R10&#45;&gt;N18 -->
<g id="edge107" class="edge">
<title>R10&#45;&gt;N18</title>
<path fill="none" stroke="#23a983" d="M1752.3,-1416.25C1747.79,-1455.45 1735.3,-1547.01 1710.32,-1620 1692.39,-1672.4 1661.81,-1728.97 1641.78,-1763.44"/>
<polygon fill="#23a983" stroke="#23a983" points="1638.72,-1761.74 1636.68,-1772.14 1644.76,-1765.28 1638.72,-1761.74"/>
<text text-anchor="middle" x="1691.32" y="-1707.8" font-family="Times,serif" font-size="14.00">0.305</text>
</g>
<!-- R17&#45;&gt;N15 -->
<g id="edge69" class="edge">
<title>R17&#45;&gt;N15</title>
<path fill="none" stroke="#1f9f88" d="M1733.46,-1682.74C1726.59,-1677.58 1718.59,-1672.69 1710.32,-1670 1694.26,-1664.78 1689.2,-1669.34 1672.32,-1670 1569.66,-1674 1544.52,-1684 1441.85,-1688 1266.99,-1694.82 1218.76,-1690.54 1050.92,-1641 964.16,-1615.39 933.48,-1615.25 866.92,-1554 800.03,-1492.45 834.8,-1434.56 764.45,-1377 704.19,-1327.7 650.99,-1378.46 598.45,-1321 575.67,-1296.08 560,-1201.98 552.76,-1148.94"/>
<polygon fill="#1f9f88" stroke="#1f9f88" points="556.22,-1148.37 551.43,-1138.91 549.28,-1149.29 556.22,-1148.37"/>
<text text-anchor="middle" x="1154.39" y="-1677.8" font-family="Times,serif" font-size="14.00">0.241</text>
</g>
<!-- R17&#45;&gt;N18 -->
<g id="edge109" class="edge">
<title>R17&#45;&gt;N18</title>
<path fill="none" stroke="#2e6f8e" d="M1727.98,-1717.99C1711.65,-1728.15 1690.41,-1741.83 1672.32,-1755 1665.8,-1759.75 1658.98,-1765.06 1652.56,-1770.24"/>
<polygon fill="#2e6f8e" stroke="#2e6f8e" points="1650.2,-1767.64 1644.67,-1776.68 1654.63,-1773.06 1650.2,-1767.64"/>
<text text-anchor="middle" x="1691.32" y="-1758.8" font-family="Times,serif" font-size="14.00">0.0796</text>
</g>
<!-- R6&#45;&gt;N16 -->
<g id="edge89" class="edge">
<title>R6&#45;&gt;N16</title>
<path fill="none" stroke="#2bb07e" d="M1468.37,-894.29C1465.16,-898.57 1462.11,-903.26 1459.85,-908 1444.19,-940.91 1463.15,-958.42 1441.85,-988 1430.32,-1004.02 1416.56,-995.89 1403.85,-1011 1381.34,-1037.79 1368.18,-1075.84 1361.03,-1103.68"/>
<polygon fill="#2bb07e" stroke="#2bb07e" points="1357.62,-1102.88 1358.65,-1113.43 1364.42,-1104.54 1357.62,-1102.88"/>
<text text-anchor="middle" x="1422.85" y="-1014.8" font-family="Times,serif" font-size="14.00">0.363</text>
</g>
<!-- R6&#45;&gt;N20 -->
<g id="edge133" class="edge">
<title>R6&#45;&gt;N20</title>
<path fill="none" stroke="#297a8e" d="M1485.14,-894.23C1481.22,-970.88 1456.35,-1257.65 1301.39,-1408 1288.45,-1420.55 1184.65,-1452.14 1125.69,-1469.37"/>
<polygon fill="#297a8e" stroke="#297a8e" points="1124.56,-1466.05 1115.94,-1472.2 1126.52,-1472.77 1124.56,-1466.05"/>
<text text-anchor="middle" x="1282.39" y="-1429.8" font-family="Times,serif" font-size="14.00">0.103</text>
</g>
<!-- R13&#45;&gt;N16 -->
<g id="edge91" class="edge">
<title>R13&#45;&gt;N16</title>
<path fill="none" stroke="#30b47b" d="M1747.45,-299.17C1738.91,-322.91 1723.81,-364.53 1710.32,-400 1657.53,-538.86 1641.78,-572.58 1587.85,-711 1585.78,-716.33 1516.95,-898.19 1513.85,-903 1495.31,-931.8 1476.8,-928.23 1459.85,-958 1444.39,-985.17 1459.44,-1000.15 1441.85,-1026 1430.06,-1043.35 1417.88,-1038.4 1403.85,-1054 1390.01,-1069.41 1378.12,-1089.23 1369.39,-1105.96"/>
<polygon fill="#30b47b" stroke="#30b47b" points="1366.26,-1104.39 1364.87,-1114.89 1372.51,-1107.55 1366.26,-1104.39"/>
<text text-anchor="middle" x="1550.85" y="-860.8" font-family="Times,serif" font-size="14.00">0.396</text>
</g>
<!-- R15&#45;&gt;N16 -->
<g id="edge92" class="edge">
<title>R15&#45;&gt;N16</title>
<path fill="none" stroke="#60ca60" d="M1237.36,-1376.59C1245.01,-1368.82 1254.27,-1360.06 1263.39,-1353 1278.99,-1340.91 1289.56,-1345.81 1301.39,-1330 1335.33,-1284.64 1346.38,-1218.19 1349.95,-1177.09"/>
<polygon fill="#60ca60" stroke="#60ca60" points="1353.45,-1177.2 1350.72,-1166.96 1346.47,-1176.67 1353.45,-1177.2"/>
<text text-anchor="middle" x="1282.39" y="-1356.8" font-family="Times,serif" font-size="14.00">0.704</text>
</g>
<!-- R15&#45;&gt;N18 -->
<g id="edge112" class="edge">
<title>R15&#45;&gt;N18</title>
<path fill="none" stroke="#1f958b" d="M1220.69,-1415.29C1224.41,-1464.78 1236.53,-1594.64 1263.39,-1627 1300.72,-1671.99 1331.62,-1653.17 1385.85,-1675 1467.94,-1708.03 1494.94,-1703.92 1569.85,-1751 1577.55,-1755.84 1585.2,-1761.88 1592.12,-1767.95"/>
<polygon fill="#1f958b" stroke="#1f958b" points="1590.12,-1770.86 1599.87,-1775.02 1594.84,-1765.69 1590.12,-1770.86"/>
<text text-anchor="middle" x="1422.85" y="-1698.8" font-family="Times,serif" font-size="14.00">0.193</text>
</g>
<!-- R1&#45;&gt;N20 -->
<g id="edge136" class="edge">
<title>R1&#45;&gt;N20</title>
<path fill="none" stroke="#1e9c8a" d="M977.03,-1438.78C993.27,-1443.82 1014.5,-1450.78 1032.92,-1458 1037.15,-1459.66 1041.54,-1461.49 1045.88,-1463.38"/>
<polygon fill="#1e9c8a" stroke="#1e9c8a" points="1044.67,-1466.67 1055.23,-1467.55 1047.52,-1460.28 1044.67,-1466.67"/>
<text text-anchor="middle" x="1013.92" y="-1461.8" font-family="Times,serif" font-size="14.00">0.223</text>
</g>
</g>
</svg>
